<svg width="126" height="126" viewBox="0 0 126 126" fill="none" xmlns="http://www.w3.org/2000/svg">
<path fill-rule="evenodd" clip-rule="evenodd" d="M0.523438 25.2751C0.523438 18.6312 3.16242 12.2597 7.85979 7.56224C12.5572 2.86412 18.9282 0.225098 25.5714 0.225098H100.715C107.358 0.225098 113.729 2.86412 118.427 7.56224C123.124 12.2597 125.763 18.6312 125.763 25.2751V100.425C125.763 107.069 123.124 113.44 118.427 118.138C113.729 122.836 107.358 125.475 100.715 125.475H25.5714C18.9282 125.475 12.5572 122.836 7.85979 118.138C3.16242 113.44 0.523438 107.069 0.523438 100.425V25.2751ZM25.5714 12.7501C22.2498 12.7501 19.0643 14.0696 16.7156 16.4187C14.3669 18.7677 13.0474 21.9535 13.0474 25.2751V100.425C13.0474 103.747 14.3669 106.932 16.7156 109.282C19.0643 111.631 22.2498 112.95 25.5714 112.95H63.1432V69.1126H56.8813C55.2206 69.1126 53.6275 68.4525 52.4534 67.2783C51.2793 66.1041 50.6193 64.5109 50.6193 62.8501C50.6193 61.1893 51.2793 59.5961 52.4534 58.4219C53.6275 57.2477 55.2206 56.5876 56.8813 56.5876H63.1432V47.1938C63.1432 41.3804 65.452 35.8055 69.5624 31.6948C73.6728 27.5841 79.2472 25.2751 85.0602 25.2751H88.8174C90.478 25.2751 92.0711 25.9352 93.2452 27.1094C94.4193 28.2836 95.0794 29.8768 95.0794 31.5376C95.0794 33.1984 94.4193 34.7916 93.2452 35.9658C92.0711 37.14 90.478 37.8001 88.8174 37.8001H85.0602C83.8266 37.8001 82.6055 38.0431 81.4658 38.5153C80.3261 38.9874 79.2904 39.6795 78.4181 40.5512C77.5464 41.4236 76.8545 42.4594 76.3823 43.5992C75.9102 44.739 75.6672 45.9601 75.6672 47.1938V56.5876H88.8174C90.478 56.5876 92.0711 57.2477 93.2452 58.4219C94.4193 59.5961 95.0794 61.1893 95.0794 62.8501C95.0794 64.5109 94.4193 66.1041 93.2452 67.2783C92.0711 68.4525 90.478 69.1126 88.8174 69.1126H75.6672V112.95H100.715C104.036 112.95 107.222 111.631 109.571 109.282C111.92 106.932 113.239 103.747 113.239 100.425V25.2751C113.239 21.9535 111.92 18.7677 109.571 16.4187C107.222 14.0696 104.036 12.7501 100.715 12.7501H25.5714Z" fill="white"/>
</svg>
