<svg width="126" height="126" viewBox="0 0 126 126" fill="none" xmlns="http://www.w3.org/2000/svg">
<path fill-rule="evenodd" clip-rule="evenodd" d="M0.759766 25.1C0.759766 18.4563 3.39604 12.0848 8.09879 7.387C12.7953 2.68925 19.1637 0.0500488 25.8077 0.0500488H100.951C107.595 0.0500488 113.964 2.68925 118.66 7.387C123.363 12.0848 125.999 18.4563 125.999 25.1V100.25C125.999 106.894 123.363 113.265 118.66 117.963C113.964 122.661 107.595 125.3 100.951 125.3H25.8077C19.1637 125.3 12.7953 122.661 8.09879 117.963C3.39604 113.265 0.759766 106.894 0.759766 100.25V25.1ZM25.8077 12.575C22.4888 12.575 19.3015 13.8946 16.9532 16.2436C14.605 18.5924 13.2837 21.7782 13.2837 25.1V100.25C13.2837 103.572 14.605 106.757 16.9532 109.106C19.3015 111.456 22.4888 112.775 25.8077 112.775H100.951C104.27 112.775 107.458 111.456 109.806 109.106C112.154 106.757 113.475 103.572 113.475 100.25V25.1C113.475 21.7782 112.154 18.5924 109.806 16.2436C107.458 13.8946 104.27 12.575 100.951 12.575H25.8077ZM63.3796 43.8875C58.395 43.8875 53.6171 45.8671 50.0979 49.3904C46.5724 52.9137 44.5936 57.6926 44.5936 62.675C44.5936 67.6575 46.5724 72.4364 50.0979 75.9597C53.6171 79.483 58.395 81.4625 63.3796 81.4625C68.3641 81.4625 73.142 79.483 76.6613 75.9597C80.1867 72.4364 82.1655 67.6575 82.1655 62.675C82.1655 57.6926 80.1867 52.9137 76.6613 49.3904C73.142 45.8671 68.3641 43.8875 63.3796 43.8875ZM32.0697 62.675C32.0697 54.3703 35.3697 46.4057 41.2371 40.534C47.1109 34.6615 55.0762 31.3625 63.3796 31.3625C71.683 31.3625 79.6483 34.6615 85.522 40.534C91.3895 46.4057 94.6895 54.3703 94.6895 62.675C94.6895 70.9797 91.3895 78.9444 85.522 84.8161C79.6483 90.6885 71.683 93.9875 63.3796 93.9875C55.0762 93.9875 47.1109 90.6885 41.2371 84.8161C35.3697 78.9444 32.0697 70.9797 32.0697 62.675ZM97.8205 37.625C100.313 37.625 102.699 36.6353 104.464 34.8737C106.224 33.112 107.213 30.7226 107.213 28.2313C107.213 25.74 106.224 23.3506 104.464 21.5889C102.699 19.8273 100.313 18.8375 97.8205 18.8375C95.3282 18.8375 92.9424 19.8273 91.1765 21.5889C89.4169 23.3506 88.4275 25.74 88.4275 28.2313C88.4275 30.7226 89.4169 33.112 91.1765 34.8737C92.9424 36.6353 95.3282 37.625 97.8205 37.625Z" fill="white"/>
</svg>
