<svg width="132" height="110" viewBox="0 0 132 110" fill="none" xmlns="http://www.w3.org/2000/svg">
<path fill-rule="evenodd" clip-rule="evenodd" d="M84.1845 12.8329C81.324 12.8316 78.4986 13.466 75.9124 14.6891C73.3262 15.9127 71.0444 17.6951 69.2309 19.9076C67.4174 22.1201 66.1181 24.7078 65.4261 27.484C64.7342 30.2601 64.6665 33.1553 65.2295 35.9603C65.423 36.9322 65.3835 37.9361 65.1136 38.8899C64.8437 39.8437 64.3515 40.7191 63.6771 41.4456C63.0033 42.172 62.1661 42.7275 61.235 43.0676C60.3044 43.4076 59.3063 43.5216 58.3225 43.4001C44.8574 41.7462 32.1643 36.2108 21.7901 27.4683C21.9842 31.2383 23.293 35.2463 26.1297 39.4422L30.3816 45.7298L23.3994 48.7045L22.0531 49.2806C23.055 50.4266 24.2573 51.5977 25.6037 52.7563C27.4034 54.2969 29.3076 55.7116 31.3021 56.9897L31.371 57.0336H31.3772L41.0707 62.9141L30.9264 67.9867C30.4254 68.2372 29.9244 68.4627 29.4235 68.6631C31.6045 70.4754 34.0079 72.0035 36.5747 73.2096L45.2788 77.3241L37.9899 83.6116C34.0135 87.0435 30.0121 89.6048 24.8209 90.9575C32.7824 95.1985 41.6682 97.4079 50.6892 97.3891C80.7842 97.3891 105.018 73.3724 105.018 43.9449V40.6884L107.679 38.816C111.837 35.8976 114.774 31.9523 116.878 27.437H103.352L101.649 23.8674C100.081 20.5651 97.6077 17.7752 94.5174 15.8219C91.4271 13.8687 87.8465 12.8322 84.1908 12.8329H84.1845ZM13.5494 58.5491C12.9582 59.2261 12.5199 60.022 12.2638 60.8831C12.0077 61.7442 11.94 62.6504 12.0653 63.5403C12.7729 68.5566 15.7723 72.8777 19.0912 76.178C19.9929 77.0736 20.9573 77.9315 21.9717 78.7519L21.5021 78.8772C18.4901 79.6287 14.426 79.7852 7.65682 79.1277C6.37875 79.0024 5.09254 79.273 3.97352 79.903C2.85388 80.5336 1.95529 81.4924 1.39985 82.6503C0.843788 83.8089 0.657799 85.1096 0.866323 86.3771C1.07485 87.6447 1.66849 88.8176 2.56583 89.7363C8.83282 96.1423 16.319 101.228 24.583 104.694C32.8469 108.159 41.7214 109.934 50.6829 109.914C86.4576 109.914 115.801 82.1337 117.461 47.0762C125.539 40.2939 129.578 31.1068 131.757 22.7589C131.999 21.8321 132.025 20.8626 131.834 19.9245C131.643 18.9858 131.24 18.104 130.654 17.3456C130.069 16.5879 129.317 15.9748 128.457 15.5527C127.598 15.1306 126.653 14.9114 125.695 14.912H110.961C107.356 9.31522 102.089 4.98845 95.9001 2.53981C89.7101 0.0911732 82.9089 -0.35659 76.4516 1.25976C69.9948 2.87611 64.2063 6.47516 59.8999 11.5515C55.5936 16.6273 52.9854 22.9255 52.4425 29.56C40.8998 26.5546 30.5713 20.046 22.8797 10.9291C22.1984 10.1237 21.3249 9.50309 20.3398 9.12546C19.3548 8.74784 18.2909 8.62509 17.2458 8.76913C16.2007 8.91254 15.2088 9.31834 14.3622 9.94772C13.5155 10.5771 12.8418 11.41 12.4034 12.3694C8.60866 20.6484 7.88226 30.1925 12.1154 39.8994L10.65 40.5256C9.24799 41.1231 8.11144 42.2115 7.45456 43.5874C6.79768 44.9626 6.6643 46.5301 7.08072 47.9968C8.24545 52.0799 10.863 55.6871 13.5431 58.5491H13.5494Z" fill="white"/>
</svg>
