<svg width="92" height="47" viewBox="0 0 92 47" fill="none" xmlns="http://www.w3.org/2000/svg">
<path d="M6.05188 15.4904C5.87067 15.6257 5.6788 15.7442 5.47839 15.8445C2.33707 17.025 0.342714 19.3043 0.0431326 22.8459C-0.112165 24.3069 0.154069 25.7836 0.806648 27.0807C1.45923 28.3778 2.46743 29.4343 3.69802 30.1106C12.5571 35.4047 21.4504 40.6171 30.3522 45.8295C31.8973 46.8014 33.7291 47.1253 35.4879 46.7376C37.0547 46.4473 38.4956 45.6411 39.6063 44.4333C40.7171 43.2256 41.4413 41.6775 41.6764 40.0087C42.13 36.9484 40.5294 33.8609 37.5678 32.072L23.1794 23.4634C27.947 20.612 32.7232 17.7787 37.4737 14.9001C41.5309 12.4392 42.8747 8.04405 40.8204 4.14837C39.7859 2.2726 38.0984 0.902811 36.1214 0.333854C34.1443 -0.235102 32.0357 0.0422779 30.2495 1.10629C28.666 2.01437 27.1167 2.92246 25.5589 3.83054L6.05188 15.4904ZM85.5522 31.1004C88.7449 29.7564 90.9018 27.468 91.0302 23.6631C91.1586 19.8583 89.13 17.6879 86.1599 15.9716C78.4564 11.5493 70.8727 6.97252 63.2291 2.46842C62.1083 1.74989 60.9413 1.11569 59.7368 0.570506C57.9492 -0.177876 55.9625 -0.190383 54.1667 0.535422C52.3709 1.26123 50.8956 2.67293 50.0304 4.49344C48.3185 8.28924 49.6196 12.4029 53.283 14.7003C54.0448 15.1816 54.8323 15.6084 55.6112 16.0988L67.8341 23.4634L53.5483 32.0084C49.6024 34.3604 48.1473 38.7192 50.0903 42.5332C50.5694 43.4985 51.2258 44.3523 52.0208 45.0442C52.8159 45.7361 53.7334 46.2522 54.7194 46.5619C55.7054 46.8717 56.7399 46.9688 57.7618 46.8477C58.7838 46.7266 59.7725 46.3897 60.6698 45.8568C62.2619 45.0032 63.8111 44.0406 65.369 43.1325L85.5522 31.1004Z" fill="white"/>
<path d="M67.8355 23.484L55.5864 16.1129C54.8069 15.6403 54.0189 15.2041 53.2565 14.7133C49.5904 12.4138 48.2884 8.29653 50.0016 4.4974C50.8673 2.67528 52.3437 1.26234 54.1409 0.535893C55.9381 -0.19055 57.9262 -0.178032 59.7151 0.571008C60.9205 1.11667 62.0883 1.75143 63.2099 2.47059C70.8592 7.01501 78.4741 11.5594 86.1576 15.9857C89.1299 17.7035 91.1514 19.9848 91.0315 23.6839C90.9116 27.3831 88.7445 29.7826 85.5494 31.1277C83.1461 31.6562 80.6433 31.1564 78.5855 29.7371C75.0478 27.6012 71.4416 25.5653 67.8355 23.484Z" fill="#09A150"/>
<path d="M23.1694 23.4848L37.5933 32.1635C40.5568 33.981 42.1585 37.0436 41.7046 40.1062C41.4694 41.7763 40.7446 43.3254 39.6331 44.5341C38.5216 45.7428 37.0797 46.5496 35.5119 46.8401C33.752 47.2281 31.9189 46.904 30.3727 45.9314C21.4649 40.715 12.5656 35.4987 3.70053 30.2006C2.4691 29.5238 1.46022 28.4665 0.807194 27.1684C0.154173 25.8703 -0.112241 24.3926 0.0431618 22.9304C0.342946 19.3862 2.33865 17.1052 5.4821 15.9238C5.68265 15.8234 5.87465 15.7048 6.05597 15.5694C8.61105 15.4999 11.1268 16.2472 13.2765 17.7141C16.5056 19.677 19.8889 21.5218 23.1694 23.4848Z" fill="#4285F4"/>
<path d="M67.8589 23.5C71.4483 25.584 75.0548 27.6226 78.6099 29.7612C80.6679 31.1824 83.1709 31.6828 85.5744 31.1536L65.3918 43.2302C63.8327 44.1402 62.2821 45.1049 60.6887 45.9603C59.7897 46.4938 58.7992 46.8304 57.7757 46.9505C56.7522 47.0706 55.7164 46.9716 54.7294 46.6594C53.7425 46.3473 52.8244 45.8282 52.0294 45.133C51.2344 44.4377 50.5785 43.5803 50.1005 42.6113C48.1817 38.7709 49.6123 34.4208 53.5786 32.0455L67.8589 23.5Z" fill="#FBBA17"/>
<path d="M23.176 23.4999C19.8613 21.5833 16.5123 19.7394 13.2576 17.7138C11.1079 16.2475 8.59216 15.5006 6.03711 15.57L25.5571 3.88865C27.116 2.9803 28.6663 2.01745 30.2509 1.1636C32.0383 0.0992803 34.1483 -0.178181 36.1266 0.390942C38.105 0.960064 39.7936 2.33025 40.8288 4.20657C42.8845 8.10339 41.5398 12.4998 37.4799 14.9615C32.7433 17.7683 27.9468 20.6023 23.176 23.4999Z" fill="#E73A32"/>
</svg>
