<svg width="74" height="74" viewBox="0 0 74 74" fill="#fff" xmlns="http://www.w3.org/2000/svg">
<path d="M69.0362 19.3328C65.7276 13.6639 61.2397 9.17581 55.5713 5.86753C49.902 2.55908 43.7128 0.905273 36.9994 0.905273C30.2868 0.905273 24.0957 2.55958 18.4276 5.86753C12.7586 9.17564 8.27087 13.6639 4.96226 19.3328C1.65414 25.0016 0 31.1919 0 37.9037C0 45.966 2.35221 53.2158 7.05782 59.655C11.7629 66.0948 17.8412 70.5508 25.2922 73.0237C26.1595 73.1846 26.8015 73.0714 27.219 72.6869C27.6366 72.3018 27.8452 71.8195 27.8452 71.2421C27.8452 71.1458 27.8369 70.279 27.8209 68.6407C27.8044 67.0024 27.7966 65.5732 27.7966 64.3537L26.6885 64.5454C25.982 64.6748 25.0907 64.7297 24.0147 64.7142C22.9391 64.6991 21.8226 64.5864 20.6666 64.3769C19.51 64.1691 18.4343 63.6874 17.4386 62.9326C16.4434 62.1778 15.7369 61.1899 15.3192 59.9702L14.8375 58.8616C14.5164 58.1236 14.0108 57.3037 13.3202 56.405C12.6296 55.5054 11.9311 54.8956 11.2246 54.5745L10.8873 54.333C10.6626 54.1726 10.454 53.979 10.2611 53.7544C10.0684 53.5298 9.92417 53.3051 9.82782 53.08C9.73131 52.8547 9.81129 52.67 10.0686 52.525C10.3259 52.3801 10.791 52.3097 11.4658 52.3097L12.4289 52.4536C13.0713 52.5824 13.8659 52.9669 14.8137 53.6097C15.761 54.2519 16.5397 55.0868 17.1501 56.1141C17.8891 57.4312 18.7796 58.4349 19.8239 59.1255C20.8674 59.8162 21.9194 60.1609 22.9791 60.1609C24.0388 60.1609 24.954 60.0806 25.7252 59.9208C26.4955 59.7602 27.2182 59.5187 27.8929 59.1978C28.182 57.045 28.969 55.3912 30.2533 54.2352C28.4228 54.0428 26.7771 53.7531 25.3153 53.3679C23.8544 52.9821 22.3447 52.3561 20.7872 51.4881C19.2289 50.6213 17.9362 49.5449 16.9088 48.2608C15.8811 46.9761 15.0378 45.2893 14.3799 43.2022C13.7216 41.1143 13.3924 38.7057 13.3924 35.9758C13.3924 32.0889 14.6613 28.7813 17.1986 26.0512C16.0101 23.1289 16.1223 19.8531 17.5356 16.2238C18.4671 15.9345 19.8483 16.1516 21.6788 16.874C23.5096 17.5967 24.8501 18.2158 25.7015 18.7291C26.553 19.2422 27.2352 19.6771 27.7492 20.0297C30.7367 19.195 33.8197 18.7775 36.9991 18.7775C40.1784 18.7775 43.2621 19.195 46.2498 20.0297L48.0805 18.874C49.3323 18.1029 50.8106 17.3962 52.5119 16.7538C54.2141 16.1118 55.5157 15.935 56.4155 16.2243C57.8602 19.8537 57.9889 23.1295 56.8 26.0517C59.3372 28.7818 60.6066 32.0903 60.6066 35.9763C60.6066 38.7062 60.2762 41.1224 59.6189 43.2263C58.9609 45.3307 58.1103 47.0157 57.0668 48.285C56.0221 49.554 54.7211 50.622 53.1637 51.4886C51.6059 52.3559 50.0957 52.982 48.6348 53.3677C47.1731 53.7534 45.5274 54.0433 43.697 54.236C45.3665 55.6808 46.2014 57.9612 46.2014 61.0765V71.2408C46.2014 71.8182 46.4022 72.3003 46.8041 72.6855C47.2055 73.0701 47.8395 73.1833 48.7068 73.0221C56.1588 70.5496 62.2371 66.0934 66.942 59.6537C71.6464 53.2145 73.9995 45.9646 73.9995 37.9023C73.9978 31.1914 72.3428 25.0016 69.0362 19.3328Z" fill="white"/>
</svg>
