<svg width="126" height="126" viewBox="0 0 126 126" fill="none" xmlns="http://www.w3.org/2000/svg">
<path fill-rule="evenodd" clip-rule="evenodd" d="M25.1593 0.675049C18.5153 0.675049 12.1468 3.31407 7.45035 8.0122C2.7476 12.7097 0.111328 19.0812 0.111328 25.725V100.875C0.111328 107.519 2.7476 113.89 7.45035 118.588C12.1468 123.286 18.5153 125.925 25.1593 125.925H100.303C106.947 125.925 113.315 123.286 118.012 118.588C122.715 113.89 125.351 107.519 125.351 100.875V25.725C125.351 19.0812 122.715 12.7097 118.012 8.0122C113.315 3.31407 106.947 0.675049 100.303 0.675049H25.1593ZM12.6353 25.725C12.6353 22.4034 13.9566 19.2177 16.3048 16.8686C18.653 14.5196 21.8404 13.2 25.1593 13.2H100.303C103.622 13.2 106.809 14.5196 109.157 16.8686C111.506 19.2177 112.827 22.4034 112.827 25.725V100.875C112.827 104.197 111.506 107.382 109.157 109.731C106.809 112.081 103.622 113.4 100.303 113.4H25.1593C21.8404 113.4 18.653 112.081 16.3048 109.731C13.9566 107.382 12.6353 104.197 12.6353 100.875V25.725ZM43.9452 57.0376C43.9452 55.3767 43.2877 53.7836 42.1104 52.6093C40.9394 51.4351 39.3426 50.7751 37.6832 50.7751C36.0238 50.7751 34.427 51.4351 33.256 52.6093C32.0787 53.7836 31.4212 55.3767 31.4212 57.0376V94.6126C31.4212 96.2734 32.0787 97.8665 33.256 99.0408C34.427 100.215 36.0238 100.875 37.6832 100.875C39.3426 100.875 40.9394 100.215 42.1104 99.0408C43.2877 97.8665 43.9452 96.2734 43.9452 94.6126V57.0376ZM47.0762 35.1188C47.0762 37.61 46.0868 39.9998 44.3272 41.7614C42.5613 43.5231 40.1755 44.5126 37.6832 44.5126C35.1909 44.5126 32.8051 43.5231 31.0392 41.7614C29.2796 39.9998 28.2902 37.61 28.2902 35.1188C28.2902 32.6276 29.2796 30.2378 31.0392 28.4762C32.8051 26.7145 35.1909 25.725 37.6832 25.725C40.1755 25.725 42.5613 26.7145 44.3272 28.4762C46.0868 30.2378 47.0762 32.6276 47.0762 35.1188ZM62.7311 50.7751C64.8602 50.7751 66.7389 51.8397 67.866 53.4554C71.0909 51.6963 74.7103 50.7744 78.3861 50.7751C91.912 50.7751 100.303 62.8366 100.303 73.1384V94.6126C100.303 96.2734 99.6455 97.8665 98.4683 99.0408C97.2973 100.215 95.7005 100.875 94.041 100.875C92.3816 100.875 90.7848 100.215 89.6138 99.0408C88.4366 97.8665 87.7791 96.2734 87.7791 94.6126V73.1322C87.7791 68.3226 83.6462 63.2938 78.3861 63.2938C75.1048 63.2938 71.4791 65.0786 68.9931 69.3246V94.6126C68.9931 96.2734 68.3356 97.8665 67.1584 99.0408C65.9874 100.215 64.3906 100.875 62.7311 100.875C61.0717 100.875 59.4749 100.215 58.3039 99.0408C57.1267 97.8665 56.4692 96.2734 56.4692 94.6126V57.0376C56.4692 55.3767 57.1267 53.7836 58.3039 52.6093C59.4749 51.4351 61.0717 50.7751 62.7311 50.7751Z" fill="white"/>
</svg>
