<svg viewBox="0 0 5830 5144" fill="none" xmlns="http://www.w3.org/2000/svg">
<path d="M4407.9 3147.07L3956.17 4790.51C3956.17 4790.51 3600.14 4874.28 3607.05 4896.48C3613.97 4918.68 4169.15 4994.08 4169.15 4994.08L4732.09 3290.96" fill="white"/>
<path d="M4169.15 5004.76H4167.89C3606.84 4928.95 3599.72 4907.79 3597 4900.05C3596.47 4898.27 3596.31 4896.41 3596.53 4894.57C3596.75 4892.74 3597.33 4890.97 3598.26 4889.36C3612.92 4862.97 3842.66 4806.64 3947.58 4782.13L4397.84 3144.77C4398.58 3142.11 4400.33 3139.85 4402.72 3138.48C4405.12 3137.11 4407.95 3136.73 4410.62 3137.44C4411.96 3137.8 4413.21 3138.43 4414.31 3139.28C4415.4 3140.13 4416.32 3141.19 4417 3142.4C4417.68 3143.61 4418.12 3144.94 4418.28 3146.32C4418.44 3147.69 4418.33 3149.09 4417.95 3150.43L3966.22 4793.65C3965.73 4795.49 3964.76 4797.17 3963.39 4798.5C3962.03 4799.83 3960.32 4800.76 3958.47 4801.19C3817.11 4834.07 3665.27 4875.33 3625.06 4894.6C3685.59 4914.08 3974.18 4957.43 4162.03 4982.98L4722.03 3288.02C4722.94 3285.42 4724.82 3283.27 4727.28 3282.02C4729.74 3280.77 4732.59 3280.52 4735.23 3281.32C4736.56 3281.75 4737.79 3282.43 4738.85 3283.34C4739.91 3284.25 4740.78 3285.36 4741.4 3286.61C4742.02 3287.86 4742.39 3289.22 4742.48 3290.62C4742.57 3292.01 4742.39 3293.41 4741.93 3294.73L4179.2 4997.85C4178.46 4999.91 4177.09 5001.68 4175.29 5002.92C4173.48 5004.16 4171.34 5004.81 4169.15 5004.76V5004.76Z" fill="#231F20"/>
<path d="M5372.7 3078.38L5490.4 4994.5C5490.4 4994.5 4933.12 5115.35 4931.03 5100.9C4928.93 5086.44 5231.34 4871.56 5231.34 4871.56L5003.7 3102.05" fill="white"/>
<path d="M4934.38 5111.16C4927.26 5111.16 4925.8 5111.16 4924.75 5109.48C4922.35 5107.61 4920.71 5104.93 4920.14 5101.94C4918.89 5094.19 4917 5081 5219.41 4866.12L4992.81 3102.68C4992.45 3099.9 4993.21 3097.09 4994.92 3094.87C4996.63 3092.65 4999.15 3091.2 5001.92 3090.84C5004.7 3090.48 5007.51 3091.24 5009.73 3092.95C5011.94 3094.66 5013.39 3097.18 5013.75 3099.95L5241.4 4869.47C5241.62 4871.38 5241.33 4873.32 5240.56 4875.09C5239.79 4876.86 5238.56 4878.39 5237 4879.52C5144.02 4945.49 5001.61 5049.58 4954.91 5088.96C5033.44 5078.69 5301.71 5023.4 5478.47 4984.24L5362.24 3079.64C5362.15 3078.26 5362.34 3076.88 5362.79 3075.58C5363.24 3074.28 5363.94 3073.08 5364.86 3072.04C5365.77 3071.01 5366.88 3070.17 5368.12 3069.57C5369.36 3068.97 5370.71 3068.62 5372.08 3068.54C5374.85 3068.42 5377.55 3069.38 5379.62 3071.22C5381.69 3073.05 5382.97 3075.62 5383.18 3078.38L5500.25 4994.5C5500.45 4997 5499.74 4999.49 5498.23 5001.5C5496.73 5003.5 5494.54 5004.89 5492.08 5005.39C5061.71 5097.96 4960.35 5111.16 4934.38 5111.16Z" fill="#231F20"/>
<path d="M4470.95 1480.19C4442.47 1489.19 4413.77 1497.78 4384.87 1505.32C4155.69 1568.45 3918.69 1598.63 3681 1594.96C3601.63 1592.86 3495.66 1594.96 3422.99 1561.03C3366.44 1534.22 3313.25 1487.31 3261.1 1452.75C3247.7 1443.96 3226.13 1436.63 3219.22 1450.66C3213.35 1461.34 3222.15 1473.91 3230.52 1482.49C3260.71 1513.28 3293.58 1541.32 3328.74 1566.27C3260.94 1554.59 3192.31 1548.43 3123.51 1547.84C3120.45 1547.48 3117.36 1548.14 3114.71 1549.72C3106.96 1555.58 3117.02 1566.89 3126.02 1570.66C3146.91 1579.4 3168.49 1586.41 3190.52 1591.61C3170.13 1585.32 3149.02 1581.66 3127.7 1580.72C3118.06 1580.72 3106.75 1580.72 3102.36 1590.14C3096.7 1602.5 3111.57 1614.02 3124.35 1619.04C3144.88 1627.2 3165.86 1634.19 3187.17 1639.99C3162.41 1639.56 3137.72 1642.73 3113.87 1649.41C3109.7 1650.12 3105.87 1652.18 3102.98 1655.28C3101.04 1658.48 3100.23 1662.24 3100.68 1665.96C3103.04 1675.84 3108.28 1684.79 3115.74 1691.69C3123.2 1698.59 3132.53 1703.12 3142.57 1704.7C3162.78 1707.28 3182.84 1710.91 3202.67 1715.59C3184.24 1716.85 3166.02 1710.15 3147.8 1711.4C3129.58 1712.66 3109.06 1727.53 3113.04 1745.54C3117.02 1763.55 3133.98 1766.49 3150.73 1771.09C3458.81 1840.28 3774.91 1866.92 4090.21 1850.26C4247.8 1842.11 4404.66 1823.43 4559.74 1794.34C4699.85 1767.95 4843.31 1745.33 4938.18 1628.26C4945.65 1619.5 4952.64 1610.34 4959.12 1600.82C4982.22 1570.55 4992.52 1532.43 4987.81 1494.64C4964.56 1381.34 4813.15 1391.39 4726.87 1407.93C4640.26 1427.13 4554.81 1451.26 4470.95 1480.19V1480.19Z" fill="white"/>
<path d="M3906.32 1864.91C3651.01 1865.33 3396.44 1837.23 3147.37 1781.14C3129.98 1777.16 3105.48 1769.41 3101.71 1747.42C3100.74 1742.75 3100.82 1737.92 3101.95 1733.29C3103.07 1728.65 3105.21 1724.32 3108.2 1720.61C3111.86 1715.68 3116.5 1711.54 3121.82 1708.47C3113.13 1704.96 3105.52 1699.26 3099.71 1691.91C3093.91 1684.57 3090.12 1675.83 3088.73 1666.58C3087.83 1660.26 3089.32 1653.84 3092.92 1648.57C3097.2 1643.55 3103.01 1640.09 3109.46 1638.72C3117 1636.63 3124.75 1634.95 3132.5 1633.49L3119.09 1628.25C3107.07 1623.99 3097.07 1615.4 3091.03 1604.17C3089.74 1601.19 3089.07 1597.98 3089.07 1594.74C3089.07 1591.5 3089.74 1588.29 3091.03 1585.32C3092.66 1581.9 3095.02 1578.89 3097.96 1576.5C3100.89 1574.11 3104.32 1572.4 3107.99 1571.49C3103.99 1567.7 3101.34 1562.7 3100.45 1557.25C3100.02 1554.24 3100.42 1551.17 3101.6 1548.36C3102.78 1545.56 3104.7 1543.13 3107.16 1541.34C3111.63 1538.43 3116.91 1537.04 3122.23 1537.36C3177.73 1537.85 3233.13 1541.9 3288.1 1549.5C3264.79 1530.73 3242.62 1510.59 3221.71 1489.19C3202.03 1468.24 3203.7 1454 3208.73 1445C3210.36 1441.89 3212.65 1439.18 3215.44 1437.05C3218.22 1434.92 3221.43 1433.41 3224.85 1432.64C3239.66 1430.76 3254.64 1434.58 3266.74 1443.32C3284.75 1455.26 3302.97 1468.66 3320.56 1481.86C3354.07 1508.09 3389.89 1531.22 3427.58 1550.97C3489.36 1580.08 3579.62 1581.76 3651.87 1583.22H3681.19C3917.9 1587.08 4153.94 1557.04 4382.14 1494C4407.27 1487.3 4433.65 1479.55 4467.79 1469.08L4516.8 1453.58C4584.82 1430.32 4654.2 1411.22 4724.55 1396.41C4798.05 1382.17 4971.67 1363.32 4996.8 1491.28C5003.92 1525.63 4993.24 1564.16 4965.18 1605.63C4958.67 1615.33 4951.68 1624.7 4944.23 1633.7C4850.83 1749.1 4711.77 1775.07 4577.11 1801.24L4559.73 1804.6C4404.16 1833.83 4246.81 1852.58 4088.73 1860.72C4028.14 1863.52 3967.33 1864.91 3906.32 1864.91ZM3151.34 1721.45H3147.37C3143.02 1721.76 3138.78 1722.95 3134.89 1724.92C3131.01 1726.9 3127.56 1729.64 3124.75 1732.97C3123.58 1734.29 3122.74 1735.87 3122.3 1737.59C3121.86 1739.3 3121.84 1741.09 3122.23 1742.81C3123.91 1750.56 3133.54 1756.43 3151.97 1760.61C3459.15 1829.62 3774.35 1856.12 4088.73 1839.36C4245.82 1831.27 4402.19 1812.66 4556.8 1783.65L4574.39 1780.3C4705.28 1755.8 4840.57 1730.46 4929.15 1621.13C4936.07 1612.75 4942.56 1603.75 4948.63 1594.74C4959.69 1581.01 4967.93 1565.22 4972.85 1548.29C4977.78 1531.36 4979.3 1513.62 4977.32 1496.1C4954.91 1386.56 4795.75 1404.57 4728.52 1417.56C4659.03 1432.22 4590.49 1451.1 4523.29 1474.11L4474.07 1489.61C4439.73 1500.29 4412.92 1508.04 4387.58 1514.74C4157.5 1578.43 3919.47 1608.76 3680.77 1604.79H3651.45C3577.11 1603.33 3483.91 1601.65 3418.57 1570.45C3379.58 1550.32 3342.62 1526.47 3308.2 1499.24C3289.98 1485.84 3272.6 1473.06 3255.22 1461.54C3248.21 1456 3239.44 1453.17 3230.51 1453.58C3229.9 1453.71 3229.32 1453.95 3228.82 1454.32C3228.31 1454.68 3227.89 1455.14 3227.58 1455.68C3225.69 1459.45 3229.46 1466.99 3237.42 1475.36C3267.16 1506.07 3299.53 1534.1 3334.17 1559.14C3336.09 1560.51 3337.48 1562.49 3338.13 1564.76C3338.78 1567.03 3338.65 1569.45 3337.75 1571.63C3336.86 1573.81 3335.25 1575.62 3333.19 1576.78C3331.14 1577.93 3328.75 1578.36 3326.42 1577.99C3259.91 1566.69 3192.62 1560.6 3125.17 1559.77C3126.44 1560.8 3127.85 1561.65 3129.36 1562.28C3143.06 1567.93 3157.04 1572.89 3171.24 1577.15C3178.36 1578.82 3185.27 1580.71 3192.18 1582.8C3194.79 1583.54 3196.99 1585.27 3198.33 1587.62C3199.66 1589.98 3200.01 1592.76 3199.3 1595.37C3198.57 1597.99 3196.85 1600.23 3194.52 1601.63C3192.18 1603.04 3189.4 1603.49 3186.74 1602.91C3179.83 1601.23 3172.92 1599.56 3165.8 1597.46C3152 1594.57 3137.99 1592.75 3123.91 1592.02C3115.53 1592.02 3109.67 1592.02 3108.41 1595.58C3108.2 1596.33 3108.2 1597.13 3108.41 1597.88C3112.37 1603.67 3118.1 1608.01 3124.75 1610.24C3144.77 1618.44 3165.26 1625.43 3186.11 1631.18C3188.56 1631.91 3190.67 1633.5 3192.06 1635.65C3193.44 1637.8 3194.01 1640.38 3193.65 1642.91C3193.25 1645.39 3191.97 1647.64 3190.05 1649.26C3188.13 1650.87 3185.69 1651.74 3183.18 1651.71C3159.48 1651.23 3135.83 1654.26 3113.02 1660.71C3111.09 1661.05 3109.24 1661.76 3107.58 1662.81V1662.81C3107.31 1663.91 3107.31 1665.06 3107.58 1666.16C3109.04 1681.24 3126 1691.92 3141.92 1695.69C3149.94 1697.47 3158.05 1698.8 3166.21 1699.67C3178.81 1700.71 3191.24 1703.17 3203.28 1707C3205.54 1707.83 3207.45 1709.4 3208.7 1711.45C3209.96 1713.5 3210.48 1715.92 3210.19 1718.31C3209.78 1720.69 3208.59 1722.86 3206.81 1724.5C3205.03 1726.13 3202.76 1727.12 3200.35 1727.31C3190.39 1727.58 3180.43 1726.88 3170.61 1725.22C3164.26 1723.76 3157.83 1722.71 3151.34 1722.08V1721.45Z" fill="#231F20"/>
<path d="M3838.28 4783.61L3913.67 4898.38L4206.86 4933.14L4178.17 5045.61C4178.17 5045.61 3531.47 4964.77 3516.6 4905.5C3501.73 4846.23 3838.28 4783.61 3838.28 4783.61Z" fill="#231F20"/>
<path d="M4629.25 1309.49C4629.25 1309.49 4426.1 1357.87 4364.95 1483.53C4303.8 1609.2 4376.89 2283.16 4376.89 2283.16L5277.42 2321.69C5277.42 2321.69 5369.77 1825.33 5324.54 1612.55C5279.3 1399.76 5099.82 1116.19 4629.25 1309.49Z" fill="#EA4335"/>
<path d="M4655.63 1194.73L4597.83 1383.22C4597.83 1383.22 4599.09 1494.64 4722.44 1481.86C4758.88 1477.69 4793.93 1465.45 4825.05 1446.03C4856.17 1426.61 4882.57 1400.5 4902.33 1369.6L4946.31 1032.41C4927.12 1016.59 4914.5 994.197 4910.92 969.583C4907.67 951.015 4907.67 932.024 4910.92 913.455C4912.18 906.334 4920.14 864.656 4928.3 863.19C4904.9 866.932 4880.93 864.943 4858.46 857.392C4836 849.842 4815.69 836.955 4799.3 819.837C4782.15 799.654 4768.04 777.076 4757.41 752.818C4747.66 738.082 4743.84 720.198 4746.73 702.763C4708.06 727.337 4670.57 753.726 4634.27 781.93C4614.19 796.545 4595.97 813.567 4580.03 832.613C4553.85 866.541 4546.73 913.245 4540.66 954.504C4532.64 1003.5 4529.2 1053.15 4530.4 1102.78C4533.12 1197.24 4655.63 1194.73 4655.63 1194.73Z" fill="white"/>
<path d="M4703.19 1493.59C4674.72 1494.94 4646.8 1485.43 4625.08 1466.99C4602.64 1445.26 4589.5 1415.68 4588.43 1384.47C4588.22 1383.5 4588.22 1382.51 4588.43 1381.54L4642.46 1204.78C4594.92 1201.63 4522.46 1177.97 4519.74 1103.2C4518.59 1053 4522.09 1002.8 4530.21 953.244C4536.07 913.033 4543.4 862.978 4572.09 827.583C4588.46 807.852 4607.25 790.261 4628.01 775.224C4664.45 746.951 4702.56 720.143 4741.31 695.43C4742.92 694.358 4744.82 693.786 4746.75 693.786C4748.69 693.786 4750.58 694.358 4752.2 695.43C4753.76 696.625 4754.91 698.269 4755.51 700.141C4756.11 702.012 4756.12 704.023 4755.55 705.901C4753.55 721.026 4757.12 736.361 4765.6 749.045C4776.29 772.566 4790.41 794.374 4807.49 813.76C4822.85 829.667 4841.8 841.672 4862.75 848.776C4883.69 855.88 4906.03 857.876 4927.91 854.6V854.6C4929.16 854.391 4930.44 854.431 4931.67 854.718C4932.91 855.005 4934.08 855.533 4935.11 856.273C4936.14 857.012 4937.02 857.948 4937.68 859.027C4938.35 860.106 4938.8 861.306 4939.01 862.559C4939.3 864.626 4938.94 866.734 4937.96 868.579C4936.98 870.424 4935.44 871.909 4933.56 872.821C4927.7 886.613 4923.68 901.12 4921.62 915.965C4918.58 933.426 4918.58 951.281 4921.62 968.742C4924.73 991.126 4935.9 1011.61 4953.04 1026.34C4954.47 1027.33 4955.59 1028.69 4956.3 1030.28C4957 1031.87 4957.25 1033.62 4957.02 1035.34L4913.25 1372.53C4913.05 1373.79 4912.62 1374.99 4911.99 1376.09C4891.56 1408.43 4864.09 1435.73 4831.64 1455.96C4799.18 1476.2 4762.58 1488.85 4724.55 1492.96C4715.55 1493.17 4709.68 1493.59 4703.19 1493.59ZM4607.49 1385.52C4608.95 1410.97 4619.77 1434.99 4637.85 1452.96C4649.52 1462.2 4663.03 1468.85 4677.48 1472.46C4691.92 1476.08 4706.97 1476.57 4721.62 1473.9C4756.15 1470.02 4789.41 1458.63 4819.07 1440.55C4848.74 1422.46 4874.09 1398.1 4893.35 1369.18L4935.24 1039.11C4916.48 1021.75 4904.27 998.449 4900.68 973.14C4897.23 953.464 4897.23 933.337 4900.68 913.661C4902.65 901.026 4905.59 888.563 4909.48 876.382C4887.5 877.047 4865.62 873.084 4845.28 864.75C4824.93 856.415 4806.56 843.895 4791.36 828.002C4773.34 807.167 4758.45 783.813 4747.17 758.679C4740.91 747.404 4736.59 735.155 4734.4 722.447C4701.59 743.949 4669.61 766.777 4638.48 790.932C4619.44 804.706 4602.14 820.741 4586.96 838.683C4562.04 870.936 4555.34 916.174 4549.47 956.176C4541.64 1004.63 4538.2 1053.7 4539.21 1102.78C4542.14 1186.55 4651.26 1186.55 4655.44 1186.55C4656.94 1186.52 4658.43 1186.85 4659.77 1187.5C4661.12 1188.16 4662.29 1189.13 4663.19 1190.32C4664.11 1191.53 4664.75 1192.93 4665.04 1194.42C4665.33 1195.91 4665.27 1197.45 4664.87 1198.91L4607.49 1385.52Z" fill="#231F20"/>
<path d="M4879.96 1006.24C4885.43 992.371 4895.29 980.675 4908.02 972.936C4920.09 966.156 4933.29 961.614 4946.98 959.532C4954.34 957.755 4962.02 957.755 4969.39 959.532C4974.51 960.995 4979.29 963.49 4983.42 966.863C4993.69 973.994 5001.11 984.529 5004.36 996.603C5005.82 1006.65 5004.96 1016.89 5001.85 1026.55C4999.06 1037.23 4994.91 1047.51 4989.49 1057.13C4977.98 1076.12 4959.41 1089.76 4937.85 1095.06C4916.3 1100.36 4893.51 1096.89 4874.52 1085.4" fill="white"/>
<path d="M4918.9 1103.83C4901.99 1103.88 4885.39 1099.24 4870.95 1090.42C4869.07 1089.25 4867.71 1087.4 4867.16 1085.25C4866.62 1083.11 4866.92 1080.83 4868.01 1078.91C4868.57 1077.95 4869.32 1077.12 4870.21 1076.46C4871.1 1075.8 4872.11 1075.33 4873.19 1075.07C4874.27 1074.82 4875.38 1074.79 4876.47 1074.98C4877.56 1075.17 4878.6 1075.58 4879.53 1076.18C4887.99 1081.35 4897.39 1084.79 4907.18 1086.3C4916.97 1087.81 4926.97 1087.36 4936.59 1084.99C4946.21 1082.61 4955.26 1078.35 4963.23 1072.46C4971.19 1066.56 4977.91 1059.14 4982.99 1050.63C4987.96 1041.66 4991.76 1032.09 4994.3 1022.15C4997.29 1013.84 4998.16 1004.91 4996.81 996.179C4993.77 986.029 4987.24 977.278 4978.38 971.466C4975.13 968.704 4971.36 966.637 4967.28 965.392C4961.05 964.491 4954.7 964.919 4948.64 966.649C4935.87 968.606 4923.53 972.788 4912.2 979.005C4901.13 985.834 4892.54 996.039 4887.7 1008.12C4887.33 1009.14 4886.75 1010.09 4886.01 1010.89C4885.27 1011.69 4884.37 1012.33 4883.38 1012.78C4882.38 1013.23 4881.31 1013.48 4880.21 1013.5C4879.12 1013.53 4878.03 1013.34 4877.02 1012.93C4875.98 1012.54 4875.04 1011.94 4874.23 1011.18C4873.43 1010.42 4872.79 1009.51 4872.34 1008.49C4871.89 1007.48 4871.65 1006.39 4871.62 1005.28C4871.6 1004.17 4871.8 1003.07 4872.2 1002.04C4878.33 986.287 4889.53 973.022 4904.03 964.345C4917.05 957.141 4931.23 952.251 4945.92 949.894C4954.52 947.79 4963.5 947.79 4972.1 949.894C4978.25 951.738 4984.01 954.722 4989.06 958.69C5001.18 966.872 5009.95 979.137 5013.77 993.247C5015.56 1004.61 5014.62 1016.24 5011.05 1027.18C5008.11 1038.6 5003.68 1049.59 4997.86 1059.85C4991.64 1070.2 4983.45 1079.23 4973.75 1086.41C4964.05 1093.6 4953.03 1098.81 4941.31 1101.73C4933.95 1103.3 4926.43 1104.01 4918.9 1103.83V1103.83Z" fill="#231F20"/>
<path d="M4626.76 1282.9C4648.49 1288.37 4671.14 1289.1 4693.18 1285.06C4715.22 1281.01 4736.14 1272.28 4754.51 1259.44C4771.1 1248.49 4785.14 1234.07 4795.66 1217.2C4806.17 1200.32 4812.92 1181.37 4815.45 1161.64C4815.45 1161.64 4722.05 1220.91 4645.82 1194.52L4626.76 1282.9Z" fill="#231F20"/>
<path d="M4665.69 1296.93C4651.56 1297.08 4637.47 1295.32 4623.81 1291.7C4621.58 1291.01 4619.69 1289.51 4618.52 1287.49C4617.36 1285.47 4617 1283.08 4617.53 1280.8L4636.58 1192.63C4636.9 1191.36 4637.47 1190.17 4638.26 1189.12C4639.05 1188.08 4640.05 1187.21 4641.19 1186.56C4642.38 1186.04 4643.66 1185.77 4644.96 1185.77C4646.26 1185.77 4647.54 1186.04 4648.73 1186.56C4719.73 1211.06 4809.36 1155.14 4810.2 1154.52C4811.61 1153.65 4813.25 1153.18 4814.91 1153.18C4816.57 1153.18 4818.2 1153.65 4819.62 1154.52C4821.1 1155.29 4822.34 1156.47 4823.19 1157.91C4824.04 1159.36 4824.47 1161.01 4824.44 1162.68C4821.89 1183.79 4814.78 1204.08 4803.61 1222.16C4792.43 1240.25 4777.46 1255.68 4759.73 1267.4C4732.36 1287.08 4699.39 1297.43 4665.69 1296.93V1296.93ZM4637.63 1275.99C4656.82 1279.62 4676.55 1279.38 4695.64 1275.28C4714.74 1271.18 4732.82 1263.3 4748.84 1252.11C4774.42 1234.61 4793.37 1209.01 4802.66 1179.44C4772.92 1194.94 4710.3 1221.33 4652.71 1206.46L4637.63 1275.99Z" fill="#231F20"/>
<path d="M4730.84 871.775C4730.84 871.775 4652.73 954.083 4664.87 972.722C4677.02 991.362 4720.16 987.802 4720.16 987.802" fill="white"/>
<path d="M4711.16 997.439C4696.08 997.439 4668.02 994.926 4657.13 977.752C4643.73 956.808 4686.24 905.287 4724.15 865.285C4725.84 863.508 4728.17 862.476 4730.62 862.417C4733.08 862.358 4735.46 863.277 4737.23 864.971C4739.01 866.665 4740.04 868.996 4740.1 871.451C4740.16 873.906 4739.24 876.283 4737.55 878.061C4701.11 916.597 4670.74 958.693 4672.84 968.327C4679.33 978.171 4706.97 979.637 4719.33 978.59C4720.54 978.493 4721.76 978.636 4722.91 979.011C4724.07 979.385 4725.14 979.983 4726.06 980.77C4726.98 981.558 4727.74 982.52 4728.29 983.601C4728.85 984.682 4729.18 985.862 4729.28 987.072C4729.37 988.282 4729.23 989.499 4728.86 990.654C4728.48 991.809 4727.88 992.879 4727.1 993.803C4726.31 994.726 4725.35 995.486 4724.26 996.038C4723.18 996.59 4722 996.924 4720.79 997.02C4717.6 997.37 4714.38 997.51 4711.16 997.439Z" fill="#231F20"/>
<path d="M4847.95 899.946C4852.49 888.679 4849.64 876.92 4841.59 873.681C4833.54 870.443 4823.34 876.951 4818.81 888.218C4814.28 899.485 4817.13 911.245 4825.17 914.483C4833.22 917.722 4843.42 911.213 4847.95 899.946Z" fill="#231F20"/>
<path d="M4654.04 889.186C4658.57 877.919 4655.72 866.16 4647.67 862.921C4639.63 859.683 4629.43 866.191 4624.89 877.458C4620.36 888.725 4623.21 900.485 4631.25 903.723C4639.3 906.962 4649.5 900.453 4654.04 889.186Z" fill="#231F20"/>
<path d="M4612.93 1036.6L4767.48 1030.53C4767.48 1030.53 4763.29 1135.25 4673.24 1143.62C4583.19 1152 4612.93 1036.6 4612.93 1036.6Z" fill="#231F20"/>
<path d="M5187.39 2313.11C5187.39 2313.11 5404.77 2555.21 5465.5 2822.03C5593.04 3383.32 5596.81 4242 5596.81 4242L3945.71 4124.09L4338.59 2268.5L5187.39 2313.11Z" fill="#231F20"/>
<path d="M5490.43 2186.4C5457.45 2186.5 5424.69 2181.12 5393.47 2170.49C5392.09 2170.02 5390.82 2169.28 5389.73 2168.33C5388.64 2167.37 5387.75 2166.2 5387.11 2164.9C5386.47 2163.6 5386.09 2162.18 5385.99 2160.73C5385.9 2159.28 5386.09 2157.83 5386.56 2156.45C5387.03 2155.08 5387.76 2153.81 5388.72 2152.72C5389.68 2151.63 5390.84 2150.73 5392.14 2150.09C5393.44 2149.45 5394.86 2149.07 5396.31 2148.98C5397.76 2148.88 5399.21 2149.08 5400.59 2149.54C5459.78 2167.97 5523.13 2168.28 5582.49 2150.44C5641.86 2132.6 5694.55 2097.43 5733.78 2049.43C5771.44 1999.85 5795.6 1941.35 5803.89 1879.65C5812.19 1817.94 5804.34 1755.14 5781.11 1697.37C5733.78 1580.09 5632.21 1494.64 5533.99 1411.91C5516.82 1397.46 5499.44 1382.8 5482.68 1368.14C5359.75 1261.96 5294.2 1157.45 5260.9 1018.8C5230.54 888.953 5194.93 754.077 5124.36 655.643C5065.72 573.963 4922.26 479.508 4816.29 523.071C4783.4 538.334 4753.03 558.533 4726.24 582.969C4725.03 583.903 4723.65 584.587 4722.18 584.983C4720.7 585.378 4719.17 585.477 4717.65 585.273C4660.24 575.397 4601.59 574.973 4544.04 584.016C4487.33 593.218 4436.29 623.796 4401.42 669.466C4371.73 717.465 4358.84 773.974 4364.77 830.102C4365.82 846.438 4371.48 866.125 4384.04 867.591C4386.86 867.958 4389.42 869.412 4391.18 871.642C4392.94 873.873 4393.76 876.703 4393.46 879.529C4393.31 880.956 4392.87 882.337 4392.17 883.59C4391.47 884.842 4390.53 885.942 4389.39 886.821C4388.26 887.701 4386.96 888.343 4385.57 888.709C4384.19 889.076 4382.74 889.159 4381.32 888.954C4360.38 886.44 4345.51 864.869 4343.2 831.359C4336.63 770.351 4350.95 708.918 4383.83 657.109C4421.74 607.03 4477.45 573.439 4539.43 563.282C4597.75 553.724 4657.24 553.724 4715.56 563.282C4743.04 538.68 4774.12 518.411 4807.71 503.174C4925.4 454.795 5077.24 553.439 5141.53 643.077C5214.41 744.653 5250.64 881.833 5281.64 1013.78C5312.63 1145.72 5377.13 1248.76 5496.3 1351.8C5513.05 1366.47 5530.22 1380.92 5547.61 1395.37C5647.71 1479.14 5751.38 1567.1 5800.8 1688.58C5825.93 1749.85 5834.48 1816.66 5825.59 1882.29C5816.69 1947.92 5790.66 2010.05 5750.12 2062.42C5718.56 2100.84 5678.94 2131.86 5634.06 2153.29C5589.19 2174.71 5540.16 2186.02 5490.43 2186.4V2186.4Z" fill="#231F20"/>
<path d="M5541.73 5020.47L5524.77 4904.86L5184.45 4998.69L5118.27 4911.36C5118.27 4911.36 4869.06 5092.1 4904.03 5132.1C4939.01 5172.1 5305.71 5099.01 5541.73 5020.47Z" fill="#231F20"/>
<path d="M3919.75 3161.11C3918.06 3161.14 3916.4 3160.75 3914.9 3159.98C3913.41 3159.22 3912.12 3158.09 3911.16 3156.71L3601.42 2710.2C3599.87 2707.88 3599.29 2705.05 3599.8 2702.31C3600.31 2699.57 3601.87 2697.14 3604.14 2695.54C3605.26 2694.75 3606.53 2694.19 3607.87 2693.9C3609.21 2693.61 3610.6 2693.59 3611.94 2693.85C3613.29 2694.1 3614.57 2694.62 3615.71 2695.38C3616.86 2696.14 3617.84 2697.12 3618.59 2698.26L3928.75 3144.77C3929.54 3145.9 3930.1 3147.16 3930.39 3148.5C3930.68 3149.84 3930.69 3151.23 3930.44 3152.57C3930.19 3153.92 3929.67 3155.2 3928.91 3156.35C3928.15 3157.49 3927.17 3158.47 3926.03 3159.23C3924.21 3160.55 3922 3161.22 3919.75 3161.11V3161.11Z" fill="#D1D3D4"/>
<path d="M3928.92 601.819C3926.95 601.903 3924.98 601.413 3923.28 600.408C3921.57 599.403 3920.19 597.926 3919.31 596.155C3918.42 594.384 3918.07 592.394 3918.29 590.426C3918.51 588.458 3919.29 586.596 3920.55 585.064L4255.63 150.905C4256.43 149.722 4257.47 148.716 4258.67 147.948C4259.88 147.18 4261.23 146.668 4262.64 146.442C4264.05 146.216 4265.49 146.281 4266.88 146.634C4268.26 146.987 4269.56 147.62 4270.69 148.494C4271.82 149.367 4272.77 150.463 4273.46 151.714C4274.15 152.965 4274.58 154.345 4274.72 155.768C4274.85 157.19 4274.7 158.627 4274.26 159.987C4273.82 161.348 4273.11 162.605 4272.17 163.681L3937.09 597.839C3936.11 599.062 3934.86 600.053 3933.45 600.741C3932.04 601.429 3930.49 601.797 3928.92 601.819V601.819Z" fill="#D1D3D4"/>
<path d="M1340.26 2555.22L1877.01 4824.87L1410.83 4936.49L897.95 3102.89L749.049 4984.25L265.277 4959.32L248.732 2331.96L1340.26 2555.22Z" fill="#231F20"/>
<path d="M1194.47 1387.19C1191.33 1399.55 2136.88 1535.89 2136.88 1535.89L2068.61 1836.85C2068.61 1836.85 1448.5 1768.57 1119.91 1715.79L1194.47 1387.19Z" fill="white"/>
<path d="M2068.84 1847.32H2067.79C2061.51 1847.32 1443.5 1778.42 1118.47 1726.27C1117.04 1726.09 1115.66 1725.61 1114.43 1724.85C1113.2 1724.09 1112.15 1723.07 1111.35 1721.87C1109.8 1719.45 1109.28 1716.51 1109.88 1713.7L1184.23 1385.1C1184.88 1382.41 1186.56 1380.09 1188.91 1378.63C1191.27 1377.18 1194.1 1376.72 1196.79 1377.35C1198.32 1377.75 1199.75 1378.46 1200.98 1379.45C1239.52 1393.27 1780.04 1474.32 2138.37 1526.05C2139.79 1526.27 2141.16 1526.77 2142.38 1527.52C2143.6 1528.28 2144.66 1529.27 2145.49 1530.45C2146.33 1531.62 2146.91 1532.95 2147.19 1534.35C2147.48 1535.76 2147.47 1537.21 2147.17 1538.62L2078.89 1839.57C2078.3 1841.79 2076.99 1843.75 2075.17 1845.14C2073.36 1846.54 2071.13 1847.31 2068.84 1847.32ZM1132.71 1707.21C1437.84 1755.59 1982.98 1816.75 2060.67 1825.33L2123.5 1544.69C1421.72 1443.32 1246.64 1411.7 1202.03 1399.97L1132.71 1707.21Z" fill="#231F20"/>
<path d="M652.689 1266.14C656.459 1254.42 1229.45 1376.73 1229.45 1376.73L1208.5 1806.7L815.831 1666.16C815.831 1666.16 627.139 1344.68 652.689 1266.14Z" fill="#EA4335"/>
<path d="M1029.67 1523.54C1021.08 1500.29 912.602 1260.28 596.37 1252.53C280.138 1244.78 149.038 1231.58 83.0695 1629.51C12.9121 2050.26 231.761 2787.06 231.761 2787.06L1437.63 2514.79C1437.63 2514.79 1113.44 1749.52 1029.67 1523.54Z" fill="#EA4335"/>
<path d="M2927.05 946.543L3371.24 966.02C3322.02 1133.57 3360.35 1271.8 3480.77 1362.27C3542.55 1407.59 3616.43 1433.44 3692.99 1436.54C3769.54 1439.64 3845.27 1419.83 3910.51 1379.65C4036.16 1300.91 4085.38 1165.4 4051.66 995.76L4407.68 1011.26L4343.18 2489.87L2862.96 2425.36C2862.96 2413.84 2862.96 2402.12 2864.64 2390.6C2870.71 2247.13 2877.42 2103.67 2882.65 1960.21C2883.65 1938.32 2880.23 1916.45 2872.6 1895.91C2869.7 1887.92 2865.08 1880.67 2859.08 1874.65C2853.07 1868.64 2845.82 1864.01 2837.84 1861.1C2829.86 1858.18 2821.33 1857.05 2812.86 1857.78C2804.4 1858.52 2796.19 1861.09 2788.83 1865.33C2738.61 1887.43 2682.44 1892.06 2629.29 1878.47C2576.13 1864.87 2529.08 1833.85 2495.63 1790.36C2461.56 1746.35 2443.28 1692.16 2443.74 1636.51C2444.19 1580.86 2463.36 1526.97 2498.15 1483.53C2531.59 1440.74 2578.76 1410.79 2631.72 1398.74C2684.67 1386.68 2740.16 1393.26 2788.83 1417.35C2858.36 1451.49 2905.9 1424.47 2910.09 1346.56C2916.58 1220.9 2921.19 1097.13 2926.84 972.513C2926.21 964.345 2926.63 957.433 2927.05 946.543Z" fill="#4285F4"/>
<path d="M4342.78 2500.35L2862.56 2435.84C2859.76 2435.63 2857.14 2434.35 2855.23 2432.28C2854.31 2431.26 2853.59 2430.07 2853.12 2428.78C2852.65 2427.49 2852.45 2426.11 2852.51 2424.74L2858.79 2285.05C2863.4 2176.77 2868.22 2068.28 2872.2 1959.8C2873.14 1939.33 2869.94 1918.88 2862.77 1899.69C2860.63 1893.46 2857.22 1887.75 2852.75 1882.92C2848.28 1878.08 2842.85 1874.24 2836.8 1871.62C2829.65 1869.11 2822.05 1868.1 2814.49 1868.64C2806.92 1869.18 2799.55 1871.26 2792.82 1874.76C2740.65 1897.61 2682.34 1902.35 2627.16 1888.23C2571.98 1874.11 2523.11 1841.95 2488.32 1796.85C2452.89 1750.95 2433.89 1694.47 2434.39 1636.48C2434.88 1578.49 2454.83 1522.35 2491.04 1477.05C2525.89 1432.73 2574.87 1401.69 2629.82 1389.12C2684.78 1376.54 2742.38 1383.18 2793.03 1407.93C2824.03 1423.01 2850.21 1425.53 2868.64 1414.64C2887.07 1403.75 2897.33 1380.29 2899.21 1345.94C2903.82 1258.61 2907.59 1169.6 2911.15 1083.73C2912.62 1046.45 2914.29 1009.17 2915.97 972.1V946.13C2916.1 943.348 2917.3 940.725 2919.32 938.8C2921.4 936.985 2924.09 936.014 2926.86 936.077L3371.05 955.555C3372.66 955.56 3374.26 955.964 3375.68 956.731C3377.11 957.498 3378.32 958.605 3379.21 959.953C3380.12 961.246 3380.73 962.728 3380.98 964.288C3381.23 965.847 3381.13 967.444 3380.68 968.958C3333.35 1131.9 3370 1265.73 3487.07 1353.9C3547.28 1398.07 3619.31 1423.27 3693.93 1426.25C3768.55 1429.24 3842.37 1409.88 3905.92 1370.65C4026.55 1294.63 4074.92 1161.22 4042.25 997.651C4041.9 996.108 4041.93 994.502 4042.33 992.971C4042.73 991.44 4043.49 990.028 4044.56 988.855C4045.53 987.587 4046.81 986.592 4048.28 985.968C4049.74 985.344 4051.35 985.112 4052.93 985.294L4408.96 1000.79C4410.34 1000.82 4411.71 1001.12 4412.97 1001.7C4414.23 1002.28 4415.36 1003.11 4416.29 1004.14C4417.22 1005.15 4417.95 1006.34 4418.42 1007.64C4418.88 1008.93 4419.08 1010.31 4419.01 1011.68L4354.51 2490.29C4354.48 2491.68 4354.17 2493.05 4353.6 2494.31C4353.02 2495.57 4352.19 2496.7 4351.16 2497.62C4350.03 2498.65 4348.71 2499.42 4347.26 2499.89C4345.82 2500.36 4344.29 2500.51 4342.78 2500.35ZM2872.62 2415.32L4332.1 2478.15L4394.93 1020.27L4064.24 1006.24C4093.77 1173.79 4041.42 1308.87 3916.18 1388.04C3849.1 1429.23 3771.28 1449.54 3692.63 1446.37C3613.98 1443.2 3538.05 1416.7 3474.5 1370.24C3352.83 1278.5 3312.41 1142.79 3357.64 975.87L2937.12 957.439V972.938C2935.65 1010.22 2933.98 1047.29 2932.51 1084.57C2928.95 1170.64 2925.18 1259.65 2920.57 1346.99C2918.27 1388.88 2904.24 1418.41 2878.69 1432.86C2853.14 1447.31 2821.1 1445.21 2783.4 1426.57C2737.08 1403.85 2684.38 1397.69 2634.08 1409.13C2583.77 1420.56 2538.9 1448.9 2506.96 1489.4C2473.79 1530.94 2455.51 1582.41 2455.05 1635.57C2454.6 1688.73 2471.99 1740.51 2504.45 1782.61C2536.29 1824.02 2581.06 1853.59 2631.64 1866.65C2682.22 1879.7 2735.7 1875.48 2783.61 1854.66C2792.88 1849.86 2803.05 1847.05 2813.47 1846.4C2823.89 1845.75 2834.34 1847.28 2844.13 1850.89C2852.88 1854.52 2860.76 1859.97 2867.26 1866.86C2873.75 1873.75 2878.72 1881.94 2881.83 1890.89C2890.02 1912.76 2893.73 1936.05 2892.72 1959.38C2888.74 2067.86 2883.92 2176.35 2879.11 2284.84L2872.62 2415.32Z" fill="#231F20"/>
<path d="M2593.02 957.019L2638.47 1320.39C2467.16 1297.35 2329.57 1360.39 2258.57 1494.01C2223.18 1561.33 2208.98 1637.79 2217.84 1713.33C2226.7 1788.87 2258.2 1859.97 2308.21 1917.28C2412.92 2033.93 2562.45 2063.88 2723.29 2001.05L2777.95 2438.56L1159.51 2639.83L974.797 1159.12L1487.05 1096.29C1503.03 1094.43 1518.42 1089.17 1532.2 1080.88C1545.98 1072.58 1557.82 1061.44 1566.95 1048.19C1576.07 1034.94 1582.25 1019.9 1585.09 1004.07C1587.92 988.236 1587.34 971.98 1583.39 956.391C1577.26 933.943 1568.84 912.186 1558.26 891.466C1532.19 845.016 1521.84 791.389 1528.72 738.575C1535.61 685.761 1559.38 636.585 1596.48 598.374C1633.58 560.164 1682.04 534.962 1734.62 526.525C1787.21 518.088 1841.12 526.867 1888.31 551.553C1936.09 576.195 1974.71 615.51 1998.49 663.724C2022.28 711.937 2029.97 766.508 2020.46 819.42C2016.9 840.364 2012.08 861.307 2008.94 882.251C1998.05 952.411 2060.04 1032.83 2145.06 1015.24C2230.09 997.649 2505.48 967.909 2593.02 957.019Z" fill="#FBBC04"/>
<path d="M1159.51 2649.88C1157.23 2649.96 1155 2649.22 1153.22 2647.79C1152.09 2646.95 1151.15 2645.88 1150.46 2644.66C1149.78 2643.43 1149.36 2642.07 1149.24 2640.66L964.322 1160.17C964.147 1158.79 964.247 1157.39 964.617 1156.06C964.986 1154.72 965.618 1153.47 966.476 1152.38C967.333 1151.29 968.399 1150.38 969.611 1149.7C970.823 1149.02 972.158 1148.6 973.537 1148.44L1009.35 1143.83L1485.79 1084.35C1500.54 1082.49 1514.72 1077.52 1527.39 1069.75C1540.07 1061.99 1550.94 1051.62 1559.3 1039.32C1567.35 1027.51 1572.75 1014.09 1575.14 999.996C1577.52 985.898 1576.83 971.452 1573.12 957.645C1567.27 935.901 1559.13 914.839 1548.83 894.815C1522.39 846.427 1512.18 790.833 1519.69 736.209C1527.21 681.584 1552.05 630.812 1590.56 591.357C1629.08 551.902 1679.23 525.847 1733.66 517.023C1788.08 508.199 1843.91 517.071 1892.91 542.336C1942.62 568.062 1982.78 609.018 2007.54 659.213C2032.3 709.407 2040.34 766.206 2030.5 821.303C2029.04 830.518 2027.15 839.524 2025.48 848.53C2023.8 857.535 2020.87 871.567 2018.99 883.296C2016.88 900.79 2018.88 918.535 2024.85 935.116C2030.81 951.697 2040.56 966.656 2053.33 978.798C2064.96 990.13 2079.21 998.397 2094.82 1002.86C2110.43 1007.32 2126.9 1007.83 2142.76 1004.35C2205.58 991.364 2373.12 972.096 2495.64 958.064L2591.76 946.755C2594.5 946.453 2597.25 947.221 2599.44 948.9C2601.62 950.578 2603.08 953.036 2603.49 955.76L2648.73 1319.13C2648.98 1320.73 2648.85 1322.36 2648.35 1323.9C2647.85 1325.44 2646.99 1326.83 2645.85 1327.98C2644.7 1329.12 2643.31 1329.98 2641.77 1330.48C2640.23 1330.98 2638.6 1331.11 2637 1330.86C2470.93 1308.66 2336.47 1369.81 2267.99 1498.41C2233.8 1563.9 2220.09 1638.17 2228.64 1711.56C2237.19 1784.95 2267.61 1854.07 2315.95 1909.95C2416.68 2022.62 2563.91 2051.73 2719.51 1989.74C2720.99 1989.11 2722.6 1988.83 2724.2 1988.94C2725.81 1989.04 2727.36 1989.52 2728.75 1990.33C2730.14 1991.15 2731.31 1992.28 2732.18 1993.63C2733.05 1994.98 2733.59 1996.52 2733.75 1998.12L2788.2 2435.84C2788.38 2437.2 2788.29 2438.59 2787.93 2439.92C2787.57 2441.25 2786.95 2442.5 2786.11 2443.59C2785.27 2444.65 2784.23 2445.53 2783.04 2446.18C2781.85 2446.82 2780.55 2447.22 2779.2 2447.36L1160.76 2649.46L1159.51 2649.88ZM986.521 1167.92L1168.72 2627.68L2766.21 2428.3L2714.49 2014.45C2554.91 2073.51 2404.54 2041.05 2300.24 1924.19C2249.12 1865.1 2216.93 1792.02 2207.86 1714.41C2198.78 1636.81 2213.24 1558.27 2249.35 1488.98C2320.35 1355.15 2457.31 1289.81 2626.32 1308.24L2584.43 968.536L2498.57 978.589C2383.18 991.783 2208.73 1011.89 2147.57 1024.66C2128.39 1028.89 2108.45 1028.29 2089.56 1022.92C2070.66 1017.54 2053.39 1007.57 2039.3 993.877C2023.99 979.578 2012.29 961.854 2005.16 942.159C1998.02 922.464 1995.66 901.359 1998.25 880.573C2000.14 868.635 2002.44 856.698 2004.96 844.76L2009.98 818.161C2019.01 767.444 2011.59 715.168 1988.79 668.972C1965.99 622.776 1929.02 585.081 1883.28 561.394C1838.2 538.147 1786.85 529.996 1736.79 538.143C1686.74 546.29 1640.62 570.304 1605.24 606.646C1569.86 642.987 1547.1 689.733 1540.3 739.994C1533.49 790.255 1543.02 841.371 1567.47 885.809C1578.5 907.153 1587.21 929.622 1593.43 952.828C1597.88 969.545 1598.68 987.02 1595.79 1004.07C1592.9 1021.13 1586.39 1037.36 1576.68 1051.68C1566.66 1066.43 1553.61 1078.87 1538.41 1088.19C1523.21 1097.51 1506.2 1103.48 1488.51 1105.72L1012.07 1165.4L986.521 1167.92Z" fill="#231F20"/>
<path d="M744.632 1414.63V1273.68C744.632 1273.68 948.193 1315.57 922.225 1085.19C896.256 854.814 808.717 762.034 793.638 766.641L508.611 851.881L481.176 1390.97C481.176 1390.97 622.538 1611.29 744.632 1414.63Z" fill="white"/>
<path d="M631.744 1506.78C544.833 1506.78 476.142 1401.01 473.21 1396.62C471.956 1394.77 471.365 1392.56 471.534 1390.33L498.131 851.248C498.262 849.091 499.057 847.028 500.407 845.34C501.756 843.653 503.595 842.425 505.671 841.824L790.489 756.583C793.547 755.923 796.715 755.956 799.76 756.681C802.804 757.406 805.647 758.804 808.08 760.772C844.729 785.067 911.117 894.392 933.735 1084.14C942.112 1159.54 927.452 1215.25 889.965 1249.59C845.567 1290.43 782.74 1288.76 756.143 1285.83V1414.63C756.2 1416.61 755.692 1418.58 754.677 1420.28C719.284 1477.25 678.237 1506.36 632.792 1506.78H631.744ZM492.686 1387.82C502.948 1404.16 562.634 1485.84 631.744 1485.84C669.022 1485.84 703.368 1460.49 734.363 1411.7V1273.68C734.354 1272.13 734.71 1270.61 735.402 1269.22C736.093 1267.84 737.1 1266.64 738.342 1265.72C739.523 1264.74 740.902 1264.03 742.384 1263.63C743.866 1263.23 745.415 1263.16 746.928 1263.42C746.928 1263.42 826.719 1278.7 875.096 1234.1C907.348 1204.36 919.704 1154.72 911.955 1087.49C888.499 879.941 814.154 785.904 794.886 778.155L518.655 859.625L492.686 1387.82Z" fill="#231F20"/>
<path d="M520.567 1002.25C510.933 958.692 446.011 943.403 413.969 974.399C406.685 982.708 401.153 992.402 397.705 1002.9C394.257 1013.4 392.964 1024.48 393.902 1035.49C394.841 1046.5 397.992 1057.21 403.168 1066.97C408.343 1076.74 415.436 1085.36 424.022 1092.31C442.291 1105.56 464.281 1112.7 486.849 1112.7C509.417 1112.7 531.407 1105.56 549.677 1092.31" fill="white"/>
<path d="M483.485 1122.47C459.757 1123.17 436.496 1115.79 417.516 1101.53C407.203 1092.97 398.799 1082.33 392.847 1070.32C386.896 1058.31 383.528 1045.18 382.961 1031.79C382.36 1020.25 384.152 1008.71 388.224 997.899C392.297 987.086 398.562 977.233 406.626 968.958C416.732 959.994 429.017 953.843 442.249 951.123C455.482 948.403 469.197 949.209 482.019 953.46C493.739 956.44 504.438 962.527 512.989 971.078C521.54 979.629 527.626 990.329 530.606 1002.05C530.908 1003.42 530.937 1004.85 530.69 1006.23C530.444 1007.62 529.926 1008.94 529.168 1010.13C528.409 1011.31 527.425 1012.34 526.27 1013.15C525.115 1013.95 523.813 1014.52 522.438 1014.82C521.063 1015.13 519.642 1015.16 518.256 1014.91C516.87 1014.66 515.545 1014.14 514.359 1013.39C513.173 1012.63 512.148 1011.64 511.342 1010.49C510.536 1009.33 509.966 1008.03 509.663 1006.66C507.392 998.566 503.017 991.221 496.984 985.372C490.951 979.522 483.475 975.376 475.318 973.357C466.065 970.226 456.156 969.565 446.569 971.439C436.983 973.312 428.051 977.655 420.658 984.038C414.507 990.286 409.771 997.783 406.772 1006.02C403.773 1014.26 402.58 1023.05 403.275 1031.79C403.653 1042.19 406.216 1052.4 410.798 1061.74C415.381 1071.09 421.88 1079.36 429.872 1086.03C446.379 1097.55 466.073 1103.62 486.2 1103.4C506.326 1103.17 525.88 1096.66 542.124 1084.78C543.218 1083.75 544.518 1082.98 545.937 1082.5C547.356 1082.02 548.861 1081.86 550.351 1082.01C551.84 1082.17 553.278 1082.64 554.57 1083.39C555.861 1084.15 556.975 1085.18 557.837 1086.4C558.698 1087.63 559.287 1089.02 559.564 1090.49C559.841 1091.96 559.799 1093.48 559.441 1094.93C559.083 1096.38 558.418 1097.74 557.49 1098.92C556.562 1100.09 555.393 1101.06 554.062 1101.74C533.175 1115.63 508.566 1122.86 483.485 1122.47Z" fill="#231F20"/>
<path d="M709.67 949.263C726.73 971.2 742.667 993.988 757.419 1017.54C761.659 1022.58 764.724 1028.51 766.39 1034.88C768.056 1041.26 768.283 1047.93 767.052 1054.4C764.415 1059.6 760.563 1064.08 755.824 1067.47C751.084 1070.86 745.597 1073.06 739.827 1073.88C735.229 1075.53 730.233 1075.74 725.514 1074.47C720.795 1073.19 716.58 1070.5 713.44 1066.76" fill="white"/>
<path d="M731.843 1084.14C726.856 1084.48 721.87 1083.49 717.385 1081.28C712.9 1079.08 709.075 1075.73 706.293 1071.58C705.066 1069.43 704.73 1066.89 705.356 1064.5C705.983 1062.12 707.523 1060.07 709.644 1058.8C711.788 1057.58 714.327 1057.24 716.716 1057.87C719.106 1058.49 721.153 1060.03 722.419 1062.15C724.513 1065.92 732.471 1066.13 738.754 1064.67C745.037 1063.2 755.717 1060.06 759.696 1051.26C763.675 1042.47 756.974 1031.99 751.11 1022.57C736.225 999.21 720.148 976.631 702.942 954.923C702.186 953.974 701.624 952.885 701.288 951.719C700.953 950.553 700.85 949.332 700.986 948.127C701.122 946.921 701.495 945.754 702.082 944.692C702.669 943.63 703.459 942.694 704.408 941.938C705.357 941.181 706.445 940.619 707.611 940.284C708.777 939.948 709.998 939.845 711.204 939.981C712.41 940.118 713.577 940.49 714.639 941.077C715.7 941.664 716.636 942.455 717.392 943.404C735.017 965.621 751.445 988.761 766.607 1012.73C771.754 1018.89 775.383 1026.17 777.201 1033.99C779.02 1041.82 778.978 1049.95 777.079 1057.76C773.989 1064.42 769.288 1070.2 763.401 1074.59C757.514 1078.98 750.627 1081.83 743.361 1082.89C739.582 1083.74 735.717 1084.16 731.843 1084.14V1084.14Z" fill="#231F20"/>
<path d="M647.38 951.447C654.088 951.44 659.519 943.746 659.509 934.261C659.499 924.776 654.052 917.093 647.344 917.1C640.636 917.107 635.205 924.802 635.215 934.286C635.225 943.771 640.672 951.454 647.38 951.447Z" fill="#231F20"/>
<path d="M784.656 939.217C791.338 938.623 796.074 930.483 795.234 921.036C794.394 911.588 788.297 904.411 781.615 905.005C774.933 905.599 770.196 913.739 771.036 923.187C771.876 932.634 777.974 939.811 784.656 939.217Z" fill="#231F20"/>
<path d="M350.279 1032.21C336.038 1032.21 317.19 1023.83 298.551 990.32C277.966 958.305 263.349 922.826 255.409 885.602C251.705 866.267 252.438 846.344 257.553 827.334C262.668 808.324 272.032 790.723 284.938 775.858C296.693 763.72 311.653 755.17 328.077 751.203C344.501 747.236 361.715 748.015 377.713 753.449C375.18 701.584 392.561 650.713 426.3 611.242C464.723 568.443 511.376 533.825 563.473 509.457C624.994 477.894 689.366 452.229 755.726 432.804C797.821 417.062 843.577 413.861 887.454 423.588C961.59 445.789 999.496 528.306 1003.27 593.44C1005.77 641.997 995.48 690.36 973.429 733.692C951.378 777.024 918.337 813.808 877.611 840.364C875.187 841.862 872.272 842.35 869.492 841.724C866.713 841.097 864.289 839.406 862.742 837.013C861.973 835.821 861.449 834.487 861.201 833.09C860.953 831.692 860.986 830.26 861.298 828.875C861.61 827.491 862.194 826.182 863.018 825.027C863.841 823.871 864.886 822.891 866.093 822.143C903.436 797.475 933.763 763.566 954.13 723.712C974.496 683.858 984.209 639.414 982.323 594.697C978.973 535.636 946.093 463.381 882.009 444.323C842.085 435.934 800.595 439.132 762.427 453.538C697.353 472.553 634.24 497.729 573.945 528.725C524.476 551.474 480.047 583.871 443.263 624.018C425.808 643.767 413.077 667.232 406.038 692.633C398.999 718.034 397.835 744.705 402.635 770.622C403.225 772.835 403.073 775.18 402.203 777.298C401.333 779.417 399.793 781.191 397.818 782.351C395.973 783.727 393.733 784.471 391.431 784.471C389.129 784.471 386.888 783.727 385.043 782.351C372.329 773.576 356.895 769.64 341.531 771.253C326.168 772.867 311.888 779.923 301.273 791.147C290.407 803.761 282.614 818.724 278.508 834.859C274.401 850.994 274.093 867.862 277.608 884.136C285.22 918.337 298.758 950.942 317.608 980.476C326.404 995.765 340.017 1013.36 354.258 1010.22C357.062 1009.59 360 1010.1 362.432 1011.63C364.864 1013.16 366.593 1015.58 367.242 1018.38C367.548 1019.77 367.572 1021.21 367.315 1022.61C367.057 1024.01 366.523 1025.34 365.742 1026.53C364.962 1027.72 363.952 1028.75 362.771 1029.54C361.59 1030.34 360.262 1030.89 358.865 1031.16C356.06 1031.88 353.174 1032.23 350.279 1032.21V1032.21Z" fill="#231F20"/>
<path d="M744.653 1273.68C694.497 1261.1 646.2 1242.02 600.988 1216.92C600.988 1216.92 598.265 1311.17 742.978 1356.2L744.653 1273.68Z" fill="#231F20"/>
<path d="M742.961 1365.41H740.239C590.5 1318.92 591.756 1221.32 591.756 1217.13C591.838 1215.51 592.346 1213.94 593.228 1212.58C594.111 1211.22 595.337 1210.12 596.783 1209.38C598.176 1208.55 599.768 1208.11 601.39 1208.11C603.012 1208.11 604.604 1208.55 605.997 1209.38C650.402 1233.91 697.77 1252.63 746.94 1265.09C748.951 1265.57 750.735 1266.73 751.993 1268.37C753.252 1270.01 753.908 1272.03 753.851 1274.1L752.176 1356.62C752.104 1358.03 751.707 1359.41 751.017 1360.64C750.327 1361.88 749.362 1362.93 748.197 1363.74C746.706 1364.9 744.85 1365.49 742.961 1365.41V1365.41ZM612.699 1234.51C619.191 1260.9 643.484 1312.01 733.956 1343.42L735.212 1280.59C692.858 1269.61 651.79 1254.17 612.699 1234.51V1234.51Z" fill="#231F20"/>
<path d="M368.703 1959.79C368.703 1959.79 868.81 2534.48 1178.97 2391.85C1489.13 2249.23 1947.98 1684.8 1947.98 1684.8C1947.98 1684.8 2092.69 1533.8 2063.79 1525.63C2034.89 1517.46 1939.6 1609.4 1939.6 1609.4C1939.6 1609.4 2047.24 1481.23 2005.78 1481.23C1964.31 1481.23 1885.99 1576.31 1885.99 1576.31C1885.99 1576.31 2014.16 1431.59 1960.33 1439.76C1906.51 1447.93 1840.54 1526.68 1840.54 1526.68C1840.54 1526.68 1968.71 1402.69 1919.08 1406.88C1869.44 1411.07 1737.09 1534.85 1737.09 1534.85C1737.09 1534.85 1790.91 1410.86 1749.44 1415.05C1707.98 1419.24 1699.81 1529.82 1636.98 1587.62C1574.15 1645.43 1173.94 2029.95 1099.6 2025.97C1025.25 2021.99 694.568 1666.16 694.568 1666.16" fill="white"/>
<path d="M1069.23 2425.36C953.836 2425.36 813.94 2362.53 650.379 2236.87C545.811 2155.29 448.613 2064.67 359.907 1966.07C357.975 1964.08 356.895 1961.41 356.895 1958.64C356.895 1955.86 357.975 1953.2 359.907 1951.2C360.862 1950.23 362.003 1949.45 363.261 1948.93C364.52 1948.4 365.872 1948.12 367.237 1948.12C368.602 1948.12 369.954 1948.4 371.212 1948.93C372.471 1949.45 373.611 1950.23 374.567 1951.2C379.593 1956.86 873.208 2518.35 1172.69 2380.55C1476.98 2240.64 1933.32 1682.08 1937.92 1676.43C1990.28 1621.97 2045.78 1556 2054.16 1534.01C2034.89 1537.78 1984.84 1575.9 1945.04 1614.22C1943.11 1616.04 1940.55 1617.05 1937.9 1617.05C1935.25 1617.05 1932.69 1616.05 1930.75 1614.24C1928.81 1612.43 1927.63 1609.95 1927.44 1607.31C1927.26 1604.66 1928.09 1602.04 1929.76 1599.98C1969.34 1552.65 2001.38 1503.85 2003.06 1489.19C1979.39 1491.08 1937.71 1529.4 1907.98 1562.07L1891.85 1580.5C1889.89 1582.42 1887.26 1583.5 1884.52 1583.5C1881.78 1583.5 1879.15 1582.42 1877.19 1580.5C1875.14 1578.69 1873.87 1576.15 1873.64 1573.42C1873.4 1570.7 1874.22 1567.98 1875.93 1565.84C1877.82 1563.54 1882.85 1557.47 1890.18 1549.51C1925.78 1507.62 1958.66 1461.55 1961.17 1446.26C1932.59 1454.2 1906.59 1469.51 1885.78 1490.66C1873.21 1504.27 1859.81 1517.67 1846.82 1530.24C1844.89 1532.05 1842.33 1533.06 1839.68 1533.07C1837.03 1533.07 1834.47 1532.06 1832.53 1530.26C1830.59 1528.45 1829.41 1525.97 1829.22 1523.32C1829.04 1520.68 1829.87 1518.06 1831.54 1516C1843.24 1502.67 1855.61 1489.95 1868.6 1477.88C1888.12 1458.79 1904.9 1437.08 1918.45 1413.38C1880.33 1417.35 1779.39 1504.9 1743.37 1539.04C1741.61 1540.65 1739.36 1541.62 1736.98 1541.77C1734.6 1541.93 1732.23 1541.27 1730.28 1539.9C1728.33 1538.53 1726.9 1536.54 1726.23 1534.25C1725.56 1531.96 1725.7 1529.51 1726.61 1527.31C1745.04 1485.42 1759.49 1432.64 1751.95 1422.59C1751.95 1422.59 1751.95 1422.59 1749.65 1422.59C1734.99 1424.06 1722.64 1453.17 1709.65 1484.16C1695.62 1524.76 1673.3 1561.99 1644.1 1593.49L1623.16 1614.43C1315.51 1904.5 1149.86 2038.33 1099.6 2035.61C1023.16 2031.21 722.631 1709.31 687.448 1672.45C686.473 1671.49 685.698 1670.35 685.169 1669.09C684.64 1667.83 684.368 1666.48 684.368 1665.12C684.368 1663.75 684.64 1662.4 685.169 1661.14C685.698 1659.88 686.473 1658.74 687.448 1657.79C688.421 1656.8 689.579 1656.03 690.855 1655.49C692.131 1654.96 693.5 1654.69 694.882 1654.69C696.264 1654.69 697.633 1654.96 698.909 1655.49C700.185 1656.03 701.343 1656.8 702.317 1657.79C834.045 1799.57 1048.92 2011.31 1100.22 2013.83C1129.75 2015.29 1241.17 1944.5 1608.71 1598.31L1629.65 1578.41C1656.7 1548.91 1677.31 1514.1 1690.17 1476.21C1706.93 1436.2 1720.33 1404.58 1747.35 1401.86C1751.3 1401.37 1755.32 1401.92 1758.99 1403.46C1762.66 1405.01 1765.87 1407.49 1768.29 1410.65C1780.02 1426.78 1771.43 1464.27 1760.96 1494.43C1804.73 1456.31 1879.29 1395.99 1916.77 1392.85C1920.86 1391.93 1925.14 1392.4 1928.93 1394.18C1932.72 1395.96 1935.82 1398.96 1937.71 1402.69C1941.07 1410.02 1937.71 1421.33 1929.55 1434.74C1938.33 1430.58 1947.62 1427.62 1957.19 1425.94C1961.43 1424.58 1966 1424.71 1970.16 1426.31C1974.31 1427.91 1977.79 1430.88 1980.02 1434.74C1985.04 1443.95 1980.02 1460.29 1968.5 1479.77C1979.1 1472.6 1991.36 1468.27 2004.1 1467.2C2007.81 1466.92 2011.52 1467.75 2014.77 1469.57C2018.01 1471.4 2020.64 1474.14 2022.32 1477.46C2027.98 1489.82 2017.3 1513.49 2001.38 1539.04C2025.88 1521.65 2050.39 1508.88 2064.21 1513.07C2066.83 1513.74 2069.23 1515.1 2071.15 1517.02C2073.06 1518.93 2074.43 1521.33 2075.1 1523.96C2082.22 1550.14 2001.8 1638.94 1953.21 1689.62C1934.99 1712.03 1489.75 2256.77 1181.06 2398.77C1146.15 2415.62 1107.99 2424.69 1069.23 2425.36V2425.36Z" fill="#231F20"/>
<path d="M806.405 1166.25C804.445 1169.63 802.128 1172.78 799.495 1175.67C742.112 1242.9 675.515 1180.49 637.818 1130.43C641.588 1135.67 718.447 1113.26 726.196 1111.79L820.856 1090.85C823.769 1103.73 823.989 1117.08 821.502 1130.06C819.015 1143.03 813.876 1155.35 806.405 1166.25Z" fill="#231F20"/>
<path d="M1410.83 4918.06L1426.33 5093.78C1426.33 5093.78 2241.83 4979.01 2207.69 4944.87C2173.56 4910.73 1877.01 4824.87 1877.01 4824.87" fill="#34A853"/>
<path d="M1426.32 5104.25C1423.96 5104.22 1421.68 5103.41 1419.83 5101.95C1417.6 5100.12 1416.18 5097.49 1415.85 5094.62L1400.35 4918.9C1400.1 4916.13 1400.97 4913.36 1402.76 4911.22C1404.54 4909.08 1407.11 4907.74 1409.88 4907.49C1412.66 4907.24 1415.42 4908.1 1417.56 4909.89C1419.7 4911.68 1421.05 4914.24 1421.3 4917.02L1435.75 5081.84C1708 5043.31 2130.2 4976.08 2193.03 4946.76C2151.14 4920.37 1983.6 4866.75 1874.07 4834.92C1872.76 4834.56 1871.54 4833.94 1870.46 4833.1C1869.39 4832.26 1868.5 4831.21 1867.84 4830.02C1867.18 4828.83 1866.76 4827.52 1866.6 4826.17C1866.45 4824.82 1866.57 4823.45 1866.95 4822.14C1867.73 4819.47 1869.53 4817.21 1871.96 4815.84C1874.38 4814.47 1877.25 4814.1 1879.94 4814.81C1910.51 4823.82 2180.04 4902.36 2215.02 4937.54C2216.84 4939.28 2218.12 4941.51 2218.72 4943.96C2219.31 4946.41 2219.19 4948.98 2218.37 4951.36C2205.59 4989.27 1717.42 5063.2 1427.58 5104.04L1426.32 5104.25Z" fill="#231F20"/>
<path d="M749.023 4984.24V5126.87L11.0098 5132.1C11.0098 5132.1 141.272 5008.12 265.252 4958.48" fill="#34A853"/>
<path d="M11.0193 5143.41C8.94433 5143.39 6.92471 5142.74 5.21679 5141.56C3.50888 5140.38 2.18972 5138.72 1.42676 5136.79C0.663804 5134.86 0.491459 5132.75 0.931609 5130.72C1.37176 5128.69 2.40453 5126.84 3.89886 5125.4C9.13448 5120.38 136.884 4999.74 261.492 4949.69C262.77 4949.18 264.137 4948.92 265.514 4948.94C266.89 4948.96 268.25 4949.25 269.514 4949.8C270.778 4950.34 271.923 4951.13 272.882 4952.12C273.841 4953.1 274.597 4954.27 275.104 4955.55C276.078 4958.14 276.011 4961 274.918 4963.54C273.824 4966.08 271.789 4968.09 269.24 4969.16C176.884 5006.02 79.5013 5086.24 38.8728 5122.26L738.981 5116.4V4984.24C738.981 4981.47 740.084 4978.8 742.048 4976.84C744.011 4974.88 746.675 4973.77 749.452 4973.77C752.229 4973.77 754.893 4974.88 756.856 4976.84C758.82 4978.8 759.923 4981.47 759.923 4984.24V5126.87C759.87 5129.63 758.749 5132.26 756.797 5134.21C754.845 5136.17 752.212 5137.29 749.452 5137.34L11.6476 5143.41H11.0193Z" fill="#231F20"/>
<path d="M806.634 3090.53C751.346 3090.53 715.953 3088.64 715.325 3088.64C712.585 3088.38 710.047 3087.09 708.221 3085.03C706.395 3082.97 705.416 3080.3 705.482 3077.54C705.562 3076.17 705.913 3074.82 706.514 3073.58C707.116 3072.34 707.956 3071.23 708.988 3070.32C710.019 3069.4 711.22 3068.7 712.524 3068.25C713.827 3067.8 715.206 3067.62 716.581 3067.7C818.079 3072.11 919.761 3069.38 1020.88 3059.53C1022.23 3059.36 1023.6 3059.46 1024.92 3059.84C1026.23 3060.21 1027.45 3060.85 1028.51 3061.71C1029.57 3062.57 1030.44 3063.64 1031.07 3064.85C1031.7 3066.06 1032.08 3067.39 1032.18 3068.75C1032.48 3071.5 1031.68 3074.25 1029.95 3076.41C1028.22 3078.56 1025.71 3079.95 1022.97 3080.27C940.038 3088.44 862.132 3090.53 806.634 3090.53Z" fill="white"/>
<path d="M1851.65 3133.04C1849.28 3133.08 1846.97 3132.26 1845.16 3130.74C1843.01 3129.01 1841.62 3126.52 1841.27 3123.79C1840.92 3121.05 1841.64 3118.29 1843.27 3116.08L2054.16 2843.81C2055.92 2841.71 2058.41 2840.35 2061.12 2840C2063.84 2839.65 2066.59 2840.34 2068.82 2841.93C2071.03 2843.66 2072.46 2846.19 2072.81 2848.98C2073.16 2851.76 2072.41 2854.57 2070.71 2856.8L1860.03 3129.06C1859.02 3130.31 1857.74 3131.32 1856.29 3132.01C1854.84 3132.7 1853.25 3133.05 1851.65 3133.04Z" fill="#D1D3D4"/>
<path d="M2964.95 3993.2C2962.3 3993.2 2959.75 3992.18 2957.84 3990.34C2955.93 3988.51 2954.8 3986 2954.69 3983.36L2891.86 2879.42C2891.75 2876.62 2892.74 2873.89 2894.62 2871.82C2896.5 2869.74 2899.12 2868.49 2901.91 2868.32C2903.28 2868.24 2904.65 2868.43 2905.94 2868.88C2907.23 2869.33 2908.42 2870.04 2909.43 2870.95C2910.45 2871.87 2911.27 2872.98 2911.85 2874.22C2912.43 2875.46 2912.75 2876.8 2912.8 2878.17L2975.63 3982.1C2975.72 3983.47 2975.53 3984.85 2975.08 3986.16C2974.63 3987.46 2973.93 3988.66 2973.02 3989.69C2972.1 3990.72 2970.99 3991.56 2969.75 3992.17C2968.51 3992.77 2967.17 3993.12 2965.79 3993.2H2964.95Z" fill="#D1D3D4"/>
<path d="M4944.65 1448.36C4932.47 1468.6 4921.56 1489.59 4911.98 1511.19C4820.25 1704.08 4701.51 1941.57 4464.23 1975.92C4297.74 2000.01 4126.43 1967.75 3969.36 1913.09C3920.5 1896.8 3874.29 1873.44 3832.19 1843.77C3782.34 1805.86 3740.25 1748.89 3696.27 1704.08C3685.17 1692.56 3665.69 1681.04 3654.38 1693.19C3643.08 1705.33 3652.29 1716.43 3658.78 1726.69C3681.8 1763.28 3708.01 1797.77 3737.11 1829.74C3701.71 1815.5 3665.48 1802.93 3628.83 1791.83C3597.07 1780.25 3564.44 1771.21 3531.24 1764.81C3525.07 1764.85 3519.06 1766.83 3514.07 1770.47C3511.66 1772.39 3510 1775.09 3509.35 1778.11C3508.7 1781.12 3509.11 1784.27 3510.51 1787.01C3512.2 1789.43 3514.42 1791.44 3517 1792.88C3541.81 1809.2 3569.02 1821.57 3597.63 1829.53C3573 1817.27 3546.14 1810.15 3518.68 1808.58C3506.74 1808.58 3491.87 1810.26 3487.89 1821.57C3483.91 1832.88 3495.64 1844.82 3506.53 1851.52C3530.95 1866.6 3557.2 1878.49 3584.65 1886.91C3563.16 1876.13 3540.9 1866.96 3518.05 1859.48C3503.81 1854.87 3485.38 1851.94 3476.16 1864.08C3473.54 1868.1 3472.14 1872.8 3472.14 1877.59C3472.14 1882.39 3473.54 1887.08 3476.16 1891.1C3481.63 1898.89 3488.79 1905.33 3497.11 1909.95C3519.05 1923.6 3542.62 1934.43 3567.26 1942.2L3500.88 1919.17C3496.11 1916.72 3490.84 1915.45 3485.48 1915.45C3480.13 1915.45 3474.85 1916.72 3470.09 1919.17C3459.41 1927.75 3463.6 1945.34 3471.77 1956.65C3488.82 1974.83 3509.91 1988.75 3533.34 1997.28C3564.12 2011.97 3595.65 2025.04 3627.79 2036.45C3841.61 2120.22 4028.21 2238.97 4262.76 2258.45C4521.82 2279.39 4812.5 2209.86 5005.59 2028.07C5122.45 1918.12 5243.29 1728.58 5222.35 1558.73C5215.44 1503.23 5206.85 1426.57 5158.06 1391.18C5105.91 1352.43 5011.46 1371.49 4969.57 1415.68C4960.24 1425.75 4951.9 1436.69 4944.65 1448.36Z" fill="white"/>
<path d="M4357.63 2273.32C4326.21 2273.32 4294.8 2272.06 4262.34 2269.34C4093.33 2255.1 3951.97 2191.22 3801.6 2122.73C3744.01 2096.55 3684.33 2069.54 3623.38 2045.87L3602.44 2038.33C3576.84 2029.03 3551.75 2018.41 3527.26 2006.5L3514.9 2000.42C3494.41 1992.41 3476.26 1979.37 3462.13 1962.52C3455.62 1955.47 3452.01 1946.24 3452.01 1936.65C3452.01 1927.06 3455.62 1917.83 3462.13 1910.79C3466.03 1907.73 3470.64 1905.71 3475.53 1904.92C3472.37 1902.03 3469.62 1898.72 3467.36 1895.08C3463.52 1889.35 3461.46 1882.6 3461.46 1875.7C3461.46 1868.8 3463.52 1862.06 3467.36 1856.33C3471.41 1850.86 3477.15 1846.88 3483.7 1845.02C3480.24 1841.29 3477.82 1836.71 3476.68 1831.75C3475.54 1826.79 3475.72 1821.62 3477.2 1816.75C3479.52 1811.05 3483.45 1806.16 3488.51 1802.66C3493.57 1799.16 3499.54 1797.22 3505.69 1797.06C3502.98 1794.92 3500.8 1792.2 3499.3 1789.1C3497.8 1786 3497.02 1782.6 3497.02 1779.16C3497.02 1775.71 3497.8 1772.31 3499.3 1769.21C3500.8 1766.11 3502.98 1763.39 3505.69 1761.25C3512.39 1756.04 3520.65 1753.24 3529.14 1753.29C3557.83 1756.73 3585.98 1763.76 3612.91 1774.23L3630.29 1779.68C3653.96 1786.8 3677.42 1794.55 3700.87 1803.14C3681.9 1779.97 3664.42 1755.62 3648.51 1730.25C3633.44 1706.38 3638.25 1692.13 3644.95 1684.39C3647.18 1681.65 3649.99 1679.44 3653.18 1677.92C3656.37 1676.4 3659.85 1675.6 3663.38 1675.59C3678.08 1676.77 3691.74 1683.6 3701.5 1694.65C3716.58 1709.94 3731.66 1727.11 3746.11 1743.45C3773.23 1776.23 3803.38 1806.38 3836.16 1833.5C3877.41 1862.41 3922.62 1885.2 3970.4 1901.15C4149.25 1963.98 4314.07 1984.93 4460.46 1963.98C4699.2 1929.42 4820.04 1673.7 4900.25 1504.48C4909.96 1482.83 4921.09 1461.84 4933.55 1441.65V1441.65C4941.25 1429.22 4950.16 1417.57 4960.14 1406.88C5004.54 1360.18 5104.86 1338.4 5162.66 1381.12C5214.18 1419.45 5223.81 1496.94 5230.72 1553.7V1556.84C5251.66 1724.39 5135.22 1918.12 5010.61 2035.19C4852.5 2187.66 4612.5 2273.32 4357.63 2273.32ZM3483.49 1926.07C3481.28 1926.03 3479.1 1926.61 3477.2 1927.75C3472.39 1931.73 3475.32 1943.04 3480.97 1950.79C3493.06 1964.88 3508.57 1975.62 3526 1981.99L3538.78 1988.49C3562.6 1999.98 3587 2010.26 3611.87 2019.27L3632.81 2027.02C3694.17 2050.9 3754.06 2078.12 3811.87 2104.3C3959.72 2171.32 4099.2 2234.57 4264.85 2248.39C4548.41 2272.06 4823.18 2187.24 4999.72 2021.16C5120.35 1907.64 5233.02 1721.25 5213.13 1560.4V1557.26C5206.43 1504.48 5197.63 1431.6 5153.23 1399.14C5105.07 1363.32 5016.9 1381.96 4978.36 1422.38C4969.39 1432.1 4961.33 1442.61 4954.28 1453.8C4942.33 1473.49 4931.62 1493.92 4922.24 1514.95C4840.35 1688.16 4716.58 1949.95 4466.74 1986.18C4317 2007.13 4148.83 1986.18 3966.84 1922.09C3917.05 1905.18 3869.89 1881.35 3826.73 1851.31C3792.88 1823.46 3761.75 1792.46 3733.75 1758.74C3718.67 1741.56 3704.43 1725.64 3689.77 1710.57C3683.97 1703.89 3676.07 1699.38 3667.36 1697.79C3666.73 1697.76 3666.1 1697.88 3665.52 1698.14C3664.94 1698.39 3664.42 1698.77 3664.01 1699.26C3661.29 1702.4 3664.01 1710.57 3669.67 1720.2C3692.05 1756.62 3717.56 1791.02 3745.9 1823.03C3747.51 1824.76 3748.5 1826.98 3748.69 1829.34C3748.88 1831.7 3748.26 1834.05 3746.94 1836.02C3745.59 1837.98 3743.61 1839.43 3741.33 1840.11C3739.04 1840.8 3736.59 1840.68 3734.38 1839.79C3699.2 1825.75 3662.96 1813.19 3626.73 1802.3L3608.93 1796.64C3584.22 1787.55 3558.79 1780.54 3532.91 1775.7C3529.06 1775.73 3525.29 1776.81 3522.02 1778.84C3521.53 1779.24 3521.14 1779.75 3520.88 1780.34C3520.63 1780.92 3520.51 1781.56 3520.56 1782.19C3521.49 1783.11 3522.54 1783.88 3523.7 1784.5C3534.95 1791.99 3546.79 1798.57 3559.09 1804.18C3574.44 1808.1 3589.32 1813.64 3603.49 1820.73C3605.8 1821.86 3607.61 1823.83 3608.54 1826.24C3609.47 1828.64 3609.46 1831.31 3608.51 1833.71C3607.54 1836.11 3605.73 1838.09 3603.43 1839.28C3601.13 1840.47 3598.47 1840.8 3595.95 1840.21C3580.95 1836.02 3566.31 1830.63 3552.18 1824.08C3541.31 1821.54 3530.24 1819.93 3519.09 1819.26C3510.29 1819.26 3500.66 1820.52 3498.15 1825.13C3495.63 1829.73 3504.01 1837.69 3512.39 1842.93C3517.2 1846.07 3522.44 1849 3527.47 1851.72C3548.95 1859 3569.94 1867.68 3590.29 1877.69C3592.59 1878.91 3594.37 1880.91 3595.3 1883.34C3596.22 1885.77 3596.23 1888.45 3595.32 1890.89C3594.3 1893.29 3592.45 1895.25 3590.1 1896.41C3587.76 1897.56 3585.07 1897.83 3582.55 1897.17C3560.81 1890.5 3539.77 1881.73 3519.72 1870.99L3515.53 1869.53C3508.41 1867.22 3491.45 1862.82 3485.79 1869.53C3484.54 1871.94 3484 1874.65 3484.22 1877.35C3484.45 1880.06 3485.42 1882.64 3487.05 1884.82C3491.69 1891.3 3497.79 1896.61 3504.85 1900.31C3525.2 1912.99 3547 1923.18 3569.77 1930.68L3572.7 1931.73C3575.12 1932.73 3577.08 1934.6 3578.19 1936.98C3579.29 1939.35 3579.47 1942.06 3578.68 1944.56C3577.89 1947.06 3576.2 1949.17 3573.93 1950.48C3571.66 1951.78 3568.98 1952.19 3566.42 1951.62H3563.28L3497.94 1930.68C3493.35 1928.5 3488.49 1926.95 3483.49 1926.07V1926.07Z" fill="#231F20"/>
<path d="M2801.82 671.138C2799.04 671.138 2796.38 670.034 2794.41 668.071C2792.45 666.107 2791.35 663.443 2791.35 660.666V11.4175C2791.35 8.64027 2792.45 5.97673 2794.41 4.0129C2796.38 2.04906 2799.04 0.945801 2801.82 0.945801C2804.6 0.945801 2807.26 2.04906 2809.22 4.0129C2811.19 5.97673 2812.29 8.64027 2812.29 11.4175V660.666C2812.29 663.443 2811.19 666.107 2809.22 668.071C2807.26 670.034 2804.6 671.138 2801.82 671.138Z" fill="#D1D3D4"/>
<path d="M1528.1 564.953C1526.47 564.937 1524.88 564.552 1523.42 563.826C1521.97 563.1 1520.71 562.053 1519.72 560.765L1331.24 301.275C1330.42 300.161 1329.84 298.898 1329.52 297.558C1329.19 296.219 1329.14 294.829 1329.35 293.467C1329.78 290.718 1331.29 288.253 1333.54 286.614C1335.79 284.976 1338.6 284.298 1341.35 284.73C1344.1 285.162 1346.56 286.668 1348.2 288.918L1536.68 548.408C1538.27 550.674 1538.92 553.469 1538.49 556.204C1538.06 558.939 1536.59 561.4 1534.38 563.068C1532.52 564.315 1530.33 564.972 1528.1 564.953V564.953Z" fill="#D1D3D4"/>
<path d="M317.637 1916.02C316.014 1916.01 314.416 1915.62 312.965 1914.9C311.513 1914.17 310.246 1913.12 309.26 1911.83C229.05 1805.23 164.757 1705.12 164.128 1704.07C163.397 1702.91 162.904 1701.61 162.677 1700.25C162.449 1698.89 162.493 1697.5 162.804 1696.15C163.115 1694.81 163.688 1693.54 164.491 1692.42C165.293 1691.3 166.309 1690.35 167.479 1689.62C168.639 1688.86 169.94 1688.35 171.305 1688.1C172.67 1687.86 174.07 1687.9 175.42 1688.21C176.771 1688.52 178.044 1689.11 179.163 1689.93C180.281 1690.74 181.223 1691.78 181.929 1692.97C181.929 1692.97 246.223 1793.29 326.014 1899.27C326.839 1900.37 327.439 1901.62 327.781 1902.95C328.122 1904.28 328.197 1905.67 328.003 1907.03C327.809 1908.39 327.348 1909.7 326.647 1910.89C325.947 1912.07 325.02 1913.1 323.92 1913.93C322.13 1915.33 319.91 1916.07 317.637 1916.02V1916.02Z" fill="#231F20"/>
<path d="M5423.8 3859.37C5421.24 3859.34 5418.78 3858.4 5416.85 3856.7C5414.93 3855.01 5413.68 3852.69 5413.33 3850.15C5413.33 3842.4 5318.67 3077.97 5279.93 2891.78C5279.37 2889 5279.94 2886.12 5281.51 2883.76C5283.08 2881.4 5285.53 2879.77 5288.31 2879.21C5291.08 2878.66 5293.97 2879.23 5296.32 2880.8C5298.68 2882.37 5300.32 2884.81 5300.87 2887.59C5339.82 3074.61 5433.85 3839.89 5434.69 3847.64C5434.87 3848.99 5434.77 3850.36 5434.41 3851.67C5434.06 3852.98 5433.44 3854.21 5432.6 3855.28C5431.76 3856.35 5430.72 3857.25 5429.53 3857.91C5428.35 3858.58 5427.04 3859 5425.69 3859.16L5423.8 3859.37Z" fill="white"/>
</svg>
