<svg width="1600" height="1200" viewBox="0 0 1600 1200" fill="none" xmlns="http://www.w3.org/2000/svg">
<rect width="1600" height="1200" fill="#EA4335"/>
<g clip-path="url(#clip0)">
<path d="M931.601 1119.75C920.018 1128.05 907.461 1134.9 894.21 1140.14C890.74 1141.53 887.249 1142.82 883.701 1144H702.573C701.84 1142.73 701.126 1141.44 700.394 1140.14C685.7 1113.85 672.375 1086.54 668.595 1056.83C664.063 1021.17 676.772 980.783 708.184 963.26C712.299 960.967 716.659 959.143 721.181 957.824C723.052 957.245 724.96 956.783 726.889 956.378C738.664 953.766 750.922 954.335 762.404 958.029C773.885 961.722 784.176 968.405 792.217 977.392C800.258 986.379 805.76 997.344 808.157 1009.16C810.554 1020.98 809.759 1033.22 805.854 1044.63C832.485 1017.33 827.51 973.072 818.33 936.08C809.132 899.087 797.987 857.912 816.711 824.678C827.105 806.192 845.404 794.722 865.922 790.096C866.558 789.961 867.195 789.826 867.812 789.71C892.274 784.757 917.705 789.211 939.025 802.182C978.286 826.895 998.437 873.796 1004.97 919.713C1015.52 993.621 992.189 1076.09 931.601 1119.75Z" fill="#F2F2F2"/>
<path d="M741.1 979.934C755.601 1009.37 760.226 1042.68 754.29 1074.95C749.811 1098.61 739.939 1120.92 725.442 1140.14C724.459 1141.46 723.456 1142.75 722.433 1144H715.279C716.379 1142.75 717.458 1141.46 718.481 1140.14C731.648 1123.75 741.195 1104.75 746.492 1084.4C751.79 1064.05 752.719 1042.81 749.218 1022.07C745.064 998.748 735.458 976.734 721.18 957.824C723.051 957.245 724.96 956.783 726.888 956.378C732.318 963.791 737.075 971.674 741.1 979.934Z" fill="white"/>
<path d="M914.38 1001.27C912.832 1017.57 908.915 1033.56 902.753 1048.73C897.072 1062.16 889.415 1074.66 880.037 1085.82C860.889 1108.86 835.55 1126.19 808.033 1137.72C806.027 1138.56 804.003 1139.37 801.959 1140.14C798.41 1141.53 794.824 1142.8 791.217 1144H771.684C776.293 1142.84 780.882 1141.55 785.414 1140.14C796.188 1136.79 806.701 1132.65 816.865 1127.75C842.7 1115.51 865.134 1097.11 882.196 1074.18C900.496 1048.93 908.576 1018.57 909.964 987.703C911.43 954.682 907.13 921.063 899.59 888.928C891.896 855.991 880.194 824.12 864.745 794.028C864.4 793.347 864.329 792.559 864.548 791.827C864.767 791.095 865.258 790.475 865.921 790.096C866.478 789.727 867.155 789.589 867.811 789.71C868.132 789.793 868.431 789.946 868.684 790.16C868.938 790.374 869.14 790.641 869.276 790.944C871.186 794.664 873.057 798.385 874.849 802.144C889.824 833.483 900.855 866.558 907.689 900.61C914.303 933.458 917.851 967.829 914.38 1001.27Z" fill="white"/>
<path d="M108.894 596.536C92.8761 596.536 77.2174 591.788 63.8987 582.891C50.58 573.995 40.1993 561.35 34.0693 546.556C27.9394 531.762 26.3355 515.483 29.4605 499.778C32.5856 484.073 40.2991 469.647 51.6258 458.324C62.9524 447.001 77.3835 439.29 93.094 436.166C108.805 433.042 125.089 434.645 139.888 440.773C154.687 446.901 167.336 457.278 176.235 470.592C185.134 483.907 189.884 499.56 189.884 515.573C189.86 537.038 181.319 557.617 166.136 572.796C150.953 587.974 130.367 596.512 108.894 596.536ZM108.894 438.466C93.6388 438.466 78.7259 442.988 66.0414 451.46C53.3568 459.933 43.4705 471.976 37.6324 486.065C31.7944 500.155 30.2669 515.659 33.2431 530.616C36.2193 545.573 43.5655 559.313 54.3528 570.096C65.1401 580.88 78.884 588.224 93.8464 591.199C108.809 594.174 124.318 592.647 138.412 586.811C152.506 580.975 164.553 571.092 173.028 558.412C181.504 545.731 186.028 530.824 186.028 515.573C186.005 495.13 177.871 475.531 163.41 461.075C148.95 446.62 129.344 438.489 108.894 438.466Z" fill="white"/>
<path d="M436.713 336.298C420.694 336.298 405.036 331.55 391.717 322.653C378.398 313.757 368.018 301.112 361.888 286.318C355.758 271.524 354.154 255.245 357.279 239.54C360.404 223.835 368.117 209.408 379.444 198.086C390.771 186.763 405.202 179.052 420.912 175.928C436.623 172.804 452.907 174.407 467.706 180.535C482.505 186.663 495.154 197.04 504.054 210.354C512.953 223.669 517.703 239.322 517.703 255.335C517.678 276.8 509.138 297.379 493.954 312.558C478.771 327.736 458.185 336.274 436.713 336.298ZM436.713 178.227C421.457 178.227 406.544 182.75 393.86 191.222C381.175 199.695 371.289 211.738 365.451 225.827C359.613 239.917 358.085 255.421 361.061 270.378C364.038 285.335 371.384 299.075 382.171 309.858C392.959 320.642 406.702 327.986 421.665 330.961C436.627 333.936 452.136 332.409 466.23 326.573C480.325 320.737 492.371 310.854 500.847 298.174C509.322 285.493 513.846 270.586 513.846 255.335C513.823 234.892 505.689 215.293 491.229 200.837C476.768 186.382 457.163 178.251 436.713 178.227Z" fill="white"/>
<path d="M787.67 212.926C771.651 212.926 755.993 208.178 742.674 199.281C729.355 190.385 718.975 177.74 712.845 162.946C706.715 148.152 705.111 131.873 708.236 116.168C711.361 100.463 719.075 86.0364 730.401 74.7135C741.728 63.3907 756.159 55.6797 771.869 52.5557C787.58 49.4317 803.864 51.0351 818.663 57.163C833.462 63.2909 846.111 73.6681 855.01 86.9824C863.91 100.297 868.66 115.95 868.66 131.963C868.636 153.428 860.095 174.007 844.912 189.186C829.728 204.364 809.142 212.902 787.67 212.926ZM787.67 54.8554C772.414 54.8554 757.501 59.3777 744.817 67.8504C732.132 76.3231 722.246 88.3656 716.408 102.455C710.57 116.545 709.042 132.049 712.019 147.006C714.995 161.963 722.341 175.703 733.128 186.486C743.915 197.27 757.659 204.614 772.622 207.589C787.584 210.564 803.093 209.037 817.187 203.201C831.282 197.365 843.328 187.482 851.804 174.802C860.279 162.121 864.803 147.213 864.803 131.963C864.78 111.52 856.646 91.9207 842.186 77.4652C827.726 63.0097 808.12 54.8785 787.67 54.8554Z" fill="white"/>
<path d="M1161.77 340.154C1145.75 340.154 1130.09 335.405 1116.77 326.509C1103.45 317.612 1093.07 304.968 1086.94 290.174C1080.81 275.38 1079.21 259.101 1082.33 243.395C1085.46 227.69 1093.17 213.264 1104.5 201.941C1115.82 190.618 1130.25 182.907 1145.97 179.783C1161.68 176.659 1177.96 178.263 1192.76 184.391C1207.56 190.518 1220.21 200.896 1229.11 214.21C1238.01 227.524 1242.76 243.178 1242.76 259.191C1242.73 280.656 1234.19 301.235 1219.01 316.413C1203.82 331.591 1183.24 340.129 1161.77 340.154ZM1161.77 182.083C1146.51 182.083 1131.6 186.605 1118.91 195.078C1106.23 203.551 1096.34 215.593 1090.5 229.683C1084.67 243.772 1083.14 259.276 1086.11 274.234C1089.09 289.191 1096.44 302.93 1107.22 313.714C1118.01 324.498 1131.76 331.841 1146.72 334.817C1161.68 337.792 1177.19 336.265 1191.28 330.429C1205.38 324.593 1217.42 314.71 1225.9 302.029C1234.38 289.349 1238.9 274.441 1238.9 259.191C1238.88 238.747 1230.74 219.148 1216.28 204.693C1201.82 190.237 1182.22 182.106 1161.77 182.083Z" fill="white"/>
<path d="M1505.01 534.85C1488.99 534.85 1473.33 530.102 1460.01 521.205C1446.7 512.309 1436.31 499.664 1430.18 484.87C1424.05 470.076 1422.45 453.797 1425.58 438.092C1428.7 422.387 1436.41 407.96 1447.74 396.638C1459.07 385.315 1473.5 377.604 1489.21 374.48C1504.92 371.356 1521.2 372.959 1536 379.087C1550.8 385.215 1563.45 395.592 1572.35 408.906C1581.25 422.221 1586 437.874 1586 453.887C1585.98 475.352 1577.43 495.931 1562.25 511.11C1547.07 526.288 1526.48 534.826 1505.01 534.85ZM1505.01 376.78C1489.75 376.78 1474.84 381.302 1462.16 389.774C1449.47 398.247 1439.59 410.29 1433.75 424.379C1427.91 438.469 1426.38 453.973 1429.36 468.93C1432.33 483.887 1439.68 497.627 1450.47 508.41C1461.26 519.194 1475 526.538 1489.96 529.513C1504.92 532.488 1520.43 530.961 1534.53 525.125C1548.62 519.289 1560.67 509.406 1569.14 496.726C1577.62 484.045 1582.14 469.138 1582.14 453.887C1582.12 433.444 1573.99 413.845 1559.53 399.389C1545.07 384.934 1525.46 376.803 1505.01 376.78Z" fill="white"/>
<path d="M482.992 233.162L492.634 231.235C492.634 231.235 484.535 240.295 482.992 240.873C482.848 242.798 482.848 244.731 482.992 246.656C464.48 326.077 396.217 290.993 396.217 290.993C421.092 291.571 423.213 281.355 423.213 281.355C408.751 279.234 405.858 269.788 405.858 269.788C407.156 270.473 408.661 270.654 410.084 270.299C411.507 269.943 412.749 269.075 413.572 267.861C397.952 263.813 400.073 248.584 400.073 248.584C402.857 250.593 406.111 251.854 409.522 252.246C407.787 250.126 393.131 232.584 402.002 223.524C402.002 223.524 412.8 242.801 441.147 244.536L443.075 244.15C442.747 242.762 442.618 241.334 442.69 239.909C442.69 234.541 444.823 229.393 448.62 225.597C452.417 221.801 457.567 219.668 462.937 219.668C476.436 219.668 479.328 227.379 479.328 227.379L488.97 221.596C488.777 221.596 487.813 231.235 482.992 233.162Z" fill="white"/>
<path d="M1098.77 1091.24L1119.99 1101.65L1170.23 1024.75L1138.9 1009.39L1098.77 1091.24Z" fill="#FFB8B8"/>
<path d="M1096.75 1081.66L1138.56 1102.15L1138.56 1102.15C1142.06 1103.86 1145.18 1106.25 1147.76 1109.17C1150.34 1112.1 1152.31 1115.5 1153.57 1119.18C1154.83 1122.87 1155.35 1126.77 1155.11 1130.65C1154.86 1134.54 1153.85 1138.34 1152.14 1141.84L1151.71 1142.7L1083.27 1109.16L1096.75 1081.66Z" fill="#2F2E41"/>
<path d="M1309.14 1127.5L1332.78 1127.5L1344.02 1036.35H1309.13L1309.14 1127.5Z" fill="#FFB8B8"/>
<path d="M1303.11 1112.08L1349.66 1112.08H1349.66C1353.56 1112.08 1357.42 1112.84 1361.02 1114.33C1364.62 1115.82 1367.89 1118.01 1370.64 1120.76C1373.4 1123.52 1375.59 1126.79 1377.08 1130.39C1378.57 1133.98 1379.34 1137.84 1379.33 1141.74V1142.7L1303.11 1142.7L1303.11 1112.08Z" fill="#2F2E41"/>
<path d="M1258.36 498.396C1284.51 498.396 1305.72 477.199 1305.72 451.05C1305.72 424.902 1284.51 403.704 1258.36 403.704C1232.2 403.704 1210.99 424.902 1210.99 451.05C1210.99 477.199 1232.2 498.396 1258.36 498.396Z" fill="#FFB8B8"/>
<path d="M1305.52 1097.44C1303.28 1097.44 1301.14 1096.57 1299.52 1095.03C1297.91 1093.48 1296.96 1091.37 1296.86 1089.14L1278.55 845.556C1278.53 844.918 1278.3 844.305 1277.89 843.812C1277.49 843.32 1276.93 842.975 1276.31 842.833C1275.68 842.69 1275.03 842.758 1274.45 843.025C1273.87 843.292 1273.39 843.744 1273.1 844.309L1155.99 1067.81C1154.92 1069.81 1153.12 1071.33 1150.96 1072.02C1148.8 1072.72 1146.45 1072.55 1144.42 1071.54L1111.77 1055.23C1109.72 1054.2 1108.17 1052.4 1107.44 1050.23C1106.71 1048.06 1106.86 1045.69 1107.87 1043.63L1177.75 902.075L1224.04 796.042C1241.9 760.863 1260.87 742.735 1282.04 740.62C1303.74 738.453 1326.93 753.375 1352.92 786.242L1353.14 786.511L1353.13 786.852L1349.28 1084.41C1349.28 1086.57 1348.48 1088.65 1347.02 1090.25C1345.56 1091.85 1343.56 1092.84 1341.41 1093.03L1306.37 1097.4C1306.08 1097.42 1305.8 1097.44 1305.52 1097.44Z" fill="#2F2E41"/>
<path d="M1208.37 813.166C1210.94 811.576 1213.14 809.441 1214.8 806.91C1216.47 804.38 1217.55 801.516 1217.99 798.52C1218.43 795.524 1218.2 792.469 1217.32 789.57C1216.45 786.671 1214.95 783.999 1212.93 781.742L1220.08 593.107L1185.37 597.431L1182.44 780.946C1178.87 784.586 1176.76 789.409 1176.51 794.5C1176.26 799.591 1177.89 804.597 1181.09 808.568C1184.28 812.54 1188.83 815.201 1193.85 816.049C1198.88 816.896 1204.05 815.87 1208.37 813.166Z" fill="#FFB8B8"/>
<path d="M1230.32 626.458L1183.71 621.162C1182.39 621.012 1181.11 620.577 1179.96 619.888C1178.82 619.199 1177.84 618.272 1177.09 617.17C1176.34 616.067 1175.83 614.816 1175.61 613.501C1175.38 612.186 1175.44 610.837 1175.79 609.548L1187.82 564.368C1188.63 557.589 1192.09 551.408 1197.46 547.18C1202.82 542.952 1209.64 541.022 1216.42 541.813C1223.2 542.603 1229.4 546.05 1233.64 551.398C1237.89 556.746 1239.84 563.558 1239.06 570.341L1240.66 616.917C1240.7 618.251 1240.46 619.578 1239.94 620.81C1239.43 622.041 1238.66 623.147 1237.68 624.052C1236.69 624.958 1235.53 625.641 1234.26 626.056C1232.99 626.471 1231.65 626.608 1230.32 626.457V626.458Z" fill="#6C63FF"/>
<path d="M1431.11 507.712C1430.88 508.752 1430.72 509.809 1430.65 510.874L1347.82 558.646L1327.68 547.058L1306.22 575.149L1339.87 599.125C1342.59 601.062 1345.86 602.065 1349.2 601.984C1352.53 601.902 1355.75 600.741 1358.38 598.674L1443.79 531.309C1447.65 532.736 1451.85 532.955 1455.83 531.938C1459.81 530.922 1463.39 528.717 1466.09 525.617C1468.79 522.518 1470.48 518.67 1470.94 514.587C1471.39 510.503 1470.6 506.377 1468.65 502.757C1466.71 499.137 1463.71 496.195 1460.05 494.322C1456.39 492.449 1452.25 491.734 1448.17 492.272C1444.1 492.809 1440.28 494.575 1437.23 497.333C1434.19 500.091 1432.05 503.711 1431.11 507.712Z" fill="#FFB8B8"/>
<path d="M1345.05 560.908L1318.28 595.595C1317.51 596.582 1316.55 597.393 1315.44 597.973C1314.34 598.554 1313.12 598.889 1311.88 598.957C1310.63 599.026 1309.39 598.825 1308.23 598.368C1307.07 597.912 1306.02 597.211 1305.15 596.313L1274.85 564.851C1269.81 560.928 1266.54 555.169 1265.75 548.838C1264.96 542.507 1266.72 536.12 1270.63 531.08C1274.54 526.04 1280.3 522.758 1286.63 521.954C1292.96 521.15 1299.35 522.889 1304.4 526.79L1342.41 548.039C1343.5 548.648 1344.45 549.484 1345.18 550.49C1345.92 551.497 1346.43 552.65 1346.68 553.871C1346.93 555.092 1346.91 556.353 1346.63 557.567C1346.35 558.782 1345.81 559.921 1345.05 560.908H1345.05Z" fill="#6C63FF"/>
<path d="M1366.89 800.993L1315.49 550.723C1313.05 538.828 1306.09 528.343 1296.07 521.47C1286.06 514.598 1273.77 511.873 1261.79 513.87L1244.64 516.726C1238.69 517.718 1232.99 519.872 1227.87 523.067C1222.75 526.262 1218.3 530.433 1214.79 535.344C1209.22 543.146 1205.46 552.098 1203.8 561.542C1202.14 570.986 1202.62 580.682 1205.2 589.917L1233.57 691.419L1212.52 800.164C1212.29 801.37 1212.34 802.615 1212.69 803.795C1213.03 804.974 1213.65 806.054 1214.5 806.945C1215.35 807.836 1216.39 808.511 1217.55 808.914C1218.71 809.318 1219.96 809.437 1221.17 809.264C1231.71 807.756 1249.09 805.604 1269.04 804.431L1279.85 762.744L1284.25 803.77C1308.77 803.084 1335.38 804.284 1357.33 809.986C1358.6 810.325 1359.93 810.334 1361.21 810.013C1362.48 809.692 1363.66 809.051 1364.61 808.15C1365.57 807.249 1366.28 806.119 1366.68 804.867C1367.08 803.615 1367.15 802.281 1366.89 800.993Z" fill="#6C63FF"/>
<path d="M1276.58 440.516C1288.75 448.845 1304.74 457.406 1317.17 448.537C1325.33 442.713 1327.9 431.929 1324.59 422.465C1318.64 405.446 1302.28 397.954 1286.64 392.211C1266.31 384.745 1244.17 378.805 1223.18 384.152C1202.19 389.499 1183.64 409.815 1187.43 431.135C1190.47 448.281 1206.65 462.547 1204.36 479.809C1202.04 497.181 1182.5 506.326 1165.25 509.431C1147.99 512.536 1128.68 513.533 1116.28 525.923C1100.47 541.727 1104.42 569.977 1119.3 586.663C1134.19 603.35 1156.65 610.914 1178.41 616.056C1207.25 622.869 1238.44 626.449 1265.83 615.142C1293.22 603.836 1314.53 573.4 1306.59 544.859C1303.24 532.804 1295.35 522.616 1287.72 512.697C1280.09 502.778 1272.36 492.406 1269.45 480.237C1267.03 470.096 1268.82 458.321 1275.55 450.714C1276.77 449.383 1277.54 447.698 1277.75 445.902C1277.96 444.106 1277.59 442.29 1276.7 440.717L1276.58 440.516Z" fill="#2F2E41"/>
<path d="M809.729 91.9108C815.124 91.927 820.293 94.0765 824.108 97.89C827.923 101.704 830.073 106.871 830.089 112.264V152.967C830.073 158.36 827.923 163.528 824.108 167.341C820.293 171.155 815.124 173.304 809.729 173.321H769.013C763.618 173.304 758.449 171.155 754.634 167.341C750.819 163.528 748.669 158.36 748.653 152.967V112.264C748.669 106.871 750.819 101.704 754.634 97.89C758.449 94.0765 763.618 91.9269 769.013 91.9108H809.729ZM809.729 83.7708H769.013C761.46 83.7927 754.223 86.8018 748.882 92.1406C743.542 97.4795 740.532 104.714 740.51 112.264V152.967C740.532 160.517 743.542 167.752 748.882 173.091C754.223 178.43 761.46 181.439 769.013 181.461H809.729C817.282 181.439 824.519 178.43 829.86 173.091C835.2 167.752 838.21 160.517 838.232 152.967V112.264C838.21 104.714 835.2 97.4795 829.86 92.1406C824.519 86.8018 817.282 83.7927 809.729 83.7708Z" fill="white"/>
<path d="M815.835 112.264C814.22 112.261 812.672 111.617 811.532 110.473C810.392 109.329 809.752 107.78 809.754 106.165C809.756 104.551 810.399 103.003 811.541 101.861C812.684 100.72 814.233 100.079 815.848 100.079C817.464 100.079 819.013 100.72 820.156 101.861C821.298 103.003 821.941 104.551 821.943 106.165C821.945 107.78 821.305 109.329 820.165 110.473C819.025 111.617 817.477 112.261 815.862 112.264C815.853 112.264 815.844 112.264 815.835 112.264Z" fill="white"/>
<path d="M789.37 116.333C792.592 116.333 795.741 117.288 798.419 119.077C801.098 120.866 803.185 123.409 804.418 126.385C805.651 129.36 805.973 132.634 805.345 135.792C804.716 138.951 803.165 141.852 800.887 144.129C798.609 146.406 795.707 147.957 792.548 148.585C789.388 149.213 786.113 148.891 783.137 147.659C780.161 146.426 777.617 144.339 775.827 141.662C774.038 138.984 773.082 135.836 773.082 132.616C773.082 128.297 774.798 124.156 777.853 121.102C780.907 118.049 785.05 116.333 789.37 116.333ZM789.37 108.193C784.538 108.193 779.815 109.625 775.797 112.309C771.78 114.993 768.648 118.807 766.799 123.269C764.95 127.732 764.466 132.643 765.409 137.38C766.352 142.118 768.678 146.469 772.095 149.885C775.512 153.3 779.865 155.626 784.604 156.569C789.343 157.511 794.255 157.027 798.719 155.179C803.183 153.331 806.999 150.2 809.683 146.184C812.368 142.168 813.801 137.446 813.801 132.616C813.801 126.138 811.227 119.926 806.645 115.346C802.064 110.766 795.85 108.193 789.37 108.193V108.193Z" fill="white"/>
<path d="M341.642 1118.42L318.631 1113L328.591 1021.7L362.553 1029.7L341.642 1118.42Z" fill="#FFB8B8"/>
<path d="M342.257 1142.1L268.061 1124.63L268.282 1123.69C269.175 1119.9 270.807 1116.32 273.083 1113.16C275.36 1110 278.237 1107.32 281.551 1105.27C284.864 1103.22 288.549 1101.84 292.395 1101.21C296.24 1100.59 300.172 1100.73 303.964 1101.62L303.966 1101.62L349.283 1112.29L342.257 1142.1Z" fill="#2F2E41"/>
<path d="M431.313 1119.19H407.672L396.426 1028.04L431.317 1028.04L431.313 1119.19Z" fill="#FFB8B8"/>
<path d="M437.343 1142.1L361.115 1142.1V1141.14C361.115 1137.24 361.883 1133.38 363.374 1129.78C364.865 1126.19 367.05 1122.92 369.805 1120.16C372.56 1117.41 375.831 1115.22 379.431 1113.73C383.031 1112.24 386.889 1111.48 390.785 1111.48H390.787L437.345 1111.48L437.343 1142.1Z" fill="#2F2E41"/>
<path d="M558.996 758.686C560.579 756.105 561.578 753.209 561.921 750.201C562.264 747.193 561.942 744.146 560.98 741.276C560.018 738.405 558.437 735.781 556.351 733.587C554.264 731.393 551.721 729.683 548.902 728.577L479.686 553.113L441.176 576.483L521.322 741.61C519.779 746.468 520.071 751.723 522.145 756.38C524.218 761.036 527.928 764.771 532.572 766.876C537.216 768.98 542.47 769.309 547.341 767.8C552.211 766.29 556.358 763.047 558.996 758.686Z" fill="#FFB8B8"/>
<path d="M494.395 582.131L450.4 598.411C449.149 598.874 447.812 599.062 446.481 598.962C445.149 598.862 443.856 598.477 442.687 597.832C441.518 597.187 440.503 596.298 439.709 595.225C438.915 594.153 438.362 592.922 438.087 591.616L428.454 545.864C426.12 539.448 426.426 532.369 429.305 526.179C432.184 519.989 437.401 515.192 443.812 512.841C450.224 510.49 457.306 510.776 463.506 513.637C469.707 516.498 474.519 521.699 476.889 528.102L499.315 568.959C499.957 570.129 500.339 571.423 500.435 572.754C500.531 574.085 500.339 575.421 499.872 576.671C499.405 577.921 498.674 579.056 497.729 579.998C496.784 580.94 495.647 581.668 494.395 582.131V582.131Z" fill="#6C63FF"/>
<path d="M429.742 1086.47C429.627 1086.47 429.511 1086.47 429.395 1086.46L395.885 1085.12C393.621 1085.05 391.477 1084.08 389.919 1082.44C388.36 1080.79 387.511 1078.6 387.556 1076.34L390.127 891.277C390.137 890.533 389.86 889.813 389.354 889.268C388.847 888.722 388.149 888.393 387.406 888.349C386.663 888.305 385.931 888.549 385.363 889.031C384.795 889.512 384.435 890.194 384.358 890.935L364.918 1076.2C364.716 1078.08 363.903 1079.85 362.603 1081.23C361.302 1082.61 359.586 1083.53 357.715 1083.85L357.599 1083.87L326.14 1081.4C324.9 1081.58 323.634 1081.5 322.429 1081.15C321.224 1080.81 320.108 1080.2 319.159 1079.38C318.21 1078.56 317.45 1077.55 316.932 1076.41C316.414 1075.26 316.149 1074.02 316.156 1072.77L318.037 758.982L472.402 768.748L438.367 1078.74C438.128 1080.86 437.117 1082.82 435.527 1084.25C433.936 1085.67 431.878 1086.46 429.742 1086.47Z" fill="#2F2E41"/>
<path d="M401.528 485.058C427.685 485.058 448.89 463.861 448.89 437.712C448.89 411.564 427.685 390.366 401.528 390.366C375.371 390.366 354.166 411.564 354.166 437.712C354.166 463.861 375.371 485.058 401.528 485.058Z" fill="#FFB8B8"/>
<path d="M464.727 782.564C464.509 782.564 464.291 782.557 464.071 782.542L321.406 772.107C319.188 771.945 317.117 770.939 315.621 769.295C314.124 767.651 313.316 765.495 313.363 763.272L317.125 584.182C316.873 573.193 318.866 562.269 322.984 552.077C327.101 541.885 333.256 532.64 341.071 524.909C348.886 517.177 358.197 511.121 368.434 507.111C378.672 503.1 389.62 501.221 400.609 501.587C411.598 501.953 422.397 504.557 432.345 509.239C442.292 513.921 451.18 520.583 458.463 528.818C465.745 537.052 471.271 546.686 474.701 557.129C478.131 567.572 479.393 578.605 478.41 589.552C475.915 617.154 473.931 737.734 473.382 774.033C473.347 776.305 472.42 778.473 470.801 780.069C469.182 781.665 467 782.561 464.727 782.564Z" fill="#6C63FF"/>
<path d="M210.486 490.883C210.723 491.923 210.877 492.98 210.948 494.044L293.784 541.816L313.918 530.229L335.383 558.32L301.733 582.296C299.014 584.233 295.741 585.236 292.404 585.154C289.066 585.073 285.845 583.912 283.224 581.845L197.806 514.48C193.951 515.907 189.753 516.126 185.77 515.109C181.788 514.093 178.209 511.888 175.51 508.788C172.812 505.689 171.121 501.841 170.663 497.758C170.205 493.674 171.002 489.548 172.947 485.928C174.892 482.308 177.894 479.366 181.553 477.493C185.211 475.62 189.354 474.905 193.429 475.442C197.504 475.98 201.319 477.746 204.366 480.504C207.413 483.262 209.547 486.882 210.486 490.883Z" fill="#FFB8B8"/>
<path d="M294.921 537.041C295.17 535.82 295.68 534.667 296.416 533.66C297.152 532.654 298.097 531.818 299.185 531.21L337.198 509.961C342.249 506.067 348.638 504.333 354.965 505.14C361.293 505.947 367.042 509.228 370.953 514.265C374.864 519.302 376.618 525.684 375.831 532.011C375.044 538.339 371.779 544.096 366.753 548.022L336.445 579.484C335.58 580.382 334.531 581.083 333.371 581.539C332.21 581.995 330.965 582.196 329.72 582.128C328.475 582.06 327.259 581.724 326.156 581.144C325.052 580.564 324.086 579.753 323.325 578.766L296.552 544.079C295.79 543.092 295.249 541.953 294.968 540.738C294.686 539.523 294.67 538.262 294.921 537.041Z" fill="#6C63FF"/>
<path d="M426.003 475.196C418.714 475.141 411.557 473.242 405.201 469.674C398.845 466.106 393.498 460.986 389.657 454.793C389.24 454.14 386.96 450.793 384.321 446.918C376.903 436.03 375.164 433.439 375.017 433.059C373.009 427.882 366.638 425.883 361.647 425.117C360.716 424.974 359.771 424.848 358.823 424.72C351.794 423.778 344.525 422.805 340.54 415.081C337.616 409.413 332.835 386.332 336.507 380.692C341.11 373.617 349.949 375.914 358.497 378.137C363.966 379.556 369.621 381.027 374.127 380.089C393.66 376.027 415.798 371.422 435.35 383.325C450.91 392.796 460.27 410.684 459.776 430.008C459.245 450.759 450.192 467.138 435.558 473.825L432.512 474.712L430.798 474.923C429.206 475.104 427.605 475.195 426.003 475.196Z" fill="#2F2E41"/>
<path d="M1507.85 401.452C1495.65 401.453 1483.83 405.649 1474.36 413.335C1464.9 421.022 1458.36 431.73 1455.86 443.663C1453.36 455.595 1455.05 468.023 1460.63 478.861C1466.22 489.699 1475.36 498.286 1486.53 503.179C1486.31 499.095 1486.62 495 1487.46 490.996C1488.48 486.683 1494.28 462.057 1494.28 462.057C1493.12 459.413 1492.54 456.553 1492.58 453.666C1492.58 445.797 1497.13 439.919 1502.82 439.919C1507.66 439.919 1509.98 443.546 1509.98 447.883C1509.98 452.742 1506.87 459.995 1505.29 466.726C1504.97 467.973 1504.95 469.277 1505.23 470.532C1505.51 471.788 1506.08 472.96 1506.9 473.954C1507.72 474.949 1508.75 475.737 1509.93 476.256C1511.11 476.775 1512.39 477.009 1513.68 476.941C1523.73 476.941 1530.51 464.024 1530.51 448.713C1530.51 437.075 1522.66 428.377 1508.41 428.377C1492.32 428.377 1482.26 440.393 1482.26 453.809C1482.11 457.591 1483.36 461.299 1485.77 464.214C1486.2 464.563 1486.5 465.039 1486.63 465.571C1486.77 466.104 1486.73 466.666 1486.53 467.176C1486.27 468.148 1485.7 470.495 1485.44 471.443C1485.39 471.729 1485.28 472.001 1485.11 472.235C1484.94 472.469 1484.71 472.659 1484.45 472.789C1484.19 472.919 1483.91 472.985 1483.62 472.981C1483.33 472.978 1483.04 472.906 1482.78 472.77C1475.36 469.736 1471.9 461.63 1471.9 452.481C1471.9 437.407 1484.63 419.323 1509.86 419.323C1530.13 419.323 1543.48 433.994 1543.48 449.732C1543.48 470.566 1531.89 486.114 1514.82 486.114C1509.08 486.114 1503.7 483.009 1501.85 479.501C1501.85 479.501 1498.77 491.731 1498.1 494.101C1496.87 498.128 1495.08 501.96 1492.77 505.478C1500.07 507.635 1507.75 508.196 1515.3 507.124C1522.84 506.051 1530.06 503.37 1536.47 499.262C1542.88 495.154 1548.34 489.716 1552.46 483.316C1556.59 476.915 1559.29 469.703 1560.38 462.167C1561.47 454.632 1560.93 446.95 1558.79 439.642C1556.66 432.335 1552.97 425.572 1547.99 419.813C1543 414.055 1536.84 409.435 1529.91 406.267C1522.99 403.098 1515.46 401.456 1507.85 401.452Z" fill="white"/>
<path d="M1208.77 227.32L1140.46 206.31C1139.6 205.998 1138.68 205.859 1137.76 205.902C1136.84 205.945 1135.94 206.169 1135.11 206.561C1134.28 206.954 1133.53 207.506 1132.91 208.188C1132.29 208.869 1131.82 209.666 1131.51 210.532L1110.44 278.971C1109.93 280.827 1110.14 282.811 1111.04 284.515C1111.94 286.219 1113.46 287.514 1115.28 288.133L1183.57 309.136C1185.39 309.618 1187.32 309.365 1188.96 308.43C1190.59 307.496 1191.79 305.956 1192.29 304.144L1213.36 235.705C1213.63 234.854 1213.74 233.955 1213.65 233.064C1213.57 232.173 1213.31 231.308 1212.88 230.522C1212.45 229.737 1211.86 229.048 1211.16 228.497C1210.45 227.946 1209.64 227.545 1208.77 227.32ZM1137.85 280.166L1126.12 276.56L1137.34 240.114L1149.07 243.72L1137.85 280.166ZM1145.31 236.5L1145.23 236.475C1143.55 235.945 1142.14 234.769 1141.32 233.206C1140.51 231.642 1140.34 229.818 1140.87 228.133C1141.39 226.448 1142.56 225.04 1144.12 224.217C1145.68 223.394 1147.51 223.223 1149.19 223.742C1150.88 224.26 1152.29 225.427 1153.12 226.985C1153.95 228.543 1154.13 230.366 1153.62 232.054C1153.1 233.742 1151.94 235.158 1150.38 235.992C1148.83 236.825 1147.01 237.008 1145.31 236.5ZM1180.7 293.346L1168.98 289.74L1175.11 269.812C1176.58 265.038 1175.88 261.251 1171.64 259.946C1170.31 259.549 1168.89 259.573 1167.57 260.017C1166.25 260.461 1165.11 261.302 1164.29 262.424C1163.69 263.254 1163.26 264.187 1163 265.177L1156.61 285.936L1144.89 282.33L1156.1 245.884L1167.83 249.49L1166.27 254.562C1167.9 253.045 1169.92 251.995 1172.1 251.525C1174.28 251.055 1176.55 251.181 1178.67 251.89C1186.36 254.257 1190.62 261.12 1187.26 272.054L1180.7 293.346Z" fill="white"/>
<path fill-rule="evenodd" clip-rule="evenodd" d="M161.841 515.891C161.839 505.777 158.938 495.875 153.482 487.357C148.025 478.84 140.242 472.064 131.053 467.831C121.864 463.599 111.654 462.087 101.632 463.474C91.6102 464.862 82.1959 469.091 74.5036 475.661C66.8113 482.231 61.1633 490.867 58.2281 500.546C55.2929 510.225 55.1935 520.543 57.9416 530.277C60.6898 540.011 66.1704 548.754 73.7346 555.471C81.2989 562.188 90.63 566.597 100.623 568.178V531.195H87.1768V515.891H100.623V504.228C100.623 490.966 108.53 483.634 120.622 483.634C124.593 483.689 128.555 484.035 132.475 484.669V497.695H125.796C119.222 497.695 117.166 501.773 117.166 505.965V515.893H131.849L129.504 531.197H117.166V568.182C129.621 566.21 140.963 559.86 149.153 550.275C157.342 540.689 161.841 528.497 161.841 515.891L161.841 515.891Z" fill="white"/>
</g>
<defs>
<clipPath id="clip0">
<rect width="1559" height="1093" fill="white" transform="translate(27 51)"/>
</clipPath>
</defs>
</svg>
