<svg width="1611" height="1186" viewBox="0 0 1611 1186" fill="none" xmlns="http://www.w3.org/2000/svg">
<rect x="11" y="2" width="1600" height="1200" fill="#FBBC04"/>
<path opacity="0.1" d="M936.004 177.836C832.729 174.256 734.358 140.882 640.436 104.399C546.513 67.9162 453.46 27.4825 352.665 8.14273C287.826 -4.29404 213.677 -6.01978 161.441 28.7233C111.158 62.1828 94.9196 120.002 86.1945 173.557C79.6222 213.891 75.7587 256.279 93.7506 294.089C106.254 320.289 128.451 342.324 143.806 367.426C197.197 454.797 159.488 562.52 101.577 647.809C74.4899 687.829 42.9399 725.995 21.9969 768.597C1.05392 811.199 -8.6406 859.99 9.67918 903.433C27.8564 946.506 71.1395 978.853 118.03 1001.6C213.278 1047.81 325.521 1061.05 434.969 1068.53C677.26 1085.05 920.835 1077.92 1163.75 1070.79C1253.66 1068.12 1343.94 1065.43 1432.39 1051.52C1481.49 1043.8 1532.19 1031.55 1567.83 1001.96C1613.09 964.391 1624.31 900.78 1593.98 853.629C1543.11 774.63 1402.44 755.005 1366.88 670.215C1347.31 623.549 1367.41 571.563 1395.85 528.276C1456.87 435.414 1559.15 353.962 1564.54 247.822C1568.24 174.927 1519.07 101.918 1443.06 67.4313C1363.36 31.2763 1252.87 35.826 1194.08 95.6708C1133.57 157.298 1027.19 181.002 936.004 177.836Z" fill="#EA4335"/>
<path d="M946.897 1078.08L668.893 1074.51L669.705 1067.38L683.149 949.716H927.294L945.257 1067.38L946.626 1076.29L946.897 1078.08Z" fill="#D0D2D5"/>
<path opacity="0.1" d="M946.626 1076.29H807.895L668.893 1074.51L669.705 1067.38H945.257L946.626 1076.29Z" fill="black"/>
<path d="M991.449 1069.16H622.559V1078.08H991.449V1069.16Z" fill="#D0D2D5"/>
<path d="M1343.4 242.988C1343.42 239.94 1342.83 236.92 1341.68 234.099C1340.53 231.278 1338.83 228.711 1336.69 226.546C1334.55 224.38 1332 222.659 1329.19 221.479C1326.38 220.299 1323.37 219.684 1320.32 219.669H290.123C287.076 219.682 284.061 220.295 281.251 221.475C278.441 222.654 275.891 224.375 273.746 226.541C271.601 228.706 269.904 231.273 268.751 234.096C267.598 236.918 267.013 239.939 267.028 242.988V867.679H1343.4V242.988Z" fill="#444053"/>
<path d="M267.027 861.474V934.64C267.027 940.768 269.461 946.645 273.792 950.978C278.123 955.311 283.998 957.745 290.123 957.745H1320.32C1326.44 957.742 1332.32 955.306 1336.64 950.973C1340.97 946.64 1343.4 940.766 1343.4 934.64V861.474H267.027Z" fill="#D0D2D5"/>
<path opacity="0.1" d="M1304.2 258.89H311.578V820.47H1304.2V258.89Z" fill="black"/>
<path d="M810.56 929.977C814.205 929.979 817.803 929.153 821.083 927.562C824.362 925.971 827.238 923.656 829.493 920.792C830.177 919.917 830.801 918.998 831.361 918.039L818.159 915.871L832.416 915.985C833.791 913.004 834.541 909.773 834.619 906.491C834.698 903.209 834.103 899.946 832.872 896.902L813.726 906.886L831.389 893.907C829.73 891.059 827.503 888.583 824.847 886.631C822.191 884.68 819.162 883.296 815.949 882.564C812.736 881.833 809.407 881.77 806.168 882.379C802.93 882.988 799.851 884.256 797.122 886.105C794.394 887.954 792.075 890.344 790.308 893.127C788.542 895.91 787.366 899.026 786.853 902.283C786.341 905.539 786.503 908.866 787.329 912.058C788.155 915.249 789.628 918.236 791.656 920.834C793.911 923.689 796.784 925.995 800.058 927.578C803.333 929.162 806.924 929.982 810.56 929.977Z" fill="black"/>
<path opacity="0.1" d="M834.627 957.745L945.529 1069.16L928.521 957.745H834.627Z" fill="black"/>
<path d="M988.556 360.21H344.441C342.394 360.21 340.734 361.87 340.734 363.918V747.29C340.734 749.338 342.394 750.998 344.441 750.998H988.556C990.603 750.998 992.263 749.338 992.263 747.29V363.918C992.263 361.87 990.603 360.21 988.556 360.21Z" fill="white"/>
<path d="M1304.48 258.947H312.221V291.751H1304.48V258.947Z" fill="white"/>
<path d="M343.899 264.652H317.61C316.996 264.652 316.498 265.15 316.498 265.765V283.507C316.498 284.121 316.996 284.62 317.61 284.62H343.899C344.513 284.62 345.011 284.121 345.011 283.507V265.765C345.011 265.15 344.513 264.652 343.899 264.652Z" fill="#EA4335"/>
<path opacity="0.3" d="M954.367 264.652H656.632C656.175 264.652 655.805 265.023 655.805 265.479V283.792C655.805 284.249 656.175 284.62 656.632 284.62H954.367C954.824 284.62 955.194 284.249 955.194 283.792V265.479C955.194 265.023 954.824 264.652 954.367 264.652Z" fill="#EA4335"/>
<path d="M946.312 276.69H945.585L945.314 276.461C946.229 275.375 946.734 274.002 946.74 272.582C946.731 271.415 946.378 270.278 945.723 269.312C945.069 268.346 944.144 267.596 943.064 267.156C941.983 266.716 940.797 266.606 939.655 266.84C938.512 267.074 937.465 267.641 936.644 268.47C935.824 269.299 935.267 270.352 935.044 271.497C934.821 272.642 934.943 273.828 935.393 274.904C935.843 275.98 936.602 276.899 937.573 277.544C938.545 278.189 939.686 278.532 940.852 278.529C942.271 278.521 943.643 278.016 944.73 277.103L945 277.331V278.073L949.563 282.637L950.988 281.211L946.312 276.69ZM940.838 276.69C940.022 276.692 939.223 276.453 938.543 276.001C937.864 275.549 937.333 274.905 937.02 274.152C936.706 273.398 936.623 272.568 936.782 271.767C936.94 270.966 937.333 270.231 937.91 269.653C938.487 269.076 939.223 268.683 940.023 268.524C940.824 268.366 941.653 268.449 942.407 268.762C943.16 269.076 943.803 269.607 944.255 270.287C944.707 270.967 944.946 271.766 944.943 272.582C944.947 273.123 944.844 273.658 944.639 274.158C944.434 274.658 944.131 275.113 943.749 275.495C943.367 275.877 942.913 276.18 942.413 276.385C941.913 276.59 941.378 276.693 940.838 276.69Z" fill="#444053"/>
<path d="M1290.23 284.62C1295.74 284.62 1300.21 280.15 1300.21 274.636C1300.21 269.122 1295.74 264.652 1290.23 264.652C1284.71 264.652 1280.25 269.122 1280.25 274.636C1280.25 280.15 1284.71 284.62 1290.23 284.62Z" fill="#EA4335"/>
<path d="M1128.51 327.406H1042.77C1040.86 327.406 1039.31 328.958 1039.31 330.872V386.695C1039.31 388.609 1040.86 390.161 1042.77 390.161H1128.51C1130.43 390.161 1131.98 388.609 1131.98 386.695V330.872C1131.98 328.958 1130.43 327.406 1128.51 327.406Z" fill="white"/>
<path d="M1275.1 327.406H1157.08C1156.6 327.406 1156.21 327.796 1156.21 328.276V336.52C1156.21 337.001 1156.6 337.39 1157.08 337.39H1275.1C1275.58 337.39 1275.97 337.001 1275.97 336.52V328.276C1275.97 327.796 1275.58 327.406 1275.1 327.406Z" fill="white"/>
<path d="M1275.1 348.8H1157.08C1156.6 348.8 1156.21 349.19 1156.21 349.67V357.914C1156.21 358.394 1156.6 358.784 1157.08 358.784H1275.1C1275.58 358.784 1275.97 358.394 1275.97 357.914V349.67C1275.97 349.19 1275.58 348.8 1275.1 348.8Z" fill="white"/>
<path d="M1275.1 370.194H1157.08C1156.6 370.194 1156.21 370.583 1156.21 371.064V379.307C1156.21 379.788 1156.6 380.177 1157.08 380.177H1275.1C1275.58 380.177 1275.97 379.788 1275.97 379.307V371.064C1275.97 370.583 1275.58 370.194 1275.1 370.194Z" fill="white"/>
<path d="M1128.51 425.817H1042.77C1040.86 425.817 1039.31 427.368 1039.31 429.282V485.105C1039.31 487.019 1040.86 488.571 1042.77 488.571H1128.51C1130.43 488.571 1131.98 487.019 1131.98 485.105V429.282C1131.98 427.368 1130.43 425.817 1128.51 425.817Z" fill="white"/>
<path d="M1275.1 425.817H1157.08C1156.6 425.817 1156.21 426.206 1156.21 426.687V434.93C1156.21 435.411 1156.6 435.8 1157.08 435.8H1275.1C1275.58 435.8 1275.97 435.411 1275.97 434.93V426.687C1275.97 426.206 1275.58 425.817 1275.1 425.817Z" fill="white"/>
<path d="M1275.1 447.21H1157.08C1156.6 447.21 1156.21 447.6 1156.21 448.08V456.324C1156.21 456.804 1156.6 457.194 1157.08 457.194H1275.1C1275.58 457.194 1275.97 456.804 1275.97 456.324V448.08C1275.97 447.6 1275.58 447.21 1275.1 447.21Z" fill="white"/>
<path d="M1275.03 468.604H1157.15C1156.63 468.604 1156.21 469.025 1156.21 469.545V477.646C1156.21 478.166 1156.63 478.587 1157.15 478.587H1275.03C1275.55 478.587 1275.97 478.166 1275.97 477.646V469.545C1275.97 469.025 1275.55 468.604 1275.03 468.604Z" fill="white"/>
<path d="M1128.51 524.227H1042.77C1040.86 524.227 1039.31 525.779 1039.31 527.693V583.516C1039.31 585.43 1040.86 586.981 1042.77 586.981H1128.51C1130.43 586.981 1131.98 585.43 1131.98 583.516V527.693C1131.98 525.779 1130.43 524.227 1128.51 524.227Z" fill="white"/>
<path d="M1275.03 524.227H1157.15C1156.63 524.227 1156.21 524.648 1156.21 525.168V533.269C1156.21 533.789 1156.63 534.211 1157.15 534.211H1275.03C1275.55 534.211 1275.97 533.789 1275.97 533.269V525.168C1275.97 524.648 1275.55 524.227 1275.03 524.227Z" fill="white"/>
<path d="M1275.03 545.62H1157.15C1156.63 545.62 1156.21 546.042 1156.21 546.562V554.663C1156.21 555.183 1156.63 555.604 1157.15 555.604H1275.03C1275.55 555.604 1275.97 555.183 1275.97 554.663V546.562C1275.97 546.042 1275.55 545.62 1275.03 545.62Z" fill="white"/>
<path d="M1275.03 567.014H1157.15C1156.63 567.014 1156.21 567.435 1156.21 567.955V576.056C1156.21 576.576 1156.63 576.998 1157.15 576.998H1275.03C1275.55 576.998 1275.97 576.576 1275.97 576.056V567.955C1275.97 567.435 1275.55 567.014 1275.03 567.014Z" fill="white"/>
<path d="M1128.51 622.637H1042.77C1040.86 622.637 1039.31 624.189 1039.31 626.103V681.926C1039.31 683.84 1040.86 685.392 1042.77 685.392H1128.51C1130.43 685.392 1131.98 683.84 1131.98 681.926V626.103C1131.98 624.189 1130.43 622.637 1128.51 622.637Z" fill="white"/>
<path d="M1275.03 622.637H1157.15C1156.63 622.637 1156.21 623.059 1156.21 623.579V631.68C1156.21 632.199 1156.63 632.621 1157.15 632.621H1275.03C1275.55 632.621 1275.97 632.199 1275.97 631.68V623.579C1275.97 623.059 1275.55 622.637 1275.03 622.637Z" fill="white"/>
<path d="M1275.03 644.031H1157.15C1156.63 644.031 1156.21 644.452 1156.21 644.972V653.073C1156.21 653.593 1156.63 654.014 1157.15 654.014H1275.03C1275.55 654.014 1275.97 653.593 1275.97 653.073V644.972C1275.97 644.452 1275.55 644.031 1275.03 644.031Z" fill="white"/>
<path d="M1275.03 665.424H1157.15C1156.63 665.424 1156.21 665.846 1156.21 666.366V674.467C1156.21 674.987 1156.63 675.408 1157.15 675.408H1275.03C1275.55 675.408 1275.97 674.987 1275.97 674.467V666.366C1275.97 665.846 1275.55 665.424 1275.03 665.424Z" fill="white"/>
<path d="M1128.51 721.047H1042.77C1040.86 721.047 1039.31 722.599 1039.31 724.513V780.336C1039.31 782.25 1040.86 783.802 1042.77 783.802H1128.51C1130.43 783.802 1131.98 782.25 1131.98 780.336V724.513C1131.98 722.599 1130.43 721.047 1128.51 721.047Z" fill="white"/>
<path d="M1275.03 721.047H1157.15C1156.63 721.047 1156.21 721.469 1156.21 721.989V730.09C1156.21 730.61 1156.63 731.031 1157.15 731.031H1275.03C1275.55 731.031 1275.97 730.61 1275.97 730.09V721.989C1275.97 721.469 1275.55 721.047 1275.03 721.047Z" fill="white"/>
<path d="M1275.03 742.441H1157.15C1156.63 742.441 1156.21 742.862 1156.21 743.382V751.483C1156.21 752.003 1156.63 752.425 1157.15 752.425H1275.03C1275.55 752.425 1275.97 752.003 1275.97 751.483V743.382C1275.97 742.862 1275.55 742.441 1275.03 742.441Z" fill="white"/>
<path d="M1275.03 763.834H1157.15C1156.63 763.834 1156.21 764.256 1156.21 764.776V772.877C1156.21 773.397 1156.63 773.818 1157.15 773.818H1275.03C1275.55 773.818 1275.97 773.397 1275.97 772.877V764.776C1275.97 764.256 1275.55 763.834 1275.03 763.834Z" fill="white"/>
<path opacity="0.1" d="M581.314 463.769H434.713V471.371H581.314V463.769Z" fill="#EA4335"/>
<path opacity="0.1" d="M461.858 423.578H447.744V463.769H461.858V423.578Z" fill="#EA4335"/>
<path opacity="0.1" d="M482.487 423.578H468.373V463.769H482.487V423.578Z" fill="#EA4335"/>
<path opacity="0.1" d="M503.116 423.578H489.002V463.769H503.116V423.578Z" fill="#EA4335"/>
<path opacity="0.1" d="M523.747 423.578H509.633V463.769H523.747V423.578Z" fill="#EA4335"/>
<path opacity="0.1" d="M544.376 423.578H530.262V463.769H544.376V423.578Z" fill="#EA4335"/>
<path opacity="0.1" d="M565.018 423.578H550.904V463.769H565.018V423.578Z" fill="#EA4335"/>
<path opacity="0.1" d="M461.858 431.179H447.744V435.529H461.858V431.179Z" fill="#EA4335"/>
<path opacity="0.1" d="M482.487 431.179H468.373V435.529H482.487V431.179Z" fill="#EA4335"/>
<path opacity="0.1" d="M503.116 431.179H489.002V435.529H503.116V431.179Z" fill="#EA4335"/>
<path opacity="0.1" d="M523.747 431.179H509.633V435.529H523.747V431.179Z" fill="#EA4335"/>
<path opacity="0.1" d="M544.376 431.179H530.262V435.529H544.376V431.179Z" fill="#EA4335"/>
<path opacity="0.1" d="M565.018 431.179H550.904V435.529H565.018V431.179Z" fill="#EA4335"/>
<path opacity="0.1" d="M461.858 450.733H447.744V455.083H461.858V450.733Z" fill="#EA4335"/>
<path opacity="0.1" d="M482.487 450.733H468.373V455.083H482.487V450.733Z" fill="#EA4335"/>
<path opacity="0.1" d="M503.116 450.733H489.002V455.083H503.116V450.733Z" fill="#EA4335"/>
<path opacity="0.1" d="M523.747 450.733H509.633V455.083H523.747V450.733Z" fill="#EA4335"/>
<path opacity="0.1" d="M544.376 450.733H530.262V455.083H544.376V450.733Z" fill="#EA4335"/>
<path opacity="0.1" d="M565.018 450.733H550.904V455.083H565.018V450.733Z" fill="#EA4335"/>
<path opacity="0.1" d="M902.73 483.323H756.129V490.924H902.73V483.323Z" fill="#EA4335"/>
<path opacity="0.1" d="M783.274 443.131H769.16V483.323H783.274V443.131Z" fill="#EA4335"/>
<path opacity="0.1" d="M803.903 443.131H789.789V483.323H803.903V443.131Z" fill="#EA4335"/>
<path opacity="0.1" d="M824.532 443.131H810.418V483.323H824.532V443.131Z" fill="#EA4335"/>
<path opacity="0.1" d="M845.177 443.131H831.062V483.323H845.177V443.131Z" fill="#EA4335"/>
<path opacity="0.1" d="M865.805 443.131H851.691V483.323H865.805V443.131Z" fill="#EA4335"/>
<path opacity="0.1" d="M886.434 443.131H872.32V483.323H886.434V443.131Z" fill="#EA4335"/>
<path opacity="0.1" d="M783.274 450.733H769.16V455.083H783.274V450.733Z" fill="#EA4335"/>
<path opacity="0.1" d="M803.903 450.733H789.789V455.083H803.903V450.733Z" fill="#EA4335"/>
<path opacity="0.1" d="M824.532 450.733H810.418V455.083H824.532V450.733Z" fill="#EA4335"/>
<path opacity="0.1" d="M845.177 450.733H831.062V455.083H845.177V450.733Z" fill="#EA4335"/>
<path opacity="0.1" d="M865.805 450.733H851.691V455.083H865.805V450.733Z" fill="#EA4335"/>
<path opacity="0.1" d="M886.434 450.733H872.32V455.083H886.434V450.733Z" fill="#EA4335"/>
<path opacity="0.1" d="M783.274 470.287H769.16V474.637H783.274V470.287Z" fill="#EA4335"/>
<path opacity="0.1" d="M803.903 470.287H789.789V474.637H803.903V470.287Z" fill="#EA4335"/>
<path opacity="0.1" d="M824.532 470.287H810.418V474.637H824.532V470.287Z" fill="#EA4335"/>
<path opacity="0.1" d="M845.177 470.287H831.062V474.637H845.177V470.287Z" fill="#EA4335"/>
<path opacity="0.1" d="M865.805 470.287H851.691V474.637H865.805V470.287Z" fill="#EA4335"/>
<path opacity="0.1" d="M886.434 470.287H872.32V474.637H886.434V470.287Z" fill="#EA4335"/>
<path opacity="0.1" d="M902.73 538.718H756.129V546.319H902.73V538.718Z" fill="#EA4335"/>
<path opacity="0.1" d="M783.274 498.526H769.16V538.718H783.274V498.526Z" fill="#EA4335"/>
<path opacity="0.1" d="M803.903 498.526H789.789V538.718H803.903V498.526Z" fill="#EA4335"/>
<path opacity="0.1" d="M824.532 498.526H810.418V538.718H824.532V498.526Z" fill="#EA4335"/>
<path opacity="0.1" d="M845.177 498.526H831.062V538.718H845.177V498.526Z" fill="#EA4335"/>
<path opacity="0.1" d="M865.805 498.526H851.691V538.718H865.805V498.526Z" fill="#EA4335"/>
<path opacity="0.1" d="M886.434 498.526H872.32V538.718H886.434V498.526Z" fill="#EA4335"/>
<path opacity="0.1" d="M783.274 506.128H769.16V510.478H783.274V506.128Z" fill="#EA4335"/>
<path opacity="0.1" d="M803.903 506.128H789.789V510.478H803.903V506.128Z" fill="#EA4335"/>
<path opacity="0.1" d="M824.532 506.128H810.418V510.478H824.532V506.128Z" fill="#EA4335"/>
<path opacity="0.1" d="M845.177 506.128H831.062V510.478H845.177V506.128Z" fill="#EA4335"/>
<path opacity="0.1" d="M865.805 506.128H851.691V510.478H865.805V506.128Z" fill="#EA4335"/>
<path opacity="0.1" d="M886.434 506.128H872.32V510.478H886.434V506.128Z" fill="#EA4335"/>
<path opacity="0.1" d="M783.274 525.682H769.16V530.032H783.274V525.682Z" fill="#EA4335"/>
<path opacity="0.1" d="M803.903 525.682H789.789V530.032H803.903V525.682Z" fill="#EA4335"/>
<path opacity="0.1" d="M824.532 525.682H810.418V530.032H824.532V525.682Z" fill="#EA4335"/>
<path opacity="0.1" d="M845.177 525.682H831.062V530.032H845.177V525.682Z" fill="#EA4335"/>
<path opacity="0.1" d="M865.805 525.682H851.691V530.032H865.805V525.682Z" fill="#EA4335"/>
<path opacity="0.1" d="M886.434 525.682H872.32V530.032H886.434V525.682Z" fill="#EA4335"/>
<path opacity="0.1" d="M524.644 549.728C523.55 548.326 522.55 546.854 521.65 545.321L542.764 541.855L519.953 542.026C517.765 537.261 516.571 532.099 516.444 526.856C516.316 521.614 517.258 516.4 519.212 511.533L549.793 527.393L521.55 506.627C524.178 502.015 527.73 497.997 531.983 494.824C536.237 491.651 541.101 489.392 546.269 488.189C551.437 486.986 556.798 486.865 562.015 487.833C567.232 488.802 572.192 490.839 576.585 493.816C580.978 496.794 584.707 500.648 587.54 505.136C590.373 509.624 592.248 514.65 593.047 519.898C593.846 525.146 593.551 530.502 592.182 535.63C590.813 540.759 588.399 545.549 585.092 549.7C586.811 551.869 588.283 554.222 589.483 556.717L562.082 570.979L591.294 561.181C593.337 567.24 593.84 573.712 592.757 580.015C591.675 586.317 589.04 592.25 585.092 597.279C589.568 602.956 592.356 609.78 593.136 616.969C593.916 624.158 592.657 631.421 589.504 637.927C586.35 644.434 581.429 649.92 575.303 653.759C569.178 657.598 562.096 659.634 554.868 659.634C547.64 659.634 540.558 657.598 534.432 653.759C528.307 649.92 523.386 644.434 520.232 637.927C517.079 631.421 515.82 624.158 516.6 616.969C517.38 609.78 520.168 602.956 524.644 597.279C519.313 590.493 516.414 582.113 516.414 573.482C516.414 564.851 519.313 556.471 524.644 549.685V549.728Z" fill="#EA4335"/>
<path opacity="0.1" d="M593.332 573.518C593.333 582.139 590.43 590.51 585.092 597.279C589.568 602.956 592.356 609.78 593.136 616.969C593.916 624.158 592.657 631.421 589.504 637.927C586.35 644.434 581.429 649.92 575.303 653.759C569.178 657.598 562.096 659.634 554.868 659.634C547.64 659.634 540.558 657.598 534.432 653.759C528.307 649.92 523.386 644.434 520.232 637.927C517.079 631.421 515.82 624.158 516.6 616.969C517.38 609.78 520.168 602.956 524.644 597.279C519.469 590.761 593.332 569.196 593.332 573.518Z" fill="#EA4335"/>
<path opacity="0.2" d="M561.028 669.846C561.095 669.947 561.156 670.052 561.213 670.159H548.154C548.225 670.059 548.268 669.945 548.339 669.846C547.215 667.89 546.634 665.669 546.657 663.413C546.651 661.867 546.916 660.332 547.441 658.878C548.168 658.992 549.066 659.12 550.107 659.234C553.136 659.537 556.188 659.537 559.217 659.234C560.091 659.149 560.99 659.035 561.911 658.892C561.905 658.915 561.905 658.94 561.911 658.963C562.431 660.394 562.691 661.905 562.681 663.427C562.71 665.676 562.139 667.891 561.028 669.846Z" fill="#3F3D56"/>
<path opacity="0.1" d="M514.095 670.159H441.386C441.229 669.746 441.086 669.304 440.958 668.876C438.397 660.634 438.693 651.769 441.799 643.717C434.701 638.808 429.458 631.655 426.911 623.406C424.365 615.158 424.662 606.293 427.757 598.234C426.295 597.228 424.909 596.117 423.608 594.911L442.74 585.37L420.985 592.273C417.486 588.368 414.822 583.79 413.155 578.819C411.488 573.847 410.853 568.588 411.29 563.363L445.235 569.496L412.131 557.986C413.273 552.796 415.476 547.899 418.603 543.603C421.729 539.306 425.71 535.704 430.295 533.022C434.881 530.339 439.972 528.636 445.247 528.018C450.523 527.4 455.87 527.881 460.951 529.431C466.032 530.98 470.737 533.566 474.771 537.023C478.804 540.481 482.079 544.736 484.388 549.522C486.698 554.307 487.992 559.519 488.19 564.829C488.388 570.14 487.485 575.434 485.539 580.378C487.835 581.976 489.952 583.817 491.854 585.869L469.871 607.562L494.891 589.563C498.641 594.753 501.037 600.797 501.864 607.147C502.69 613.498 501.92 619.954 499.624 625.932C506.529 630.715 511.68 637.626 514.293 645.612C516.906 653.597 516.836 662.217 514.095 670.159Z" fill="#EA4335"/>
<path opacity="0.1" d="M514.095 670.159H441.386C441.23 669.746 441.087 669.304 440.959 668.876C438.397 660.634 438.694 651.769 441.8 643.717C434.957 638.982 499.154 596.551 500.423 600.687C502.985 608.934 502.688 617.804 499.582 625.86C506.509 630.642 511.679 637.563 514.3 645.563C516.922 653.564 516.85 662.204 514.095 670.159Z" fill="#EA4335"/>
<path opacity="0.1" d="M843.067 618.045C838.651 625.459 831.865 631.167 823.806 634.247C824.151 636.991 824.203 639.764 823.963 642.519L793.154 640.665L823.25 647.197C822.364 651.301 820.814 655.232 818.659 658.835C816.036 663.248 812.544 667.081 808.395 670.102H766.452V671.201H723.682C723.767 670.83 723.853 670.473 723.953 670.102C725.513 664.202 728.453 658.757 732.531 654.216C736.609 649.676 741.707 646.17 747.405 643.988C746.311 635.426 748.123 626.745 752.552 619.338C756.981 611.93 763.769 606.226 771.826 603.141C771.601 601.376 771.496 599.599 771.513 597.821L791.401 605.679L771.727 594.112C772.306 588.9 773.945 583.86 776.541 579.304C779.137 574.747 782.637 570.769 786.824 567.613L804.944 596.965L791.358 564.646C798.759 560.55 807.302 559.005 815.668 560.253C824.034 561.5 831.757 565.469 837.642 571.547C843.527 577.624 847.248 585.472 848.228 593.876C849.209 602.281 847.395 610.775 843.067 618.045Z" fill="#EA4335"/>
<path opacity="0.1" d="M818.659 658.892C816.036 663.305 812.544 667.138 808.395 670.159H766.452V671.258H723.682C723.767 670.887 723.853 670.53 723.953 670.159C725.513 664.259 728.453 658.814 732.531 654.273C736.609 649.733 741.707 646.227 747.405 644.045C747.048 641.193 755.331 641.62 766.38 643.475C788.036 647.111 820.128 656.439 818.659 658.892Z" fill="#EA4335"/>
<path d="M636.857 556.189C636.857 556.189 642.132 584.714 630.356 594.027C618.58 603.34 640.336 659.163 676.234 652.645C712.132 646.127 726.76 599.304 726.76 599.304C726.76 599.304 690.804 591.859 704.134 554.021L636.857 556.189Z" fill="#EE8E9E"/>
<path opacity="0.1" d="M636.857 556.189C636.857 556.189 642.132 584.714 630.356 594.027C618.58 603.34 640.336 659.163 676.234 652.645C712.132 646.127 726.76 599.304 726.76 599.304C726.76 599.304 690.804 591.859 704.134 554.021L636.857 556.189Z" fill="black"/>
<path d="M668.637 577.126C701.509 577.126 728.158 550.467 728.158 517.581C728.158 484.695 701.509 458.035 668.637 458.035C635.764 458.035 609.115 484.695 609.115 517.581C609.115 550.467 635.764 577.126 668.637 577.126Z" fill="#EE8E9E"/>
<path d="M766.452 630.781V671.257H569.91V632.621C569.91 627.721 571.353 622.931 574.058 618.847C576.763 614.763 580.612 611.567 585.122 609.658L590.753 607.262C605.01 601.186 622.332 593.642 627.992 590.504C628.612 590.194 629.195 589.816 629.731 589.377C632.825 586.282 632.212 590.304 632.212 590.304C632.212 590.304 632.126 591.074 632.069 592.401C631.727 601.514 633.039 637.327 674.996 634.346C715.927 631.494 717.766 603.796 717.352 595.653C717.329 594.899 717.267 594.147 717.167 593.399C719.998 594.073 722.768 594.979 725.45 596.109C734.004 599.275 746.635 604.353 750.014 606.749C751.069 607.49 752.352 608.261 753.749 609.045C755.335 609.929 756.817 610.986 758.169 612.197C760.776 614.539 762.861 617.405 764.288 620.607C765.715 623.809 766.453 627.275 766.452 630.781Z" fill="#EA4335"/>
<path opacity="0.1" d="M725.449 596.109C721.984 612.168 711.107 642.248 671.901 643.032C630.129 643.859 627.705 602.299 627.976 590.504C628.605 590.202 629.194 589.824 629.73 589.377C632.838 586.282 632.21 590.304 632.21 590.304C632.21 590.304 626.95 637.755 674.98 634.346C723.011 630.938 717.109 593.413 717.109 593.413C717.109 593.185 720.687 594.426 725.449 596.109Z" fill="black"/>
<path d="M598.18 520.562C600.156 520.067 602.235 520.177 604.148 520.876C606.062 521.575 607.722 522.832 608.915 524.484C611.082 527.522 611.41 531.187 611.681 534.696C614.261 535.237 615.715 532.314 615.958 530.103C616.913 521.103 616.984 511.933 620.006 503.233C623.029 494.533 629.63 486.118 639.766 482.795C643.23 481.594 646.931 481.242 650.558 481.768C652.711 482.125 654.736 482.88 656.874 483.194C664.288 484.421 672.343 480.912 679.286 483.351C683.648 484.891 686.414 488.443 688.453 491.994C689.339 493.909 690.545 495.66 692.017 497.171C694.968 499.824 699.587 500.509 703.821 501.336C708.055 502.163 712.675 503.604 714.485 506.87C716.11 509.822 714.913 513.231 714.371 516.425C713.533 521.486 714.38 526.683 716.781 531.215C717.565 532.642 719.161 534.367 721.058 533.897C721.907 533.61 722.625 533.028 723.082 532.257C727.943 525.439 727.815 516.568 733.917 510.421C735.956 508.367 738.593 506.77 740.575 504.716C742.075 503.194 743.175 501.324 743.777 499.274C744.379 497.223 744.464 495.055 744.025 492.964C742.927 488.257 739.163 484.406 736.127 480.27C732.183 475.031 729.31 469.065 727.673 462.713C727.387 461.975 727.387 461.156 727.673 460.417C728.249 459.668 728.99 459.063 729.84 458.649C731.492 457.54 732.685 455.868 733.194 453.943C733.703 452.019 733.494 449.975 732.605 448.194C730.88 444.672 727.088 441.99 722.811 440.393C718.473 438.967 713.995 438.011 709.453 437.54C706.459 437.968 702.952 436.271 702.025 433.875C701.611 432.805 701.612 431.65 701.198 430.58C700.637 429.506 699.826 428.583 698.834 427.888C697.841 427.193 696.696 426.746 695.495 426.587C692.945 426.174 690.334 426.36 687.868 427.129C685.017 427.928 681.78 429.126 679.314 427.728C678.017 427 677.304 425.674 675.907 425.075C673.055 423.877 670.119 426.302 668.08 428.298C666.115 430.393 663.703 432.017 661.023 433.048C659.608 433.587 658.093 433.814 656.582 433.713C655.071 433.612 653.6 433.186 652.269 432.463C650.316 431.222 649.332 429.225 647.778 427.642C644.843 425.024 641.087 423.511 637.157 423.364C633.116 423.149 629.067 423.592 625.167 424.676C617.725 426.49 610.617 429.475 604.11 433.518C600.837 435.318 598.06 437.9 596.027 441.035C594.824 443.438 594.203 446.091 594.216 448.779C593.903 457.208 596.697 466.079 603.982 471.984C599.534 473.838 598.037 478.388 596.996 482.424C595.328 488.871 593.66 495.417 594.287 501.978C594.601 505.372 595.528 508.767 595.029 512.147C594.629 513.738 594.409 515.37 594.373 517.01C594.583 517.914 595.057 518.734 595.735 519.367C596.413 519.999 597.264 520.415 598.18 520.562Z" fill="#454B69"/>
<g opacity="0.1">
<path opacity="0.1" d="M743.098 490.311C742.458 491.709 741.591 492.991 740.532 494.105C738.55 496.187 735.913 497.799 733.874 499.81C727.772 505.914 727.901 514.842 723.039 521.66C722.585 522.431 721.865 523.009 721.015 523.286C719.161 523.771 717.565 522.088 716.738 520.604C715.796 518.798 715.082 516.882 714.613 514.899C714.514 515.399 714.414 515.898 714.328 516.326C713.49 521.387 714.337 526.583 716.738 531.116C717.522 532.542 719.118 534.268 721.015 533.797C721.864 533.51 722.582 532.928 723.039 532.157C727.901 525.339 727.772 516.468 733.874 510.321C735.913 508.267 738.55 506.67 740.532 504.616C742.032 503.094 743.132 501.225 743.734 499.174C744.336 497.123 744.421 494.956 743.982 492.864C743.763 491.989 743.467 491.134 743.098 490.311Z" fill="black"/>
<path opacity="0.1" d="M729.81 448.095C728.958 448.504 728.216 449.11 727.643 449.863C727.358 450.597 727.358 451.411 727.643 452.145C728.206 454.361 728.925 456.535 729.796 458.649C731.449 457.54 732.641 455.868 733.15 453.943C733.659 452.019 733.45 449.975 732.562 448.194C732.284 447.607 731.95 447.048 731.564 446.526C731.058 447.13 730.467 447.658 729.81 448.095Z" fill="black"/>
<path opacity="0.1" d="M604.067 461.316C599.016 457.152 595.688 451.262 594.728 444.786C594.473 446.064 594.33 447.362 594.301 448.665C593.974 454.893 595.615 461.065 598.991 466.308C600.012 464.076 601.819 462.299 604.067 461.316Z" fill="black"/>
<path opacity="0.1" d="M714.371 505.914C714.913 502.705 716.11 499.296 714.485 496.358C712.674 493.078 708.055 491.652 703.821 490.825C699.587 489.997 694.968 489.298 692.017 486.66C690.544 485.148 689.339 483.398 688.453 481.483C686.442 477.931 683.648 474.352 679.286 472.84C672.343 470.401 664.288 473.895 656.874 472.683C654.736 472.326 652.711 471.585 650.558 471.257C646.931 470.726 643.229 471.079 639.766 472.284C629.63 475.621 623.029 484.036 620.006 492.721C616.984 501.407 616.913 510.578 615.958 519.592C615.715 521.788 614.261 524.726 611.681 524.184C611.41 520.661 611.082 517.053 608.915 513.958C607.72 512.309 606.059 511.055 604.146 510.358C602.232 509.662 600.154 509.554 598.18 510.05C596.982 509.782 595.917 509.101 595.171 508.125C595.328 509.432 595.328 510.754 595.171 512.061C594.771 513.653 594.551 515.284 594.516 516.925C594.699 517.837 595.152 518.674 595.815 519.327C596.478 519.981 597.321 520.42 598.237 520.59C600.213 520.096 602.292 520.205 604.205 520.904C606.119 521.604 607.779 522.86 608.972 524.512C611.139 527.55 611.467 531.216 611.738 534.724C614.318 535.266 615.772 532.342 616.015 530.132C616.97 521.132 617.041 511.961 620.063 503.261C623.086 494.561 629.687 486.147 639.823 482.823C643.287 481.623 646.988 481.271 650.615 481.796C652.768 482.153 654.793 482.909 656.931 483.223C664.345 484.449 672.4 480.941 679.343 483.38C683.705 484.92 686.471 488.471 688.51 492.023C689.396 493.938 690.601 495.688 692.074 497.2C695.025 499.853 699.644 500.537 703.878 501.364C708.112 502.192 712.432 503.532 714.328 506.556C714.257 506.342 714.328 506.128 714.371 505.914Z" fill="black"/>
<path opacity="0.1" d="M595.115 501.479C595.349 498.822 595.191 496.145 594.644 493.534C594.226 496.29 594.135 499.086 594.373 501.864C594.373 502.577 594.53 503.29 594.63 503.989C594.787 503.147 595.001 502.32 595.115 501.479Z" fill="black"/>
</g>
<path d="M525.344 728.806V703.062C525.344 702.87 525.42 702.685 525.557 702.548C525.693 702.412 525.878 702.335 526.071 702.335H528.993C529.186 702.335 529.371 702.412 529.508 702.548C529.644 702.685 529.721 702.87 529.721 703.062V713.774L541.582 702.777C541.861 702.545 542.2 702.395 542.559 702.346C542.919 702.296 543.285 702.349 543.617 702.497C543.948 702.646 544.231 702.885 544.433 703.186C544.636 703.488 544.749 703.84 544.761 704.203V727.522C544.749 727.886 544.636 728.238 544.433 728.54C544.231 728.841 543.948 729.08 543.617 729.229C543.285 729.377 542.919 729.43 542.559 729.38C542.2 729.331 541.861 729.181 541.582 728.949L529.721 718.024V728.678C529.721 728.871 529.644 729.056 529.508 729.192C529.371 729.328 529.186 729.405 528.993 729.405H526.071C525.898 729.408 525.73 729.349 525.597 729.239C525.464 729.13 525.374 728.976 525.344 728.806Z" fill="#444053"/>
<path d="M811.943 703.063V728.806C811.943 728.903 811.924 728.999 811.886 729.088C811.849 729.177 811.794 729.258 811.725 729.326C811.656 729.393 811.574 729.447 811.484 729.482C811.395 729.518 811.298 729.535 811.202 729.533H808.35C808.158 729.533 807.973 729.457 807.836 729.32C807.7 729.184 807.623 728.999 807.623 728.806V718.095L795.762 729.077C795.481 729.308 795.142 729.457 794.782 729.505C794.422 729.554 794.055 729.502 793.724 729.353C793.392 729.205 793.108 728.967 792.904 728.666C792.7 728.366 792.584 728.014 792.568 727.651V704.246C792.584 703.883 792.7 703.531 792.904 703.231C793.108 702.93 793.392 702.692 793.724 702.544C794.055 702.396 794.422 702.343 794.782 702.392C795.142 702.441 795.481 702.589 795.762 702.82L807.623 713.745V703.105C807.623 702.912 807.7 702.727 807.836 702.591C807.973 702.455 808.158 702.378 808.35 702.378H811.202C811.39 702.374 811.572 702.443 811.71 702.571C811.849 702.698 811.932 702.875 811.943 703.063Z" fill="#444053"/>
<path d="M663.802 729.919H658C657.244 729.919 656.518 729.618 655.984 729.083C655.449 728.548 655.148 727.823 655.148 727.066V705.758C655.148 705.002 655.449 704.276 655.984 703.741C656.518 703.206 657.244 702.906 658 702.906H663.802C664.558 702.906 665.284 703.206 665.818 703.741C666.353 704.276 666.653 705.002 666.653 705.758V727.066C666.653 727.823 666.353 728.548 665.818 729.083C665.284 729.618 664.558 729.919 663.802 729.919ZM682.193 727.066V705.758C682.193 705.002 681.893 704.276 681.358 703.741C680.823 703.206 680.098 702.906 679.342 702.906H673.482C672.726 702.906 672.001 703.206 671.466 703.741C670.932 704.276 670.631 705.002 670.631 705.758V727.066C670.631 727.823 670.932 728.548 671.466 729.083C672.001 729.618 672.726 729.919 673.482 729.919H679.285C679.664 729.926 680.041 729.858 680.394 729.718C680.746 729.578 681.067 729.369 681.338 729.104C681.609 728.838 681.824 728.521 681.971 728.171C682.118 727.821 682.193 727.446 682.193 727.066Z" fill="#444053"/>
<path opacity="0.6" d="M839.716 668.362H497.557V672.17H839.716V668.362Z" fill="#444053"/>
<path d="M603.212 679.287C608.196 679.287 612.236 675.245 612.236 670.259C612.236 665.273 608.196 661.231 603.212 661.231C598.228 661.231 594.188 665.273 594.188 670.259C594.188 675.245 598.228 679.287 603.212 679.287Z" fill="#444053"/>
<path d="M603.213 668.362H497.557V672.17H603.213V668.362Z" fill="#444053"/>
<path d="M1364.47 1098.17C1411.3 1098.17 1449.26 1090.87 1449.26 1081.86C1449.26 1072.85 1411.3 1065.54 1364.47 1065.54C1317.65 1065.54 1279.69 1072.85 1279.69 1081.86C1279.69 1090.87 1317.65 1098.17 1364.47 1098.17Z" fill="#EA4335"/>
<path d="M1363.06 1087.85C1368.51 1087.85 1372.93 1082.06 1372.93 1074.92C1372.93 1067.79 1368.51 1062 1363.06 1062C1357.61 1062 1353.2 1067.79 1353.2 1074.92C1353.2 1082.06 1357.61 1087.85 1363.06 1087.85Z" fill="#3F3D56"/>
<path d="M1363.06 1072.04C1368.51 1072.04 1372.93 1066.26 1372.93 1059.12C1372.93 1051.99 1368.51 1046.2 1363.06 1046.2C1357.61 1046.2 1353.2 1051.99 1353.2 1059.12C1353.2 1066.26 1357.61 1072.04 1363.06 1072.04Z" fill="#3F3D56"/>
<path d="M1363.06 1056.26C1368.51 1056.26 1372.93 1050.47 1372.93 1043.33C1372.93 1036.2 1368.51 1030.41 1363.06 1030.41C1357.61 1030.41 1353.2 1036.2 1353.2 1043.33C1353.2 1050.47 1357.61 1056.26 1363.06 1056.26Z" fill="#3F3D56"/>
<path d="M1363.06 1040.45C1368.51 1040.45 1372.93 1034.67 1372.93 1027.53C1372.93 1020.39 1368.51 1014.61 1363.06 1014.61C1357.61 1014.61 1353.2 1020.39 1353.2 1027.53C1353.2 1034.67 1357.61 1040.45 1363.06 1040.45Z" fill="#3F3D56"/>
<path d="M1363.06 1024.65C1368.51 1024.65 1372.93 1018.86 1372.93 1011.73C1372.93 1004.59 1368.51 998.807 1363.06 998.807C1357.61 998.807 1353.2 1004.59 1353.2 1011.73C1353.2 1018.86 1357.61 1024.65 1363.06 1024.65Z" fill="#3F3D56"/>
<path d="M1363.06 1008.85C1368.51 1008.85 1372.93 1003.06 1372.93 995.926C1372.93 988.789 1368.51 983.004 1363.06 983.004C1357.61 983.004 1353.2 988.789 1353.2 995.926C1353.2 1003.06 1357.61 1008.85 1363.06 1008.85Z" fill="#3F3D56"/>
<path d="M1363.06 993.045C1368.51 993.045 1372.93 987.259 1372.93 980.123C1372.93 972.987 1368.51 967.201 1363.06 967.201C1357.61 967.201 1353.2 972.987 1353.2 980.123C1353.2 987.259 1357.61 993.045 1363.06 993.045Z" fill="#3F3D56"/>
<path d="M1400 872.014C1401.35 870.292 1402.58 868.482 1403.68 866.595L1377.73 862.316L1405.79 862.53C1408.48 856.671 1409.94 850.326 1410.1 843.882C1410.25 837.438 1409.09 831.03 1406.69 825.049L1369.08 844.588L1403.78 819.073C1400.53 813.449 1396.15 808.556 1390.93 804.698C1385.71 800.84 1379.74 798.1 1373.41 796.648C1367.09 795.195 1360.53 795.063 1354.14 796.258C1347.76 797.453 1341.69 799.951 1336.32 803.595C1330.94 807.239 1326.37 811.951 1322.9 817.439C1319.42 822.926 1317.11 829.071 1316.12 835.489C1315.12 841.908 1315.45 848.464 1317.1 854.748C1318.74 861.032 1321.67 866.91 1325.68 872.014C1323.59 874.67 1321.78 877.539 1320.29 880.572L1353.97 898.072L1318.07 886.02C1315.55 893.473 1314.92 901.436 1316.25 909.191C1317.58 916.945 1320.82 924.246 1325.68 930.433C1320.2 937.41 1316.79 945.789 1315.84 954.612C1314.9 963.436 1316.45 972.348 1320.33 980.33C1324.2 988.311 1330.25 995.041 1337.77 999.749C1345.29 1004.46 1353.98 1006.95 1362.85 1006.95C1371.72 1006.95 1380.41 1004.46 1387.93 999.749C1395.45 995.041 1401.49 988.311 1405.37 980.33C1409.25 972.348 1410.8 963.436 1409.85 954.612C1408.91 945.789 1405.5 937.41 1400.02 930.433C1406.56 922.095 1410.12 911.799 1410.12 901.195C1410.12 890.592 1406.56 880.295 1400.02 871.957L1400 872.014Z" fill="#EA4335"/>
<path opacity="0.1" d="M1315.57 901.252C1315.55 911.859 1319.12 922.162 1325.68 930.49C1320.2 937.467 1316.79 945.846 1315.84 954.669C1314.9 963.493 1316.45 972.405 1320.33 980.387C1324.21 988.368 1330.25 995.098 1337.77 999.806C1345.29 1004.51 1353.98 1007.01 1362.85 1007.01C1371.72 1007.01 1380.41 1004.51 1387.93 999.806C1395.45 995.098 1401.49 988.368 1405.37 980.387C1409.25 972.405 1410.8 963.493 1409.85 954.669C1408.91 945.846 1405.5 937.467 1400.02 930.49C1406.35 922.46 1315.57 895.947 1315.57 901.252Z" fill="black"/>
<path opacity="0.1" d="M413.441 1186C491.391 1186 554.582 1172.59 554.582 1156.05C554.582 1139.51 491.391 1126.1 413.441 1126.1C335.492 1126.1 272.301 1139.51 272.301 1156.05C272.301 1172.59 335.492 1186 413.441 1186Z" fill="#EA4335"/>
<path d="M460.702 1152.57C457.851 1151.53 454.8 1151.7 451.82 1151.37C445.633 1150.66 439.873 1147.86 435.482 1143.44C432.658 1140.59 430.438 1137.19 428.952 1133.46C429.893 1133.8 430.834 1134.16 431.804 1134.54C428.952 1127.88 431.946 1120.41 434.57 1113.68C439.018 1102.27 443.223 1090.79 447.187 1079.26C457.166 1050.04 465.72 1019.64 465.535 988.552C465.535 977.313 463.468 966.688 463.069 955.463C462.769 947.134 464.052 938.819 463.995 930.476C463.995 929.306 463.995 928.151 463.91 926.982C466.46 924.748 468.464 921.958 469.766 918.828C471.069 915.698 471.636 912.31 471.423 908.925C471.278 907.162 471.026 905.409 470.667 903.677C470.162 900.667 469.496 897.687 468.671 894.749C467.73 891.654 466.447 888.687 465.35 885.664C463.225 879.802 461.785 873.697 459.975 867.736C460.646 867.805 461.301 867.983 461.914 868.263C461.457 867.727 461.143 867.085 461.001 866.395C459.937 862.6 459.362 858.684 459.291 854.743L460.502 854.201C461.048 850.353 460.85 846.436 459.918 842.662C460.602 836.544 461.671 830.383 462.327 824.293C462.57 822.011 462.47 819.144 460.374 818.588C459.946 815.322 459.775 812.013 459.604 808.718C459.005 797.223 458.411 785.732 457.822 774.246C457.223 762.708 456.625 751.184 456.396 739.631C456.24 732.3 456.154 724.713 454.415 717.696C454.715 714.334 454.372 710.945 453.403 707.712C450.751 699.312 442.51 692.651 434.156 693.122C431.664 689.555 428.584 686.44 425.046 683.908C426.714 680.171 428.71 676.321 430.35 673.297C443.722 668.947 453.502 655.754 453.502 640.066C453.522 634.323 452.178 628.657 449.582 623.536C449.827 622.906 450.037 622.263 450.209 621.61C450.925 618.53 450.701 615.306 449.567 612.354C449.166 611.221 448.69 610.115 448.142 609.045C447.771 608.332 447.372 607.619 446.959 606.934L446.231 605.836C445.789 605.166 445.333 604.524 444.806 603.896C443.793 602.536 442.708 601.232 441.555 599.989C440.136 598.452 438.569 597.057 436.879 595.824C434.587 594.119 431.965 592.91 429.18 592.273C427.57 591.955 425.931 591.806 424.29 591.83C423.307 591.83 422.309 591.83 421.325 591.916C419.329 592.03 417.347 592.173 415.366 592.159C414.71 592.159 414.04 592.159 413.384 592.059C409.896 591.593 406.446 590.874 403.062 589.905L401.352 589.548C400.767 589.434 400.197 589.335 399.612 589.263C398.048 589.054 396.471 588.959 394.893 588.978H393.311C391.73 589.054 390.155 589.216 388.592 589.463L387.024 589.705C383.064 590.326 379.204 591.472 375.547 593.114C375.077 593.328 374.592 593.57 374.121 593.827L373.836 593.984C373.451 594.184 373.066 594.398 372.696 594.626L372.482 594.754L371.27 595.524L371.17 595.596C359.85 603.212 353.164 617.645 351.468 631.965C349.571 648.038 352.893 664.24 356.215 680.057L359.209 694.32C359.337 694.962 359.48 695.589 359.608 696.231C355.398 699.687 352.16 704.179 350.213 709.267C347.362 716.398 347.29 724.114 347.518 731.844C347.518 733.413 347.604 734.982 347.761 736.551C347.404 739.517 347.091 742.498 346.891 745.493C345.993 759.328 347.675 773.233 347.233 787.096C346.891 797.779 345.28 808.49 346.064 819.101C346.749 828.514 349.272 837.642 351.767 846.727L355.36 859.677C355.476 860.348 355.789 860.968 356.258 861.46C356.848 861.857 357.57 862.005 358.268 861.874C355.931 867.185 353.978 872.657 352.423 878.247C351.349 881.671 350.641 885.199 350.313 888.773C349.842 895.305 351.354 901.794 352.865 908.141C355.146 917.649 357.417 927.195 359.679 936.78C361.276 943.483 362.868 950.182 364.455 956.875C367.592 970.082 370.743 983.375 371.327 996.967C371.653 1003.79 371.174 1010.63 369.901 1017.35C365.788 1037.45 365.19 1058.12 368.134 1078.43C370.513 1095.57 374.372 1112.47 379.667 1128.94C380.822 1128.32 381.991 1127.75 383.189 1127.22L382.69 1128.15C381.045 1131 379.525 1133.93 378.127 1136.92C377.186 1138.87 376.371 1140.88 375.69 1142.93C373.865 1148.63 373.58 1154.71 373.323 1160.71C373.192 1161.87 373.294 1163.04 373.622 1164.15C374.406 1166.3 376.659 1167.4 378.755 1168C384.914 1169.76 391.315 1169.13 397.716 1168.3C397.746 1168.44 397.789 1168.58 397.844 1168.71C398.629 1170.87 400.867 1171.97 402.977 1172.56C411.787 1175.08 421.083 1172.71 430.164 1171.85C439.246 1171 448.17 1171.62 456.91 1169.53C458.212 1169.25 459.463 1168.77 460.616 1168.1C462.863 1166.53 464.512 1164.24 465.293 1161.61C465.566 1160.93 465.748 1160.22 465.834 1159.49C466.191 1156.36 463.525 1153.61 460.702 1152.57ZM430.549 1020.49C430.058 1023.83 429.098 1027.08 427.698 1030.16C420.84 1044.74 415.922 1060.17 413.07 1076.04C411.199 1086.52 410.118 1097.13 409.834 1107.77C409.692 1115.62 409.991 1123.83 406.726 1130.88L407.91 1130.69C407.539 1131.38 407.182 1132.12 406.84 1132.66L406.669 1132.97C404.695 1129.61 403.374 1125.9 402.777 1122.05C402.777 1121.92 402.136 1121.82 401.152 1121.76C397.122 1099.23 395.725 1076.31 396.989 1053.46C397.008 1050.69 397.392 1047.93 398.13 1045.26C398.857 1042.96 400.083 1040.87 400.981 1038.64C402.405 1034.9 403.363 1031 403.832 1027.03C405.385 1016.88 405.986 1006.6 405.628 996.339C405.286 986.655 407.525 977.028 409.435 967.387C410.347 962.809 411.189 958.216 411.645 953.624L411.73 952.697C420.213 966.695 426.14 982.091 429.237 998.165C430.959 1005.47 431.403 1013.03 430.549 1020.49ZM369.531 814.366L369.987 814.765C371.365 815.978 372.634 817.31 373.779 818.745C374.349 819.37 374.76 820.123 374.977 820.941C375.404 823.023 373.679 824.792 372.268 826.318C371.655 826.979 371.079 827.674 370.543 828.4C370.239 823.722 369.916 819.044 369.573 814.366H369.531Z" fill="url(#paint0_linear)"/>
<path d="M349.8 724.969L348.232 737.078C347.705 741.186 347.177 745.279 346.892 749.401C345.937 763.121 347.705 776.899 347.248 790.648C346.878 801.23 345.196 811.799 346.008 822.367C346.735 831.695 349.387 840.766 352.039 849.751L355.802 862.587C355.931 863.258 356.259 863.874 356.743 864.355C357.469 864.785 358.33 864.923 359.153 864.741L375.862 863.229C374.792 858.322 373.609 853.245 373.01 848.21C372.554 844.274 372.283 840.309 371.998 836.344C371.114 823.993 370.102 811.642 369.147 799.262L367.365 777.583C366.609 768.17 365.825 758.714 363.458 749.572C361.084 740.338 356.381 731.867 349.8 724.969Z" fill="#EA4335"/>
<path opacity="0.1" d="M349.8 724.969L348.232 737.078C347.705 741.186 347.177 745.279 346.892 749.401C345.937 763.121 347.705 776.899 347.248 790.648C346.878 801.23 345.196 811.799 346.008 822.367C346.735 831.695 349.387 840.766 352.039 849.751L355.802 862.587C355.931 863.258 356.259 863.874 356.743 864.355C357.469 864.785 358.33 864.923 359.153 864.741L375.862 863.229C374.792 858.322 373.609 853.245 373.01 848.21C372.554 844.274 372.283 840.309 371.998 836.344C371.114 823.993 370.102 811.642 369.147 799.262L367.365 777.583C366.609 768.17 365.825 758.714 363.458 749.572C361.084 740.338 356.381 731.867 349.8 724.969Z" fill="black"/>
<path d="M379.569 1137.18C378.588 1139.11 377.731 1141.1 377.003 1143.14C375.092 1148.78 374.807 1154.82 374.522 1160.77C374.396 1161.92 374.503 1163.08 374.836 1164.18C375.663 1166.32 378.029 1167.4 380.239 1167.99C389.491 1170.48 399.243 1168.14 408.752 1167.29C418.261 1166.43 427.656 1167.06 436.838 1164.99C438.194 1164.73 439.504 1164.27 440.73 1163.64C443.055 1162.12 444.79 1159.86 445.648 1157.22C445.925 1156.54 446.112 1155.83 446.204 1155.11C446.504 1151.97 443.781 1149.26 440.815 1148.23C437.85 1147.21 434.614 1147.36 431.492 1147.05C425.061 1146.39 419.027 1143.63 414.326 1139.19C409.624 1134.75 406.518 1128.89 405.487 1122.5C405.373 1121.82 390.033 1122.23 388.379 1123.12C386.498 1124.16 385.357 1126.74 384.288 1128.49C382.605 1131.32 381.033 1134.21 379.569 1137.18Z" fill="#A26565"/>
<path opacity="0.1" d="M379.569 1137.18C378.588 1139.11 377.731 1141.1 377.003 1143.14C375.092 1148.78 374.807 1154.82 374.522 1160.77C374.396 1161.92 374.503 1163.08 374.836 1164.18C375.663 1166.32 378.029 1167.4 380.239 1167.99C389.491 1170.48 399.243 1168.14 408.752 1167.29C418.261 1166.43 427.656 1167.06 436.838 1164.99C438.194 1164.73 439.504 1164.27 440.73 1163.64C443.055 1162.12 444.79 1159.86 445.648 1157.22C445.925 1156.54 446.112 1155.83 446.204 1155.11C446.504 1151.97 443.781 1149.26 440.815 1148.23C437.85 1147.21 434.614 1147.36 431.492 1147.05C425.061 1146.39 419.027 1143.63 414.326 1139.19C409.624 1134.75 406.518 1128.89 405.487 1122.5C405.373 1121.82 390.033 1122.23 388.379 1123.12C386.498 1124.16 385.357 1126.74 384.288 1128.49C382.605 1131.32 381.033 1134.21 379.569 1137.18Z" fill="black"/>
<path d="M405.016 1141.72C404.029 1143.64 403.172 1145.63 402.45 1147.66C400.526 1153.37 400.24 1159.34 399.969 1165.29C399.837 1166.44 399.943 1167.6 400.283 1168.7C401.096 1170.84 403.462 1171.92 405.672 1172.52C414.925 1175 424.69 1172.66 434.185 1171.81C443.68 1170.95 453.104 1171.58 462.271 1169.51C463.633 1169.24 464.945 1168.76 466.163 1168.09C468.491 1166.58 470.228 1164.31 471.082 1161.67C471.358 1160.99 471.545 1160.28 471.638 1159.56C471.937 1156.43 469.214 1153.71 466.249 1152.68C463.283 1151.66 460.047 1151.83 456.925 1151.5C450.497 1150.84 444.466 1148.08 439.765 1143.64C435.065 1139.21 431.956 1133.35 430.921 1126.97C430.807 1126.28 415.466 1126.68 413.813 1127.57C411.917 1128.61 410.776 1131.19 409.707 1132.94C408.082 1135.84 406.485 1138.75 405.016 1141.72Z" fill="#A26565"/>
<path d="M471.353 990.207C471.552 1021.03 462.599 1051.15 452.092 1080.06C447.929 1091.53 443.514 1102.89 438.848 1114.16C436.082 1120.84 432.96 1128.25 435.925 1134.84C427.371 1131.59 418.674 1129.68 409.679 1131.18C413.1 1124.19 412.772 1116.06 412.929 1108.36C413.219 1097.8 414.344 1087.28 416.294 1076.91C419.313 1061.11 424.489 1045.81 431.677 1031.42C433.129 1028.39 434.133 1025.16 434.656 1021.84C435.825 1014.51 434.913 1006.98 433.387 999.72C430.106 983.685 423.869 968.402 414.996 954.651L414.911 955.563C414.378 960.15 413.607 964.706 412.601 969.212C410.591 978.754 408.239 988.31 408.595 997.908C408.967 1008.09 408.337 1018.28 406.713 1028.33C406.19 1032.28 405.16 1036.14 403.648 1039.83C402.664 1042.04 401.381 1044.1 400.611 1046.4C399.841 1049.04 399.438 1051.78 399.414 1054.53C398.273 1077.73 399.414 1101.3 404.147 1124.04C396.206 1123.42 388.265 1125.71 381.165 1129.28C375.614 1112.99 371.558 1096.24 369.047 1079.22C365.954 1059.09 366.582 1038.56 370.901 1018.66C372.246 1012.02 372.749 1005.24 372.397 998.479C371.784 985.001 368.477 971.822 365.184 958.73L360.165 938.762C357.789 929.254 355.413 919.789 353.037 910.366C351.454 904.076 349.858 897.644 350.357 891.169C350.705 887.616 351.451 884.114 352.581 880.729C356.14 869.214 361.464 858.321 368.363 848.439C395.835 849.979 423.636 847.412 451.051 845.301C452.381 845.039 453.76 845.272 454.929 845.957C455.864 846.907 456.421 848.164 456.497 849.494L466.805 907.97C468.474 916.097 469.452 924.351 469.728 932.644C469.728 940.916 468.444 949.16 468.758 957.417C469.186 968.542 471.296 979.068 471.353 990.207Z" fill="#454B69"/>
<path opacity="0.1" d="M414.938 955.563C414.406 960.15 413.635 964.706 412.629 969.212C406.655 958.872 400.211 948.789 394.708 938.192C393.282 935.468 391.942 932.701 390.588 929.934L386.525 921.662C385.769 920.107 385.014 918.552 384.329 916.969C383.215 914.695 382.359 912.303 381.777 909.838C383.773 909.467 388.706 914.858 390.189 916.27C393.213 919.266 396.069 922.428 398.743 925.741C401.99 929.423 404.973 933.331 407.667 937.436C411.118 943.014 413.578 949.146 414.938 955.563Z" fill="black"/>
<path d="M437.82 671.871C437.82 671.871 422.566 696.188 425.389 701.28C428.211 706.371 377.344 696.759 377.344 696.759C377.344 696.759 405.044 672.441 402.207 662.258C399.37 652.075 437.82 671.871 437.82 671.871Z" fill="#EFB7B9"/>
<path d="M424.264 679.23C443.311 679.23 458.751 663.784 458.751 644.73C458.751 625.675 443.311 610.229 424.264 610.229C405.218 610.229 389.777 625.675 389.777 644.73C389.777 663.784 405.218 679.23 424.264 679.23Z" fill="#EFB7B9"/>
<path d="M438.335 697.372C434.642 692.246 429.632 688.215 423.836 685.705C420.496 684.509 417.042 683.658 413.528 683.167L399.771 680.742C396.406 680.143 392.799 679.587 389.663 680.97C388.077 681.784 386.633 682.848 385.386 684.122C380.61 688.558 375.976 693.421 369.974 695.988C368.335 696.687 366.624 697.201 364.984 697.9C358.27 700.752 353.251 706.828 350.414 713.588C347.42 720.634 347.335 728.293 347.563 735.951C347.559 738.595 347.822 741.233 348.347 743.824C349.033 746.292 349.905 748.705 350.956 751.041C352.852 756.041 354.442 761.152 355.718 766.345C359.282 779.989 362.247 793.776 364.614 807.705C364.815 809.701 365.4 811.638 366.339 813.41C367.668 815.184 369.276 816.73 371.101 817.988C372.548 819.177 373.88 820.5 375.078 821.939C375.675 822.527 376.121 823.251 376.375 824.05C376.817 826.104 374.95 827.872 373.524 829.37C370.456 832.502 368.238 836.365 367.08 840.594C366.365 841.462 365.999 842.566 366.054 843.689C366.351 844.471 366.463 845.31 366.382 846.142C366.101 846.899 365.658 847.586 365.084 848.153C364.426 849.011 363.959 849.999 363.713 851.052C363.467 852.104 363.449 853.197 363.659 854.258C374.345 858.903 385.781 861.579 397.418 862.159C400.27 862.302 403.121 862.302 405.972 862.644C407.997 862.901 409.993 863.314 412.017 863.557C414.955 863.833 417.908 863.909 420.856 863.785C436.211 863.471 452.007 863.086 466.107 856.996C467.433 849.765 464.567 842.391 462.771 835.26C459.919 823.85 459.207 812.169 457.068 800.66C455.642 792.801 453.504 785.057 452.292 777.141C451.08 769.226 450.866 761.025 452.976 753.323C454.901 746.506 455.486 739.546 457.482 732.742C459.477 725.939 460.875 718.566 458.622 711.834C455.771 703.505 447.117 696.901 438.335 697.372Z" fill="#EA4335"/>
<path d="M455.271 626.431C456.953 620.312 453.645 613.937 449.711 608.96C445.434 603.611 439.988 598.79 433.301 597.45C427.869 596.352 422.238 597.678 416.707 597.236C411.817 596.851 407.112 595.082 402.25 594.383C397.839 593.908 393.383 594.076 389.02 594.883C384.88 595.498 380.833 596.629 376.973 598.249C362.289 604.766 353.692 620.826 351.696 636.757C349.7 652.688 353.193 668.747 356.672 684.422L359.823 698.598C363.102 713.36 366.381 728.178 367.25 743.268C368.12 758.358 366.495 773.847 360.293 787.624C380.349 776.846 395.889 759.246 404.104 738.005C406.328 732.172 407.981 726.11 410.462 720.377C412.586 715.442 415.309 710.764 417.191 705.73C419.318 700.047 420.339 694.01 420.199 687.944C420.085 683.38 419.33 678.845 419.458 674.281C419.586 669.717 420.755 664.968 423.906 661.659C426.757 658.735 430.678 657.38 434.285 655.483C439.963 652.565 444.924 648.425 448.812 643.36C451.079 640.394 451.208 639.082 451.778 635.716C452.348 632.35 454.387 629.668 455.271 626.431Z" fill="#A26565"/>
<path d="M455.313 885.592C455.67 889.144 455.028 892.723 455.798 896.246C456.383 898.87 457.737 901.238 458.535 903.805C459.325 906.769 459.733 909.823 459.747 912.89C459.861 915.457 459.662 918.595 457.381 919.793C456.383 920.321 455.185 920.321 454.144 920.777C453.104 921.234 452.22 922.475 452.818 923.444C453.417 924.414 454.444 924.257 455.385 924.443C456.326 924.628 457.338 925.598 456.81 926.382C456.596 926.639 456.307 926.824 455.983 926.91C455.032 927.203 454.128 927.636 453.303 928.194C452.9 928.487 452.584 928.886 452.391 929.346C452.197 929.806 452.133 930.31 452.205 930.804C452.263 931.04 452.373 931.26 452.528 931.448C452.682 931.635 452.877 931.785 453.098 931.887C453.319 931.988 453.56 932.039 453.803 932.034C454.045 932.029 454.284 931.969 454.501 931.859C454.082 932.753 453.854 933.725 453.831 934.712C457.48 936.281 461.572 934.227 464.994 932.244C466.473 931.419 467.901 930.504 469.271 929.506C472.038 927.38 474.244 924.609 475.696 921.434C477.147 918.26 477.799 914.778 477.597 911.293C477.434 909.542 477.162 907.804 476.784 906.087C476.258 903.097 475.558 900.139 474.688 897.23C473.704 894.164 472.364 891.24 471.21 888.231C468.757 881.827 467.175 875.124 464.951 868.634C464.802 867.961 464.424 867.361 463.882 866.937C463.391 866.695 462.844 866.592 462.299 866.637C459.803 866.506 457.301 866.737 454.871 867.322C453.446 867.75 451.008 868.748 450.338 870.175C449.668 871.601 450.737 872.799 451.379 873.983C453.428 877.562 454.764 881.504 455.313 885.592Z" fill="#EFB7B9"/>
<path opacity="0.1" d="M452.99 712.29C453.723 713.04 454.338 713.896 454.815 714.829C459.72 723.743 459.777 734.397 460.005 744.566C460.261 755.976 460.889 767.386 461.516 778.867L463.384 813.097C463.569 816.363 463.74 819.629 464.21 822.866C466.406 823.422 466.492 826.275 466.249 828.571C464.667 842.52 460.746 856.882 464.824 870.303C464.981 870.992 465.309 871.629 465.779 872.157C463.708 871.508 461.493 871.478 459.406 872.071C457.367 872.499 455.4 873.255 453.347 873.726C450.752 874.311 447.815 874.567 446.048 876.578C444.044 870.55 442.448 864.394 441.272 858.151C440.302 852.446 440.031 846.57 437.722 841.293C436.795 839.168 435.54 837.2 434.4 835.16C428.426 824.492 425.489 812.441 422.624 800.546C421.338 794.907 421.029 789.089 421.711 783.345C422.126 780.726 422.364 778.081 422.424 775.43C422.251 772.631 421.884 769.848 421.327 767.1C420.115 759.036 420.685 750.804 422.995 742.983C425.133 735.723 427.015 728.079 431.549 721.974C436.082 715.87 445.42 712.39 452.99 712.29Z" fill="black"/>
<path d="M454.687 711.149C455.419 711.904 456.034 712.765 456.512 713.702C461.416 722.602 461.473 733.27 461.701 743.439C461.958 754.849 462.585 766.259 463.212 777.669L465.08 811.899C465.265 815.165 465.436 818.431 465.907 821.668C468.102 822.225 468.188 825.077 467.931 827.373C466.363 841.322 462.442 855.67 466.506 869.105C466.663 869.794 466.991 870.431 467.461 870.959C465.39 870.31 463.175 870.28 461.088 870.873C459.049 871.301 457.082 872.057 455.029 872.514C452.434 873.113 449.497 873.355 447.73 875.366C445.732 869.31 444.151 863.125 442.996 856.854C442.027 851.149 441.756 845.287 439.446 840.01C438.443 837.911 437.335 835.864 436.125 833.877C430.137 823.209 427.214 811.143 424.349 799.248C423.062 793.609 422.754 787.791 423.436 782.047C424.51 776.671 424.379 771.122 423.051 765.803C421.84 757.743 422.409 749.515 424.719 741.699C426.858 734.44 428.74 726.795 433.273 720.691C437.807 714.587 447.116 711.263 454.687 711.149Z" fill="#EA4335"/>
<g opacity="0.1">
<path opacity="0.1" d="M449.712 608.96C445.435 603.611 439.989 598.79 433.302 597.45C427.87 596.352 422.239 597.678 416.708 597.236C411.818 596.851 407.113 595.082 402.251 594.383C397.84 593.908 393.384 594.076 389.021 594.883C384.881 595.498 380.834 596.629 376.974 598.249C374.889 599.183 372.899 600.315 371.029 601.629C374.465 600.293 378.036 599.337 381.679 598.776C386.037 597.969 390.489 597.8 394.895 598.277C399.771 598.905 404.461 600.659 409.365 601.044C414.883 601.486 420.514 600.174 425.96 601.258C432.646 602.599 438.121 607.433 442.355 612.782C446.304 617.745 449.598 624.12 447.93 630.253C447.046 633.477 444.993 636.3 444.437 639.624C443.881 642.947 443.738 644.302 441.457 647.268C438.532 651.073 434.996 654.365 430.993 657.009C432.09 656.496 433.217 655.982 434.286 655.426C439.964 652.508 444.926 648.368 448.814 643.303C451.08 640.337 451.209 639.025 451.779 635.659C452.349 632.293 454.388 629.526 455.272 626.288C456.954 620.312 453.647 613.937 449.712 608.96Z" fill="black"/>
<path opacity="0.1" d="M423.908 661.745C424.499 661.132 425.143 660.573 425.833 660.076C422.539 661.673 419.075 663.071 416.552 665.781C413.401 669.075 412.275 673.839 412.104 678.403C411.932 682.967 412.745 687.502 412.845 692.052C412.985 698.123 411.964 704.164 409.837 709.851C407.955 714.886 405.232 719.55 403.108 724.499C400.641 730.204 398.987 736.28 396.763 742.113C389.636 760.529 376.981 776.284 360.537 787.21C360.452 787.396 360.38 787.595 360.295 787.781C380.351 777.003 395.891 759.403 404.106 738.162C406.33 732.329 407.983 726.267 410.464 720.534C412.588 715.599 415.311 710.921 417.193 705.887C419.32 700.204 420.341 694.167 420.201 688.101C420.087 683.537 419.332 679.002 419.46 674.438C419.588 669.874 420.757 665.053 423.908 661.745Z" fill="black"/>
</g>
<defs>
<linearGradient id="paint0_linear" x1="408.708" y1="1173.63" x2="408.708" y2="589.021" gradientUnits="userSpaceOnUse">
<stop stop-color="#808080" stop-opacity="0.25"/>
<stop offset="0.54" stop-color="#808080" stop-opacity="0.12"/>
<stop offset="1" stop-color="#808080" stop-opacity="0.1"/>
</linearGradient>
</defs>
</svg>
